# 3ds Max Wavefront OBJ Exporter v0.97b - (c)2007 guruware
# File Created: 17.02.2016 13:37:17

mtllib 01_maze__end_white_2X.mtl

#
# object default
#

v  -3.0000 0.0000 -4.0000
v  -3.0000 10.0000 4.0000
v  -3.0000 0.0000 4.0000
v  -3.0000 10.0000 -4.0000
v  -1.0000 10.0000 -4.0000
v  -1.0000 12.0000 4.0000
v  -1.0000 10.0000 4.0000
v  -1.0000 12.0000 -4.0000
v  1.0000 10.0000 -4.0000
v  1.0000 10.0000 4.0000
v  1.0000 12.0000 4.0000
v  1.0000 12.0000 -4.0000
v  3.0000 0.0000 -4.0000
v  3.0000 0.0000 4.0000
v  3.0000 10.0000 4.0000
v  3.0000 10.0000 -4.0000
# 16 vertices

vn 1.0000 0.0000 -0.0000
vn -1.0000 0.0000 -0.0000
vn 0.0000 0.0000 -1.0000
vn 0.0000 0.0000 1.0000
vn 0.0000 1.0000 -0.0000
vn 0.0000 -1.0000 -0.0000
# 6 vertex normals

vt 0.1895 0.5000 0.0000
# 1 texture coords

g default
usemtl palette
s 1
f 1/1/1 2/1/1 3/1/1 
f 1/1/1 4/1/1 2/1/1 
f 5/1/1 6/1/1 7/1/1 
f 5/1/1 8/1/1 6/1/1 
f 9/1/2 10/1/2 11/1/2 
f 9/1/2 11/1/2 12/1/2 
f 13/1/2 14/1/2 15/1/2 
f 13/1/2 15/1/2 16/1/2 
f 2/1/3 7/1/3 3/1/3 
f 7/1/3 10/1/3 3/1/3 
f 6/1/3 10/1/3 7/1/3 
f 6/1/3 11/1/3 10/1/3 
f 10/1/3 14/1/3 3/1/3 
f 10/1/3 15/1/3 14/1/3 
f 4/1/4 1/1/4 5/1/4 
f 5/1/4 1/1/4 9/1/4 
f 8/1/4 5/1/4 9/1/4 
f 8/1/4 9/1/4 12/1/4 
f 9/1/4 1/1/4 13/1/4 
f 9/1/4 13/1/4 16/1/4 
f 14/1/5 1/1/5 3/1/5 
f 14/1/5 13/1/5 1/1/5 
f 7/1/6 2/1/6 4/1/6 
f 7/1/6 4/1/6 5/1/6 
f 15/1/6 10/1/6 9/1/6 
f 15/1/6 9/1/6 16/1/6 
f 11/1/6 6/1/6 8/1/6 
f 11/1/6 8/1/6 12/1/6 
# 0 polygons - 28 triangles

