# MagicaVoxel @ ephtracy

# material
mtllib 02_door_4X.mtl
usemtl palette

# normals
vn -1 0 0
vn 1 0 0
vn 0 0 1
vn 0 0 -1
vn 0 -1 0
vn 0 1 0

# texcoords
vt 0.00195313 0.5
vt 0.00585938 0.5
vt 0.00976563 0.5
vt 0.0136719 0.5

# verts
v -3 0 0.5
v -3 0 -0.5
v -3 1 0.5
v -3 1 -0.5
v -3 2 0.5
v -3 2 -0.5
v -3 3 0.5
v -3 3 -0.5
v -3 4 0.5
v -3 4 -0.5
v -3 5 0.5
v -3 5 -0.5
v -3 6 0.5
v -3 6 -0.5
v -3 7 0.5
v -3 7 -0.5
v -3 8 0.5
v -3 8 -0.5
v -3 9 0.5
v -3 9 -0.5
v -3 10 0.5
v -3 10 -0.5
v -3 11 0.5
v -3 11 -0.5
v -3 12 0.5
v -3 12 -0.5
v -3 13 1.5
v -3 13 0.5
v -3 13 -0.5
v -3 13 -1.5
v -3 14 0.5
v -3 14 -0.5
v -3 15 1.5
v -3 15 0.5
v -3 15 -0.5
v -3 15 -1.5
v -3 16 1.5
v -3 16 0.5
v -3 16 -0.5
v -3 16 -1.5
v -3 17 0.5
v -3 17 -0.5
v -3 18 1.5
v -3 18 0.5
v -3 18 -0.5
v -3 18 -1.5
v -3 19 0.5
v -3 19 -0.5
v -3 20 0.5
v -3 20 -0.5
v -3 21 0.5
v -3 21 -0.5
v -3 22 0.5
v -3 22 -0.5
v -3 23 0.5
v -3 23 -0.5
v -3 24 0.5
v -3 24 -0.5
v -2 3 1.5
v -2 3 0.5
v -2 3 -0.5
v -2 3 -1.5
v -2 4 0.5
v -2 4 -0.5
v -2 5 0.5
v -2 5 -0.5
v -2 6 0.5
v -2 6 -0.5
v -2 7 0.5
v -2 7 -0.5
v -2 8 0.5
v -2 8 -0.5
v -2 9 0.5
v -2 9 -0.5
v -2 10 0.5
v -2 10 -0.5
v -2 11 0.5
v -2 11 -0.5
v -2 12 1.5
v -2 12 0.5
v -2 12 -0.5
v -2 12 -1.5
v -2 15 1.5
v -2 15 0.5
v -2 15 -0.5
v -2 15 -1.5
v -2 16 1.5
v -2 16 0.5
v -2 16 -0.5
v -2 16 -1.5
v -2 13 1.5
v -2 13 0.5
v -2 13 -0.5
v -2 13 -1.5
v -2 14 1.5
v -2 14 0.5
v -2 14 -0.5
v -2 14 -1.5
v -2 17 1.5
v -2 17 0.5
v -2 17 -0.5
v -2 17 -1.5
v -2 18 1.5
v -2 18 0.5
v -2 18 -0.5
v -2 18 -1.5
v -1 4 1.5
v -1 4 0.5
v -1 4 -0.5
v -1 4 -1.5
v -1 5 0.5
v -1 5 -0.5
v -1 6 0.5
v -1 6 -0.5
v -1 7 0.5
v -1 7 -0.5
v -1 8 0.5
v -1 8 -0.5
v -1 9 0.5
v -1 9 -0.5
v -1 10 0.5
v -1 10 -0.5
v -1 11 1.5
v -1 11 0.5
v -1 11 -0.5
v -1 11 -1.5
v -1 14 1.5
v -1 14 0.5
v -1 14 -0.5
v -1 14 -1.5
v -1 15 1.5
v -1 15 0.5
v -1 15 -0.5
v -1 15 -1.5
v -1 16 1.5
v -1 16 0.5
v -1 16 -0.5
v -1 16 -1.5
v -1 17 1.5
v -1 17 0.5
v -1 17 -0.5
v -1 17 -1.5
v -1 20 0.5
v -1 20 -0.5
v -1 24 0.5
v -1 24 -0.5
v 0 3 1.5
v 0 3 0.5
v 0 3 -0.5
v 0 3 -1.5
v 0 4 1.5
v 0 4 0.5
v 0 4 -0.5
v 0 4 -1.5
v 0 11 1.5
v 0 11 0.5
v 0 11 -0.5
v 0 11 -1.5
v 0 12 1.5
v 0 12 0.5
v 0 12 -0.5
v 0 12 -1.5
v 0 15 1.5
v 0 15 0.5
v 0 15 -0.5
v 0 15 -1.5
v 0 16 1.5
v 0 16 0.5
v 0 16 -0.5
v 0 16 -1.5
v 3 0 0.5
v 3 0 -0.5
v 3 20 0.5
v 3 20 -0.5
v -3 13 1.5
v -3 15 1.5
v -3 16 1.5
v -3 18 1.5
v -2 3 1.5
v -2 12 1.5
v -2 13 1.5
v -2 14 1.5
v -2 15 1.5
v -2 16 1.5
v -2 17 1.5
v -2 18 1.5
v -1 4 1.5
v -1 11 1.5
v -1 14 1.5
v -1 15 1.5
v -1 16 1.5
v -1 17 1.5
v 0 3 1.5
v 0 4 1.5
v 0 11 1.5
v 0 12 1.5
v 0 15 1.5
v 0 16 1.5
v -3 0 0.5
v -3 1 0.5
v -3 2 0.5
v -3 3 0.5
v -3 4 0.5
v -3 5 0.5
v -3 6 0.5
v -3 7 0.5
v -3 8 0.5
v -3 9 0.5
v -3 10 0.5
v -3 11 0.5
v -3 12 0.5
v -3 13 0.5
v -3 15 0.5
v -3 16 0.5
v -3 18 0.5
v -3 19 0.5
v -3 20 0.5
v -3 21 0.5
v -3 22 0.5
v -3 23 0.5
v -3 24 0.5
v -2 2 0.5
v -2 3 0.5
v -2 4 0.5
v -2 5 0.5
v -2 6 0.5
v -2 7 0.5
v -2 8 0.5
v -2 9 0.5
v -2 10 0.5
v -2 11 0.5
v -2 12 0.5
v -2 13 0.5
v -2 14 0.5
v -2 15 0.5
v -2 16 0.5
v -2 17 0.5
v -2 18 0.5
v -2 19 0.5
v -2 20 0.5
v -2 21 0.5
v -2 22 0.5
v -2 23 0.5
v -1 2 0.5
v -1 3 0.5
v -1 4 0.5
v -1 5 0.5
v -1 6 0.5
v -1 7 0.5
v -1 8 0.5
v -1 9 0.5
v -1 10 0.5
v -1 11 0.5
v -1 12 0.5
v -1 13 0.5
v -1 14 0.5
v -1 15 0.5
v -1 16 0.5
v -1 17 0.5
v -1 18 0.5
v -1 19 0.5
v -1 20 0.5
v -1 24 0.5
v 0 2 0.5
v 0 3 0.5
v 0 4 0.5
v 0 5 0.5
v 0 6 0.5
v 0 7 0.5
v 0 8 0.5
v 0 9 0.5
v 0 10 0.5
v 0 11 0.5
v 0 12 0.5
v 0 13 0.5
v 0 14 0.5
v 0 15 0.5
v 0 16 0.5
v 0 17 0.5
v 0 18 0.5
v 0 19 0.5
v 1 2 0.5
v 1 3 0.5
v 1 4 0.5
v 1 5 0.5
v 1 6 0.5
v 1 7 0.5
v 1 8 0.5
v 1 9 0.5
v 1 10 0.5
v 1 11 0.5
v 1 12 0.5
v 1 13 0.5
v 1 14 0.5
v 1 15 0.5
v 1 16 0.5
v 1 17 0.5
v 1 18 0.5
v 1 19 0.5
v 2 1 0.5
v 2 2 0.5
v 2 3 0.5
v 2 4 0.5
v 2 5 0.5
v 2 6 0.5
v 2 7 0.5
v 2 8 0.5
v 2 9 0.5
v 2 10 0.5
v 2 11 0.5
v 2 12 0.5
v 2 13 0.5
v 2 14 0.5
v 2 15 0.5
v 2 16 0.5
v 2 17 0.5
v 2 18 0.5
v 2 19 0.5
v 3 0 0.5
v 3 20 0.5
v -3 0 -0.5
v -3 1 -0.5
v -3 2 -0.5
v -3 3 -0.5
v -3 4 -0.5
v -3 5 -0.5
v -3 6 -0.5
v -3 7 -0.5
v -3 8 -0.5
v -3 9 -0.5
v -3 10 -0.5
v -3 11 -0.5
v -3 12 -0.5
v -3 13 -0.5
v -3 15 -0.5
v -3 16 -0.5
v -3 18 -0.5
v -3 19 -0.5
v -3 20 -0.5
v -3 21 -0.5
v -3 22 -0.5
v -3 23 -0.5
v -3 24 -0.5
v -2 2 -0.5
v -2 3 -0.5
v -2 4 -0.5
v -2 5 -0.5
v -2 6 -0.5
v -2 7 -0.5
v -2 8 -0.5
v -2 9 -0.5
v -2 10 -0.5
v -2 11 -0.5
v -2 12 -0.5
v -2 13 -0.5
v -2 14 -0.5
v -2 15 -0.5
v -2 16 -0.5
v -2 17 -0.5
v -2 18 -0.5
v -2 19 -0.5
v -2 20 -0.5
v -2 21 -0.5
v -2 22 -0.5
v -2 23 -0.5
v -1 2 -0.5
v -1 3 -0.5
v -1 4 -0.5
v -1 5 -0.5
v -1 6 -0.5
v -1 7 -0.5
v -1 8 -0.5
v -1 9 -0.5
v -1 10 -0.5
v -1 11 -0.5
v -1 12 -0.5
v -1 13 -0.5
v -1 14 -0.5
v -1 15 -0.5
v -1 16 -0.5
v -1 17 -0.5
v -1 18 -0.5
v -1 19 -0.5
v -1 20 -0.5
v -1 24 -0.5
v 0 2 -0.5
v 0 3 -0.5
v 0 4 -0.5
v 0 5 -0.5
v 0 6 -0.5
v 0 7 -0.5
v 0 8 -0.5
v 0 9 -0.5
v 0 10 -0.5
v 0 11 -0.5
v 0 12 -0.5
v 0 13 -0.5
v 0 14 -0.5
v 0 15 -0.5
v 0 16 -0.5
v 0 17 -0.5
v 0 18 -0.5
v 0 19 -0.5
v 1 2 -0.5
v 1 3 -0.5
v 1 4 -0.5
v 1 5 -0.5
v 1 6 -0.5
v 1 7 -0.5
v 1 8 -0.5
v 1 9 -0.5
v 1 10 -0.5
v 1 11 -0.5
v 1 12 -0.5
v 1 13 -0.5
v 1 14 -0.5
v 1 15 -0.5
v 1 16 -0.5
v 1 17 -0.5
v 1 18 -0.5
v 1 19 -0.5
v 2 1 -0.5
v 2 2 -0.5
v 2 3 -0.5
v 2 4 -0.5
v 2 5 -0.5
v 2 6 -0.5
v 2 7 -0.5
v 2 8 -0.5
v 2 9 -0.5
v 2 10 -0.5
v 2 11 -0.5
v 2 12 -0.5
v 2 13 -0.5
v 2 14 -0.5
v 2 15 -0.5
v 2 16 -0.5
v 2 17 -0.5
v 2 18 -0.5
v 2 19 -0.5
v 3 0 -0.5
v 3 20 -0.5
v -3 13 -1.5
v -3 15 -1.5
v -3 16 -1.5
v -3 18 -1.5
v -2 3 -1.5
v -2 12 -1.5
v -2 13 -1.5
v -2 14 -1.5
v -2 15 -1.5
v -2 16 -1.5
v -2 17 -1.5
v -2 18 -1.5
v -1 4 -1.5
v -1 11 -1.5
v -1 14 -1.5
v -1 15 -1.5
v -1 16 -1.5
v -1 17 -1.5
v 0 3 -1.5
v 0 4 -1.5
v 0 11 -1.5
v 0 12 -1.5
v 0 15 -1.5
v 0 16 -1.5
v -3 0 0.5
v 3 0 0.5
v -3 0 -0.5
v 3 0 -0.5
v -2 3 1.5
v 0 3 1.5
v -2 3 0.5
v -1 3 0.5
v 0 3 0.5
v -2 3 -0.5
v -1 3 -0.5
v 0 3 -0.5
v -2 3 -1.5
v 0 3 -1.5
v -1 11 1.5
v 0 11 1.5
v -1 11 0.5
v 0 11 0.5
v -1 11 -0.5
v 0 11 -0.5
v -1 11 -1.5
v 0 11 -1.5
v -3 13 1.5
v -2 13 1.5
v -3 13 0.5
v -2 13 0.5
v -3 13 -0.5
v -2 13 -0.5
v -3 13 -1.5
v -2 13 -1.5
v -2 14 1.5
v -1 14 1.5
v -2 14 0.5
v -1 14 0.5
v -2 14 -0.5
v -1 14 -0.5
v -2 14 -1.5
v -1 14 -1.5
v -1 15 1.5
v 0 15 1.5
v -1 15 0.5
v 0 15 0.5
v -1 15 -0.5
v 0 15 -0.5
v -1 15 -1.5
v 0 15 -1.5
v -3 16 1.5
v -2 16 1.5
v -3 16 0.5
v -2 16 0.5
v -3 16 -0.5
v -2 16 -0.5
v -3 16 -1.5
v -2 16 -1.5
v -1 4 1.5
v 0 4 1.5
v -1 4 0.5
v 0 4 0.5
v -1 4 -0.5
v 0 4 -0.5
v -1 4 -1.5
v 0 4 -1.5
v -2 12 1.5
v 0 12 1.5
v -2 12 0.5
v -1 12 0.5
v 0 12 0.5
v -2 12 -0.5
v -1 12 -0.5
v 0 12 -0.5
v -2 12 -1.5
v 0 12 -1.5
v -3 15 1.5
v -2 15 1.5
v -3 15 0.5
v -2 15 0.5
v -3 15 -0.5
v -2 15 -0.5
v -3 15 -1.5
v -2 15 -1.5
v -1 16 1.5
v 0 16 1.5
v -1 16 0.5
v 0 16 0.5
v -1 16 -0.5
v 0 16 -0.5
v -1 16 -1.5
v 0 16 -1.5
v -2 17 1.5
v -1 17 1.5
v -2 17 0.5
v -1 17 0.5
v -2 17 -0.5
v -1 17 -0.5
v -2 17 -1.5
v -1 17 -1.5
v -3 18 1.5
v -2 18 1.5
v -3 18 0.5
v -2 18 0.5
v -3 18 -0.5
v -2 18 -0.5
v -3 18 -1.5
v -2 18 -1.5
v -1 20 0.5
v 3 20 0.5
v -1 20 -0.5
v 3 20 -0.5
v -3 24 0.5
v -1 24 0.5
v -3 24 -0.5
v -1 24 -0.5

# faces
f 3/1/1 2/1/1 1/1/1
f 4/1/1 2/1/1 3/1/1
f 5/3/1 4/3/1 3/3/1
f 6/3/1 4/3/1 5/3/1
f 7/2/1 6/2/1 5/2/1
f 8/2/1 6/2/1 7/2/1
f 9/3/1 8/3/1 7/3/1
f 10/3/1 8/3/1 9/3/1
f 11/2/1 10/2/1 9/2/1
f 12/2/1 10/2/1 11/2/1
f 13/3/1 12/3/1 11/3/1
f 14/3/1 12/3/1 13/3/1
f 15/2/1 14/2/1 13/2/1
f 16/2/1 14/2/1 15/2/1
f 17/3/1 16/3/1 15/3/1
f 18/3/1 16/3/1 17/3/1
f 19/2/1 18/2/1 17/2/1
f 20/2/1 18/2/1 19/2/1
f 21/3/1 20/3/1 19/3/1
f 22/3/1 20/3/1 21/3/1
f 23/2/1 22/2/1 21/2/1
f 24/2/1 22/2/1 23/2/1
f 25/3/1 24/3/1 23/3/1
f 26/3/1 24/3/1 25/3/1
f 28/2/1 26/2/1 25/2/1
f 29/2/1 26/2/1 28/2/1
f 31/3/1 29/3/1 28/3/1
f 31/4/1 28/4/1 27/4/1
f 32/4/1 30/4/1 29/4/1
f 32/3/1 29/3/1 31/3/1
f 33/4/1 31/4/1 27/4/1
f 34/2/1 32/2/1 31/2/1
f 34/4/1 31/4/1 33/4/1
f 35/4/1 30/4/1 32/4/1
f 35/2/1 32/2/1 34/2/1
f 36/4/1 30/4/1 35/4/1
f 38/3/1 35/3/1 34/3/1
f 39/3/1 35/3/1 38/3/1
f 41/4/1 38/4/1 37/4/1
f 41/2/1 39/2/1 38/2/1
f 42/4/1 40/4/1 39/4/1
f 42/2/1 39/2/1 41/2/1
f 43/4/1 41/4/1 37/4/1
f 44/3/1 42/3/1 41/3/1
f 44/4/1 41/4/1 43/4/1
f 45/4/1 40/4/1 42/4/1
f 45/3/1 42/3/1 44/3/1
f 46/4/1 40/4/1 45/4/1
f 47/2/1 45/2/1 44/2/1
f 48/2/1 45/2/1 47/2/1
f 49/3/1 48/3/1 47/3/1
f 50/3/1 48/3/1 49/3/1
f 51/2/1 50/2/1 49/2/1
f 52/2/1 50/2/1 51/2/1
f 53/3/1 52/3/1 51/3/1
f 54/3/1 52/3/1 53/3/1
f 55/2/1 54/2/1 53/2/1
f 56/2/1 54/2/1 55/2/1
f 57/1/1 56/1/1 55/1/1
f 58/1/1 56/1/1 57/1/1
f 63/4/1 60/4/1 59/4/1
f 64/4/1 62/4/1 61/4/1
f 65/4/1 63/4/1 59/4/1
f 66/4/1 62/4/1 64/4/1
f 67/4/1 65/4/1 59/4/1
f 68/4/1 62/4/1 66/4/1
f 69/4/1 67/4/1 59/4/1
f 70/4/1 62/4/1 68/4/1
f 71/4/1 69/4/1 59/4/1
f 72/4/1 62/4/1 70/4/1
f 73/4/1 71/4/1 59/4/1
f 74/4/1 62/4/1 72/4/1
f 75/4/1 73/4/1 59/4/1
f 76/4/1 62/4/1 74/4/1
f 77/4/1 75/4/1 59/4/1
f 78/4/1 62/4/1 76/4/1
f 79/4/1 77/4/1 59/4/1
f 80/4/1 77/4/1 79/4/1
f 81/4/1 62/4/1 78/4/1
f 82/4/1 62/4/1 81/4/1
f 87/4/1 84/4/1 83/4/1
f 88/4/1 84/4/1 87/4/1
f 89/4/1 86/4/1 85/4/1
f 90/4/1 86/4/1 89/4/1
f 91/4/2 92/4/2 95/4/2
f 95/4/2 92/4/2 96/4/2
f 93/4/2 94/4/2 97/4/2
f 97/4/2 94/4/2 98/4/2
f 99/4/2 100/4/2 103/4/2
f 103/4/2 100/4/2 104/4/2
f 101/4/2 102/4/2 105/4/2
f 105/4/2 102/4/2 106/4/2
f 107/4/2 108/4/2 111/4/2
f 109/4/2 110/4/2 112/4/2
f 107/4/2 111/4/2 113/4/2
f 112/4/2 110/4/2 114/4/2
f 107/4/2 113/4/2 115/4/2
f 114/4/2 110/4/2 116/4/2
f 107/4/2 115/4/2 117/4/2
f 116/4/2 110/4/2 118/4/2
f 107/4/2 117/4/2 119/4/2
f 118/4/2 110/4/2 120/4/2
f 107/4/2 119/4/2 121/4/2
f 120/4/2 110/4/2 122/4/2
f 107/4/2 121/4/2 123/4/2
f 123/4/2 121/4/2 124/4/2
f 122/4/2 110/4/2 125/4/2
f 125/4/2 110/4/2 126/4/2
f 127/4/2 128/4/2 131/4/2
f 131/4/2 128/4/2 132/4/2
f 129/4/2 130/4/2 133/4/2
f 133/4/2 130/4/2 134/4/2
f 135/4/2 136/4/2 139/4/2
f 139/4/2 136/4/2 140/4/2
f 137/4/2 138/4/2 141/4/2
f 141/4/2 138/4/2 142/4/2
f 143/1/2 144/1/2 145/1/2
f 145/1/2 144/1/2 146/1/2
f 147/4/2 148/4/2 151/4/2
f 151/4/2 148/4/2 152/4/2
f 149/4/2 150/4/2 153/4/2
f 153/4/2 150/4/2 154/4/2
f 155/4/2 156/4/2 159/4/2
f 159/4/2 156/4/2 160/4/2
f 157/4/2 158/4/2 161/4/2
f 161/4/2 158/4/2 162/4/2
f 163/4/2 164/4/2 167/4/2
f 167/4/2 164/4/2 168/4/2
f 165/4/2 166/4/2 169/4/2
f 169/4/2 166/4/2 170/4/2
f 171/1/2 172/1/2 173/1/2
f 173/1/2 172/1/2 174/1/2
f 181/4/3 176/4/3 175/4/3
f 182/4/3 176/4/3 181/4/3
f 183/4/3 176/4/3 182/4/3
f 184/4/3 178/4/3 177/4/3
f 185/4/3 178/4/3 184/4/3
f 186/4/3 178/4/3 185/4/3
f 187/4/3 180/4/3 179/4/3
f 188/4/3 180/4/3 187/4/3
f 189/4/3 183/4/3 182/4/3
f 189/4/3 185/4/3 184/4/3
f 189/4/3 184/4/3 183/4/3
f 190/4/3 185/4/3 189/4/3
f 191/4/3 185/4/3 190/4/3
f 192/4/3 185/4/3 191/4/3
f 193/4/3 187/4/3 179/4/3
f 194/4/3 187/4/3 193/4/3
f 195/4/3 180/4/3 188/4/3
f 196/4/3 180/4/3 195/4/3
f 197/4/3 191/4/3 190/4/3
f 198/4/3 191/4/3 197/4/3
f 222/3/3 201/3/3 200/3/3
f 222/2/3 202/2/3 201/2/3
f 223/3/3 203/3/3 202/3/3
f 223/2/3 202/2/3 222/2/3
f 224/2/3 204/2/3 203/2/3
f 224/3/3 203/3/3 223/3/3
f 225/3/3 205/3/3 204/3/3
f 225/2/3 204/2/3 224/2/3
f 226/2/3 206/2/3 205/2/3
f 226/3/3 205/3/3 225/3/3
f 227/3/3 207/3/3 206/3/3
f 227/2/3 206/2/3 226/2/3
f 228/2/3 208/2/3 207/2/3
f 228/3/3 207/3/3 227/3/3
f 229/3/3 209/3/3 208/3/3
f 229/2/3 208/2/3 228/2/3
f 230/2/3 210/2/3 209/2/3
f 230/3/3 209/3/3 229/3/3
f 231/3/3 211/3/3 210/3/3
f 231/2/3 210/2/3 230/2/3
f 232/2/3 212/2/3 211/2/3
f 232/3/3 211/3/3 231/3/3
f 233/2/3 212/2/3 232/2/3
f 235/3/3 214/3/3 213/3/3
f 236/3/3 214/3/3 235/3/3
f 238/2/3 216/2/3 215/2/3
f 239/3/3 217/3/3 216/3/3
f 239/2/3 216/2/3 238/2/3
f 240/2/3 218/2/3 217/2/3
f 240/3/3 217/3/3 239/3/3
f 241/3/3 219/3/3 218/3/3
f 241/2/3 218/2/3 240/2/3
f 242/2/3 220/2/3 219/2/3
f 242/3/3 219/3/3 241/3/3
f 243/1/3 221/1/3 220/1/3
f 243/2/3 220/2/3 242/2/3
f 244/3/3 222/3/3 200/3/3
f 244/3/3 223/3/3 222/3/3
f 245/3/3 223/3/3 244/3/3
f 254/3/3 233/3/3 232/3/3
f 254/3/3 234/3/3 233/3/3
f 255/3/3 234/3/3 254/3/3
f 256/3/3 234/3/3 255/3/3
f 259/3/3 239/3/3 238/3/3
f 259/3/3 238/3/3 237/3/3
f 260/3/3 239/3/3 259/3/3
f 261/1/3 242/1/3 241/1/3
f 261/3/3 239/3/3 260/3/3
f 261/1/3 241/1/3 240/1/3
f 261/1/3 243/1/3 242/1/3
f 261/1/3 240/1/3 239/1/3
f 262/1/3 243/1/3 261/1/3
f 263/1/3 221/1/3 243/1/3
f 263/1/3 243/1/3 262/1/3
f 264/3/3 244/3/3 200/3/3
f 264/2/3 245/2/3 244/2/3
f 265/2/3 245/2/3 264/2/3
f 266/2/3 247/2/3 246/2/3
f 267/3/3 248/3/3 247/3/3
f 267/2/3 247/2/3 266/2/3
f 268/2/3 249/2/3 248/2/3
f 268/3/3 248/3/3 267/3/3
f 269/3/3 250/3/3 249/3/3
f 269/2/3 249/2/3 268/2/3
f 270/2/3 251/2/3 250/2/3
f 270/3/3 250/3/3 269/3/3
f 271/3/3 252/3/3 251/3/3
f 271/2/3 251/2/3 270/2/3
f 272/2/3 253/2/3 252/2/3
f 272/3/3 252/3/3 271/3/3
f 273/2/3 253/2/3 272/2/3
f 274/2/3 255/2/3 254/2/3
f 275/3/3 256/3/3 255/3/3
f 275/2/3 255/2/3 274/2/3
f 276/2/3 257/2/3 256/2/3
f 276/3/3 256/3/3 275/3/3
f 277/2/3 257/2/3 276/2/3
f 278/2/3 259/2/3 258/2/3
f 279/3/3 260/3/3 259/3/3
f 279/2/3 259/2/3 278/2/3
f 280/2/3 261/2/3 260/2/3
f 280/3/3 260/3/3 279/3/3
f 281/1/3 262/1/3 261/1/3
f 281/2/3 261/2/3 280/2/3
f 282/3/3 278/3/3 277/3/3
f 282/3/3 277/3/3 276/3/3
f 282/3/3 281/3/3 280/3/3
f 282/3/3 280/3/3 279/3/3
f 282/3/3 276/3/3 275/3/3
f 282/3/3 271/3/3 270/3/3
f 282/3/3 272/3/3 271/3/3
f 282/3/3 273/3/3 272/3/3
f 282/3/3 264/3/3 200/3/3
f 282/3/3 275/3/3 274/3/3
f 282/3/3 269/3/3 268/3/3
f 282/3/3 268/3/3 267/3/3
f 282/3/3 267/3/3 266/3/3
f 282/3/3 266/3/3 265/3/3
f 282/3/3 265/3/3 264/3/3
f 282/3/3 279/3/3 278/3/3
f 282/3/3 274/3/3 273/3/3
f 282/3/3 270/3/3 269/3/3
f 283/3/3 281/3/3 282/3/3
f 284/3/3 281/3/3 283/3/3
f 285/3/3 281/3/3 284/3/3
f 286/3/3 281/3/3 285/3/3
f 287/3/3 281/3/3 286/3/3
f 288/3/3 281/3/3 287/3/3
f 289/3/3 281/3/3 288/3/3
f 290/3/3 281/3/3 289/3/3
f 291/3/3 281/3/3 290/3/3
f 292/3/3 281/3/3 291/3/3
f 293/3/3 281/3/3 292/3/3
f 294/3/3 281/3/3 293/3/3
f 295/3/3 281/3/3 294/3/3
f 296/3/3 281/3/3 295/3/3
f 297/3/3 281/3/3 296/3/3
f 298/3/3 281/3/3 297/3/3
f 299/1/3 262/1/3 281/1/3
f 299/3/3 281/3/3 298/3/3
f 300/1/3 200/1/3 199/1/3
f 300/3/3 282/3/3 200/3/3
f 301/2/3 283/2/3 282/2/3
f 301/3/3 282/3/3 300/3/3
f 302/3/3 284/3/3 283/3/3
f 302/2/3 283/2/3 301/2/3
f 303/2/3 285/2/3 284/2/3
f 303/3/3 284/3/3 302/3/3
f 304/3/3 286/3/3 285/3/3
f 304/2/3 285/2/3 303/2/3
f 305/2/3 287/2/3 286/2/3
f 305/3/3 286/3/3 304/3/3
f 306/3/3 288/3/3 287/3/3
f 306/2/3 287/2/3 305/2/3
f 307/2/3 289/2/3 288/2/3
f 307/3/3 288/3/3 306/3/3
f 308/3/3 290/3/3 289/3/3
f 308/2/3 289/2/3 307/2/3
f 309/2/3 291/2/3 290/2/3
f 309/3/3 290/3/3 308/3/3
f 310/3/3 292/3/3 291/3/3
f 310/2/3 291/2/3 309/2/3
f 311/2/3 293/2/3 292/2/3
f 311/3/3 292/3/3 310/3/3
f 312/3/3 294/3/3 293/3/3
f 312/2/3 293/2/3 311/2/3
f 313/2/3 295/2/3 294/2/3
f 313/3/3 294/3/3 312/3/3
f 314/3/3 296/3/3 295/3/3
f 314/2/3 295/2/3 313/2/3
f 315/2/3 297/2/3 296/2/3
f 315/3/3 296/3/3 314/3/3
f 316/3/3 298/3/3 297/3/3
f 316/2/3 297/2/3 315/2/3
f 317/2/3 299/2/3 298/2/3
f 317/3/3 298/3/3 316/3/3
f 318/1/3 262/1/3 299/1/3
f 318/2/3 299/2/3 317/2/3
f 319/1/3 317/1/3 316/1/3
f 319/1/3 315/1/3 314/1/3
f 319/1/3 318/1/3 317/1/3
f 319/1/3 314/1/3 313/1/3
f 319/1/3 313/1/3 312/1/3
f 319/1/3 312/1/3 311/1/3
f 319/1/3 311/1/3 310/1/3
f 319/1/3 310/1/3 309/1/3
f 319/1/3 309/1/3 308/1/3
f 319/1/3 308/1/3 307/1/3
f 319/1/3 307/1/3 306/1/3
f 319/1/3 306/1/3 305/1/3
f 319/1/3 305/1/3 304/1/3
f 319/1/3 304/1/3 303/1/3
f 319/1/3 303/1/3 302/1/3
f 319/1/3 302/1/3 301/1/3
f 319/1/3 301/1/3 300/1/3
f 319/1/3 300/1/3 199/1/3
f 319/1/3 316/1/3 315/1/3
f 320/1/3 262/1/3 318/1/3
f 320/1/3 318/1/3 319/1/3
f 322/3/4 323/3/4 344/3/4
f 323/2/4 324/2/4 344/2/4
f 324/3/4 325/3/4 345/3/4
f 344/2/4 324/2/4 345/2/4
f 325/2/4 326/2/4 346/2/4
f 345/3/4 325/3/4 346/3/4
f 326/3/4 327/3/4 347/3/4
f 346/2/4 326/2/4 347/2/4
f 327/2/4 328/2/4 348/2/4
f 347/3/4 327/3/4 348/3/4
f 328/3/4 329/3/4 349/3/4
f 348/2/4 328/2/4 349/2/4
f 329/2/4 330/2/4 350/2/4
f 349/3/4 329/3/4 350/3/4
f 330/3/4 331/3/4 351/3/4
f 350/2/4 330/2/4 351/2/4
f 331/2/4 332/2/4 352/2/4
f 351/3/4 331/3/4 352/3/4
f 332/3/4 333/3/4 353/3/4
f 352/2/4 332/2/4 353/2/4
f 333/2/4 334/2/4 354/2/4
f 353/3/4 333/3/4 354/3/4
f 354/2/4 334/2/4 355/2/4
f 335/3/4 336/3/4 357/3/4
f 357/3/4 336/3/4 358/3/4
f 337/2/4 338/2/4 360/2/4
f 338/3/4 339/3/4 361/3/4
f 360/2/4 338/2/4 361/2/4
f 339/2/4 340/2/4 362/2/4
f 361/3/4 339/3/4 362/3/4
f 340/3/4 341/3/4 363/3/4
f 362/2/4 340/2/4 363/2/4
f 341/2/4 342/2/4 364/2/4
f 363/3/4 341/3/4 364/3/4
f 342/1/4 343/1/4 365/1/4
f 364/2/4 342/2/4 365/2/4
f 322/3/4 344/3/4 366/3/4
f 344/3/4 345/3/4 366/3/4
f 366/3/4 345/3/4 367/3/4
f 354/3/4 355/3/4 376/3/4
f 355/3/4 356/3/4 376/3/4
f 376/3/4 356/3/4 377/3/4
f 377/3/4 356/3/4 378/3/4
f 360/3/4 361/3/4 381/3/4
f 359/3/4 360/3/4 381/3/4
f 381/3/4 361/3/4 382/3/4
f 363/1/4 364/1/4 383/1/4
f 382/3/4 361/3/4 383/3/4
f 362/1/4 363/1/4 383/1/4
f 364/1/4 365/1/4 383/1/4
f 361/1/4 362/1/4 383/1/4
f 383/1/4 365/1/4 384/1/4
f 365/1/4 343/1/4 385/1/4
f 384/1/4 365/1/4 385/1/4
f 322/3/4 366/3/4 386/3/4
f 366/2/4 367/2/4 386/2/4
f 386/2/4 367/2/4 387/2/4
f 368/2/4 369/2/4 388/2/4
f 369/3/4 370/3/4 389/3/4
f 388/2/4 369/2/4 389/2/4
f 370/2/4 371/2/4 390/2/4
f 389/3/4 370/3/4 390/3/4
f 371/3/4 372/3/4 391/3/4
f 390/2/4 371/2/4 391/2/4
f 372/2/4 373/2/4 392/2/4
f 391/3/4 372/3/4 392/3/4
f 373/3/4 374/3/4 393/3/4
f 392/2/4 373/2/4 393/2/4
f 374/2/4 375/2/4 394/2/4
f 393/3/4 374/3/4 394/3/4
f 394/2/4 375/2/4 395/2/4
f 376/2/4 377/2/4 396/2/4
f 377/3/4 378/3/4 397/3/4
f 396/2/4 377/2/4 397/2/4
f 378/2/4 379/2/4 398/2/4
f 397/3/4 378/3/4 398/3/4
f 398/2/4 379/2/4 399/2/4
f 380/2/4 381/2/4 400/2/4
f 381/3/4 382/3/4 401/3/4
f 400/2/4 381/2/4 401/2/4
f 382/2/4 383/2/4 402/2/4
f 401/3/4 382/3/4 402/3/4
f 383/1/4 384/1/4 403/1/4
f 402/2/4 383/2/4 403/2/4
f 399/3/4 400/3/4 404/3/4
f 398/3/4 399/3/4 404/3/4
f 402/3/4 403/3/4 404/3/4
f 401/3/4 402/3/4 404/3/4
f 397/3/4 398/3/4 404/3/4
f 392/3/4 393/3/4 404/3/4
f 393/3/4 394/3/4 404/3/4
f 394/3/4 395/3/4 404/3/4
f 322/3/4 386/3/4 404/3/4
f 396/3/4 397/3/4 404/3/4
f 390/3/4 391/3/4 404/3/4
f 389/3/4 390/3/4 404/3/4
f 388/3/4 389/3/4 404/3/4
f 387/3/4 388/3/4 404/3/4
f 386/3/4 387/3/4 404/3/4
f 400/3/4 401/3/4 404/3/4
f 395/3/4 396/3/4 404/3/4
f 391/3/4 392/3/4 404/3/4
f 404/3/4 403/3/4 405/3/4
f 405/3/4 403/3/4 406/3/4
f 406/3/4 403/3/4 407/3/4
f 407/3/4 403/3/4 408/3/4
f 408/3/4 403/3/4 409/3/4
f 409/3/4 403/3/4 410/3/4
f 410/3/4 403/3/4 411/3/4
f 411/3/4 403/3/4 412/3/4
f 412/3/4 403/3/4 413/3/4
f 413/3/4 403/3/4 414/3/4
f 414/3/4 403/3/4 415/3/4
f 415/3/4 403/3/4 416/3/4
f 416/3/4 403/3/4 417/3/4
f 417/3/4 403/3/4 418/3/4
f 418/3/4 403/3/4 419/3/4
f 419/3/4 403/3/4 420/3/4
f 403/1/4 384/1/4 421/1/4
f 420/3/4 403/3/4 421/3/4
f 321/1/4 322/1/4 422/1/4
f 322/3/4 404/3/4 422/3/4
f 404/2/4 405/2/4 423/2/4
f 422/3/4 404/3/4 423/3/4
f 405/3/4 406/3/4 424/3/4
f 423/2/4 405/2/4 424/2/4
f 406/2/4 407/2/4 425/2/4
f 424/3/4 406/3/4 425/3/4
f 407/3/4 408/3/4 426/3/4
f 425/2/4 407/2/4 426/2/4
f 408/2/4 409/2/4 427/2/4
f 426/3/4 408/3/4 427/3/4
f 409/3/4 410/3/4 428/3/4
f 427/2/4 409/2/4 428/2/4
f 410/2/4 411/2/4 429/2/4
f 428/3/4 410/3/4 429/3/4
f 411/3/4 412/3/4 430/3/4
f 429/2/4 411/2/4 430/2/4
f 412/2/4 413/2/4 431/2/4
f 430/3/4 412/3/4 431/3/4
f 413/3/4 414/3/4 432/3/4
f 431/2/4 413/2/4 432/2/4
f 414/2/4 415/2/4 433/2/4
f 432/3/4 414/3/4 433/3/4
f 415/3/4 416/3/4 434/3/4
f 433/2/4 415/2/4 434/2/4
f 416/2/4 417/2/4 435/2/4
f 434/3/4 416/3/4 435/3/4
f 417/3/4 418/3/4 436/3/4
f 435/2/4 417/2/4 436/2/4
f 418/2/4 419/2/4 437/2/4
f 436/3/4 418/3/4 437/3/4
f 419/3/4 420/3/4 438/3/4
f 437/2/4 419/2/4 438/2/4
f 420/2/4 421/2/4 439/2/4
f 438/3/4 420/3/4 439/3/4
f 421/1/4 384/1/4 440/1/4
f 439/2/4 421/2/4 440/2/4
f 438/1/4 439/1/4 441/1/4
f 436/1/4 437/1/4 441/1/4
f 439/1/4 440/1/4 441/1/4
f 435/1/4 436/1/4 441/1/4
f 434/1/4 435/1/4 441/1/4
f 433/1/4 434/1/4 441/1/4
f 432/1/4 433/1/4 441/1/4
f 431/1/4 432/1/4 441/1/4
f 430/1/4 431/1/4 441/1/4
f 429/1/4 430/1/4 441/1/4
f 428/1/4 429/1/4 441/1/4
f 427/1/4 428/1/4 441/1/4
f 426/1/4 427/1/4 441/1/4
f 425/1/4 426/1/4 441/1/4
f 424/1/4 425/1/4 441/1/4
f 423/1/4 424/1/4 441/1/4
f 422/1/4 423/1/4 441/1/4
f 321/1/4 422/1/4 441/1/4
f 437/1/4 438/1/4 441/1/4
f 440/1/4 384/1/4 442/1/4
f 441/1/4 440/1/4 442/1/4
f 443/4/4 444/4/4 449/4/4
f 449/4/4 444/4/4 450/4/4
f 450/4/4 444/4/4 451/4/4
f 445/4/4 446/4/4 452/4/4
f 452/4/4 446/4/4 453/4/4
f 453/4/4 446/4/4 454/4/4
f 447/4/4 448/4/4 455/4/4
f 455/4/4 448/4/4 456/4/4
f 450/4/4 451/4/4 457/4/4
f 452/4/4 453/4/4 457/4/4
f 451/4/4 452/4/4 457/4/4
f 457/4/4 453/4/4 458/4/4
f 458/4/4 453/4/4 459/4/4
f 459/4/4 453/4/4 460/4/4
f 447/4/4 455/4/4 461/4/4
f 461/4/4 455/4/4 462/4/4
f 456/4/4 448/4/4 463/4/4
f 463/4/4 448/4/4 464/4/4
f 458/4/4 459/4/4 465/4/4
f 465/4/4 459/4/4 466/4/4
f 469/1/5 468/1/5 467/1/5
f 470/1/5 468/1/5 469/1/5
f 473/4/5 472/4/5 471/4/5
f 474/4/5 472/4/5 473/4/5
f 475/4/5 472/4/5 474/4/5
f 479/4/5 477/4/5 476/4/5
f 479/4/5 478/4/5 477/4/5
f 480/4/5 478/4/5 479/4/5
f 483/4/5 482/4/5 481/4/5
f 484/4/5 482/4/5 483/4/5
f 487/4/5 486/4/5 485/4/5
f 488/4/5 486/4/5 487/4/5
f 491/4/5 490/4/5 489/4/5
f 492/4/5 490/4/5 491/4/5
f 495/4/5 494/4/5 493/4/5
f 496/4/5 494/4/5 495/4/5
f 499/4/5 498/4/5 497/4/5
f 500/4/5 498/4/5 499/4/5
f 503/4/5 502/4/5 501/4/5
f 504/4/5 502/4/5 503/4/5
f 507/4/5 506/4/5 505/4/5
f 508/4/5 506/4/5 507/4/5
f 511/4/5 510/4/5 509/4/5
f 512/4/5 510/4/5 511/4/5
f 515/4/5 514/4/5 513/4/5
f 516/4/5 514/4/5 515/4/5
f 519/4/5 518/4/5 517/4/5
f 520/4/5 518/4/5 519/4/5
f 521/4/6 522/4/6 523/4/6
f 523/4/6 522/4/6 524/4/6
f 525/4/6 526/4/6 527/4/6
f 527/4/6 526/4/6 528/4/6
f 529/4/6 530/4/6 531/4/6
f 531/4/6 530/4/6 532/4/6
f 532/4/6 530/4/6 533/4/6
f 534/4/6 535/4/6 537/4/6
f 535/4/6 536/4/6 537/4/6
f 537/4/6 536/4/6 538/4/6
f 539/4/6 540/4/6 541/4/6
f 541/4/6 540/4/6 542/4/6
f 543/4/6 544/4/6 545/4/6
f 545/4/6 544/4/6 546/4/6
f 547/4/6 548/4/6 549/4/6
f 549/4/6 548/4/6 550/4/6
f 551/4/6 552/4/6 553/4/6
f 553/4/6 552/4/6 554/4/6
f 555/4/6 556/4/6 557/4/6
f 557/4/6 556/4/6 558/4/6
f 559/4/6 560/4/6 561/4/6
f 561/4/6 560/4/6 562/4/6
f 563/4/6 564/4/6 565/4/6
f 565/4/6 564/4/6 566/4/6
f 567/4/6 568/4/6 569/4/6
f 569/4/6 568/4/6 570/4/6
f 571/1/6 572/1/6 573/1/6
f 573/1/6 572/1/6 574/1/6
f 575/1/6 576/1/6 577/1/6
f 577/1/6 576/1/6 578/1/6
