# MagicaVoxel @ ephtracy

# material
mtllib 02_door_4X.mtl
usemtl palette

# normals
vn -1 0 0
vn 1 0 0
vn 0 0 1
vn 0 0 -1
vn 0 -1 0
vn 0 1 0

# texcoords
vt 0.294922 0.5
vt 0.298828 0.5
vt 0.306641 0.5

# verts
v -3 0 0.5
v -3 0 -0.5
v -3 1 0.5
v -3 1 -0.5
v -3 2 0.5
v -3 2 -0.5
v -3 3 0.5
v -3 3 -0.5
v -3 4 0.5
v -3 4 -0.5
v -3 5 0.5
v -3 5 -0.5
v -3 6 0.5
v -3 6 -0.5
v -3 7 0.5
v -3 7 -0.5
v -3 8 0.5
v -3 8 -0.5
v -3 9 0.5
v -3 9 -0.5
v -3 10 0.5
v -3 10 -0.5
v -3 11 0.5
v -3 11 -0.5
v -3 12 0.5
v -3 12 -0.5
v -3 13 1.5
v -3 13 0.5
v -3 13 -0.5
v -3 13 -1.5
v -3 14 0.5
v -3 14 -0.5
v -3 15 1.5
v -3 15 0.5
v -3 15 -0.5
v -3 15 -1.5
v -3 16 1.5
v -3 16 0.5
v -3 16 -0.5
v -3 16 -1.5
v -3 17 0.5
v -3 17 -0.5
v -3 18 1.5
v -3 18 0.5
v -3 18 -0.5
v -3 18 -1.5
v -3 19 0.5
v -3 19 -0.5
v -3 20 0.5
v -3 20 -0.5
v -3 21 0.5
v -3 21 -0.5
v -3 22 0.5
v -3 22 -0.5
v -3 23 0.5
v -3 23 -0.5
v -3 24 0.5
v -3 24 -0.5
v -2 3 1.5
v -2 3 0.5
v -2 3 -0.5
v -2 3 -1.5
v -2 4 0.5
v -2 4 -0.5
v -2 5 0.5
v -2 5 -0.5
v -2 6 0.5
v -2 6 -0.5
v -2 7 0.5
v -2 7 -0.5
v -2 8 0.5
v -2 8 -0.5
v -2 9 0.5
v -2 9 -0.5
v -2 10 0.5
v -2 10 -0.5
v -2 11 0.5
v -2 11 -0.5
v -2 12 1.5
v -2 12 0.5
v -2 12 -0.5
v -2 12 -1.5
v -2 15 1.5
v -2 15 0.5
v -2 15 -0.5
v -2 15 -1.5
v -2 16 1.5
v -2 16 0.5
v -2 16 -0.5
v -2 16 -1.5
v -2 13 1.5
v -2 13 0.5
v -2 13 -0.5
v -2 13 -1.5
v -2 14 1.5
v -2 14 0.5
v -2 14 -0.5
v -2 14 -1.5
v -2 17 1.5
v -2 17 0.5
v -2 17 -0.5
v -2 17 -1.5
v -2 18 1.5
v -2 18 0.5
v -2 18 -0.5
v -2 18 -1.5
v -1 4 1.5
v -1 4 0.5
v -1 4 -0.5
v -1 4 -1.5
v -1 5 0.5
v -1 5 -0.5
v -1 6 0.5
v -1 6 -0.5
v -1 7 0.5
v -1 7 -0.5
v -1 8 0.5
v -1 8 -0.5
v -1 9 0.5
v -1 9 -0.5
v -1 10 0.5
v -1 10 -0.5
v -1 11 1.5
v -1 11 0.5
v -1 11 -0.5
v -1 11 -1.5
v -1 14 1.5
v -1 14 0.5
v -1 14 -0.5
v -1 14 -1.5
v -1 15 1.5
v -1 15 0.5
v -1 15 -0.5
v -1 15 -1.5
v -1 16 1.5
v -1 16 0.5
v -1 16 -0.5
v -1 16 -1.5
v -1 17 1.5
v -1 17 0.5
v -1 17 -0.5
v -1 17 -1.5
v -1 20 0.5
v -1 20 -0.5
v -1 24 0.5
v -1 24 -0.5
v 0 3 1.5
v 0 3 0.5
v 0 3 -0.5
v 0 3 -1.5
v 0 4 1.5
v 0 4 0.5
v 0 4 -0.5
v 0 4 -1.5
v 0 11 1.5
v 0 11 0.5
v 0 11 -0.5
v 0 11 -1.5
v 0 12 1.5
v 0 12 0.5
v 0 12 -0.5
v 0 12 -1.5
v 0 15 1.5
v 0 15 0.5
v 0 15 -0.5
v 0 15 -1.5
v 0 16 1.5
v 0 16 0.5
v 0 16 -0.5
v 0 16 -1.5
v 3 0 0.5
v 3 0 -0.5
v 3 20 0.5
v 3 20 -0.5
v -3 13 1.5
v -3 15 1.5
v -3 16 1.5
v -3 18 1.5
v -2 3 1.5
v -2 12 1.5
v -2 13 1.5
v -2 14 1.5
v -2 15 1.5
v -2 16 1.5
v -2 17 1.5
v -2 18 1.5
v -1 4 1.5
v -1 11 1.5
v -1 14 1.5
v -1 15 1.5
v -1 16 1.5
v -1 17 1.5
v 0 3 1.5
v 0 4 1.5
v 0 11 1.5
v 0 12 1.5
v 0 15 1.5
v 0 16 1.5
v -3 0 0.5
v -3 1 0.5
v -3 2 0.5
v -3 3 0.5
v -3 4 0.5
v -3 5 0.5
v -3 6 0.5
v -3 7 0.5
v -3 8 0.5
v -3 9 0.5
v -3 10 0.5
v -3 11 0.5
v -3 12 0.5
v -3 13 0.5
v -3 15 0.5
v -3 16 0.5
v -3 18 0.5
v -3 19 0.5
v -3 20 0.5
v -3 21 0.5
v -3 22 0.5
v -3 23 0.5
v -3 24 0.5
v -2 2 0.5
v -2 3 0.5
v -2 4 0.5
v -2 5 0.5
v -2 6 0.5
v -2 7 0.5
v -2 8 0.5
v -2 9 0.5
v -2 10 0.5
v -2 11 0.5
v -2 12 0.5
v -2 13 0.5
v -2 14 0.5
v -2 15 0.5
v -2 16 0.5
v -2 17 0.5
v -2 18 0.5
v -2 19 0.5
v -2 20 0.5
v -2 21 0.5
v -2 22 0.5
v -2 23 0.5
v -1 2 0.5
v -1 3 0.5
v -1 4 0.5
v -1 5 0.5
v -1 6 0.5
v -1 7 0.5
v -1 8 0.5
v -1 9 0.5
v -1 10 0.5
v -1 11 0.5
v -1 12 0.5
v -1 13 0.5
v -1 14 0.5
v -1 15 0.5
v -1 16 0.5
v -1 17 0.5
v -1 18 0.5
v -1 19 0.5
v -1 20 0.5
v -1 24 0.5
v 0 2 0.5
v 0 3 0.5
v 0 4 0.5
v 0 5 0.5
v 0 6 0.5
v 0 7 0.5
v 0 8 0.5
v 0 9 0.5
v 0 10 0.5
v 0 11 0.5
v 0 12 0.5
v 0 13 0.5
v 0 14 0.5
v 0 15 0.5
v 0 16 0.5
v 0 17 0.5
v 0 18 0.5
v 0 19 0.5
v 1 2 0.5
v 1 3 0.5
v 1 4 0.5
v 1 5 0.5
v 1 6 0.5
v 1 7 0.5
v 1 8 0.5
v 1 9 0.5
v 1 10 0.5
v 1 11 0.5
v 1 12 0.5
v 1 13 0.5
v 1 14 0.5
v 1 15 0.5
v 1 16 0.5
v 1 17 0.5
v 1 18 0.5
v 1 19 0.5
v 2 1 0.5
v 2 2 0.5
v 2 3 0.5
v 2 4 0.5
v 2 5 0.5
v 2 6 0.5
v 2 7 0.5
v 2 8 0.5
v 2 9 0.5
v 2 10 0.5
v 2 11 0.5
v 2 12 0.5
v 2 13 0.5
v 2 14 0.5
v 2 15 0.5
v 2 16 0.5
v 2 17 0.5
v 2 18 0.5
v 2 19 0.5
v 3 0 0.5
v 3 20 0.5
v -3 0 -0.5
v -3 1 -0.5
v -3 2 -0.5
v -3 3 -0.5
v -3 4 -0.5
v -3 5 -0.5
v -3 6 -0.5
v -3 7 -0.5
v -3 8 -0.5
v -3 9 -0.5
v -3 10 -0.5
v -3 11 -0.5
v -3 12 -0.5
v -3 13 -0.5
v -3 15 -0.5
v -3 16 -0.5
v -3 18 -0.5
v -3 19 -0.5
v -3 20 -0.5
v -3 21 -0.5
v -3 22 -0.5
v -3 23 -0.5
v -3 24 -0.5
v -2 2 -0.5
v -2 3 -0.5
v -2 4 -0.5
v -2 5 -0.5
v -2 6 -0.5
v -2 7 -0.5
v -2 8 -0.5
v -2 9 -0.5
v -2 10 -0.5
v -2 11 -0.5
v -2 12 -0.5
v -2 13 -0.5
v -2 14 -0.5
v -2 15 -0.5
v -2 16 -0.5
v -2 17 -0.5
v -2 18 -0.5
v -2 19 -0.5
v -2 20 -0.5
v -2 21 -0.5
v -2 22 -0.5
v -2 23 -0.5
v -1 2 -0.5
v -1 3 -0.5
v -1 4 -0.5
v -1 5 -0.5
v -1 6 -0.5
v -1 7 -0.5
v -1 8 -0.5
v -1 9 -0.5
v -1 10 -0.5
v -1 11 -0.5
v -1 12 -0.5
v -1 13 -0.5
v -1 14 -0.5
v -1 15 -0.5
v -1 16 -0.5
v -1 17 -0.5
v -1 18 -0.5
v -1 19 -0.5
v -1 20 -0.5
v -1 24 -0.5
v 0 2 -0.5
v 0 3 -0.5
v 0 4 -0.5
v 0 5 -0.5
v 0 6 -0.5
v 0 7 -0.5
v 0 8 -0.5
v 0 9 -0.5
v 0 10 -0.5
v 0 11 -0.5
v 0 12 -0.5
v 0 13 -0.5
v 0 14 -0.5
v 0 15 -0.5
v 0 16 -0.5
v 0 17 -0.5
v 0 18 -0.5
v 0 19 -0.5
v 1 2 -0.5
v 1 3 -0.5
v 1 4 -0.5
v 1 5 -0.5
v 1 6 -0.5
v 1 7 -0.5
v 1 8 -0.5
v 1 9 -0.5
v 1 10 -0.5
v 1 11 -0.5
v 1 12 -0.5
v 1 13 -0.5
v 1 14 -0.5
v 1 15 -0.5
v 1 16 -0.5
v 1 17 -0.5
v 1 18 -0.5
v 1 19 -0.5
v 2 1 -0.5
v 2 2 -0.5
v 2 3 -0.5
v 2 4 -0.5
v 2 5 -0.5
v 2 6 -0.5
v 2 7 -0.5
v 2 8 -0.5
v 2 9 -0.5
v 2 10 -0.5
v 2 11 -0.5
v 2 12 -0.5
v 2 13 -0.5
v 2 14 -0.5
v 2 15 -0.5
v 2 16 -0.5
v 2 17 -0.5
v 2 18 -0.5
v 2 19 -0.5
v 3 0 -0.5
v 3 20 -0.5
v -3 13 -1.5
v -3 15 -1.5
v -3 16 -1.5
v -3 18 -1.5
v -2 3 -1.5
v -2 12 -1.5
v -2 13 -1.5
v -2 14 -1.5
v -2 15 -1.5
v -2 16 -1.5
v -2 17 -1.5
v -2 18 -1.5
v -1 4 -1.5
v -1 11 -1.5
v -1 14 -1.5
v -1 15 -1.5
v -1 16 -1.5
v -1 17 -1.5
v 0 3 -1.5
v 0 4 -1.5
v 0 11 -1.5
v 0 12 -1.5
v 0 15 -1.5
v 0 16 -1.5
v -3 0 0.5
v 3 0 0.5
v -3 0 -0.5
v 3 0 -0.5
v -2 3 1.5
v 0 3 1.5
v -2 3 0.5
v -1 3 0.5
v 0 3 0.5
v -2 3 -0.5
v -1 3 -0.5
v 0 3 -0.5
v -2 3 -1.5
v 0 3 -1.5
v -1 11 1.5
v 0 11 1.5
v -1 11 0.5
v 0 11 0.5
v -1 11 -0.5
v 0 11 -0.5
v -1 11 -1.5
v 0 11 -1.5
v -3 13 1.5
v -2 13 1.5
v -3 13 0.5
v -2 13 0.5
v -3 13 -0.5
v -2 13 -0.5
v -3 13 -1.5
v -2 13 -1.5
v -2 14 1.5
v -1 14 1.5
v -2 14 0.5
v -1 14 0.5
v -2 14 -0.5
v -1 14 -0.5
v -2 14 -1.5
v -1 14 -1.5
v -1 15 1.5
v 0 15 1.5
v -1 15 0.5
v 0 15 0.5
v -1 15 -0.5
v 0 15 -0.5
v -1 15 -1.5
v 0 15 -1.5
v -3 16 1.5
v -2 16 1.5
v -3 16 0.5
v -2 16 0.5
v -3 16 -0.5
v -2 16 -0.5
v -3 16 -1.5
v -2 16 -1.5
v -1 4 1.5
v 0 4 1.5
v -1 4 0.5
v 0 4 0.5
v -1 4 -0.5
v 0 4 -0.5
v -1 4 -1.5
v 0 4 -1.5
v -2 12 1.5
v 0 12 1.5
v -2 12 0.5
v -1 12 0.5
v 0 12 0.5
v -2 12 -0.5
v -1 12 -0.5
v 0 12 -0.5
v -2 12 -1.5
v 0 12 -1.5
v -3 15 1.5
v -2 15 1.5
v -3 15 0.5
v -2 15 0.5
v -3 15 -0.5
v -2 15 -0.5
v -3 15 -1.5
v -2 15 -1.5
v -1 16 1.5
v 0 16 1.5
v -1 16 0.5
v 0 16 0.5
v -1 16 -0.5
v 0 16 -0.5
v -1 16 -1.5
v 0 16 -1.5
v -2 17 1.5
v -1 17 1.5
v -2 17 0.5
v -1 17 0.5
v -2 17 -0.5
v -1 17 -0.5
v -2 17 -1.5
v -1 17 -1.5
v -3 18 1.5
v -2 18 1.5
v -3 18 0.5
v -2 18 0.5
v -3 18 -0.5
v -2 18 -0.5
v -3 18 -1.5
v -2 18 -1.5
v -1 20 0.5
v 3 20 0.5
v -1 20 -0.5
v 3 20 -0.5
v -3 24 0.5
v -1 24 0.5
v -3 24 -0.5
v -1 24 -0.5

# faces
f 3/2/1 2/2/1 1/2/1
f 4/2/1 2/2/1 3/2/1
f 5/3/1 4/3/1 3/3/1
f 6/3/1 4/3/1 5/3/1
f 7/1/1 6/1/1 5/1/1
f 8/1/1 6/1/1 7/1/1
f 9/3/1 8/3/1 7/3/1
f 10/3/1 8/3/1 9/3/1
f 11/1/1 10/1/1 9/1/1
f 12/1/1 10/1/1 11/1/1
f 13/3/1 12/3/1 11/3/1
f 14/3/1 12/3/1 13/3/1
f 15/1/1 14/1/1 13/1/1
f 16/1/1 14/1/1 15/1/1
f 17/3/1 16/3/1 15/3/1
f 18/3/1 16/3/1 17/3/1
f 19/1/1 18/1/1 17/1/1
f 20/1/1 18/1/1 19/1/1
f 21/3/1 20/3/1 19/3/1
f 22/3/1 20/3/1 21/3/1
f 23/1/1 22/1/1 21/1/1
f 24/1/1 22/1/1 23/1/1
f 25/3/1 24/3/1 23/3/1
f 26/3/1 24/3/1 25/3/1
f 28/1/1 26/1/1 25/1/1
f 29/1/1 26/1/1 28/1/1
f 31/3/1 29/3/1 28/3/1
f 31/3/1 30/3/1 29/3/1
f 31/3/1 28/3/1 27/3/1
f 32/3/1 30/3/1 31/3/1
f 33/3/1 31/3/1 27/3/1
f 34/1/1 32/1/1 31/1/1
f 34/3/1 31/3/1 33/3/1
f 35/3/1 30/3/1 32/3/1
f 35/1/1 32/1/1 34/1/1
f 36/3/1 30/3/1 35/3/1
f 38/3/1 35/3/1 34/3/1
f 39/3/1 35/3/1 38/3/1
f 41/3/1 38/3/1 37/3/1
f 41/1/1 39/1/1 38/1/1
f 42/3/1 40/3/1 39/3/1
f 42/1/1 39/1/1 41/1/1
f 43/3/1 41/3/1 37/3/1
f 43/3/1 42/3/1 41/3/1
f 44/3/1 42/3/1 43/3/1
f 45/3/1 40/3/1 42/3/1
f 45/3/1 42/3/1 44/3/1
f 46/3/1 40/3/1 45/3/1
f 47/1/1 45/1/1 44/1/1
f 48/1/1 45/1/1 47/1/1
f 49/3/1 48/3/1 47/3/1
f 50/3/1 48/3/1 49/3/1
f 51/1/1 50/1/1 49/1/1
f 52/1/1 50/1/1 51/1/1
f 53/3/1 52/3/1 51/3/1
f 54/3/1 52/3/1 53/3/1
f 55/1/1 54/1/1 53/1/1
f 56/1/1 54/1/1 55/1/1
f 57/2/1 56/2/1 55/2/1
f 58/2/1 56/2/1 57/2/1
f 63/3/1 60/3/1 59/3/1
f 64/3/1 62/3/1 61/3/1
f 65/3/1 63/3/1 59/3/1
f 66/3/1 62/3/1 64/3/1
f 67/3/1 65/3/1 59/3/1
f 68/3/1 62/3/1 66/3/1
f 69/3/1 67/3/1 59/3/1
f 70/3/1 62/3/1 68/3/1
f 71/3/1 69/3/1 59/3/1
f 72/3/1 62/3/1 70/3/1
f 73/3/1 71/3/1 59/3/1
f 74/3/1 62/3/1 72/3/1
f 75/3/1 73/3/1 59/3/1
f 76/3/1 62/3/1 74/3/1
f 77/3/1 75/3/1 59/3/1
f 78/3/1 62/3/1 76/3/1
f 79/3/1 77/3/1 59/3/1
f 80/3/1 77/3/1 79/3/1
f 81/3/1 62/3/1 78/3/1
f 82/3/1 62/3/1 81/3/1
f 87/3/1 84/3/1 83/3/1
f 88/3/1 84/3/1 87/3/1
f 89/3/1 86/3/1 85/3/1
f 90/3/1 86/3/1 89/3/1
f 91/3/2 92/3/2 95/3/2
f 95/3/2 92/3/2 96/3/2
f 93/3/2 94/3/2 97/3/2
f 97/3/2 94/3/2 98/3/2
f 99/3/2 100/3/2 103/3/2
f 103/3/2 100/3/2 104/3/2
f 101/3/2 102/3/2 105/3/2
f 105/3/2 102/3/2 106/3/2
f 107/3/2 108/3/2 111/3/2
f 109/3/2 110/3/2 112/3/2
f 107/3/2 111/3/2 113/3/2
f 112/3/2 110/3/2 114/3/2
f 107/3/2 113/3/2 115/3/2
f 114/3/2 110/3/2 116/3/2
f 107/3/2 115/3/2 117/3/2
f 116/3/2 110/3/2 118/3/2
f 107/3/2 117/3/2 119/3/2
f 118/3/2 110/3/2 120/3/2
f 107/3/2 119/3/2 121/3/2
f 120/3/2 110/3/2 122/3/2
f 107/3/2 121/3/2 123/3/2
f 123/3/2 121/3/2 124/3/2
f 122/3/2 110/3/2 125/3/2
f 125/3/2 110/3/2 126/3/2
f 127/3/2 128/3/2 131/3/2
f 131/3/2 128/3/2 132/3/2
f 129/3/2 130/3/2 133/3/2
f 133/3/2 130/3/2 134/3/2
f 135/3/2 136/3/2 139/3/2
f 139/3/2 136/3/2 140/3/2
f 137/3/2 138/3/2 141/3/2
f 141/3/2 138/3/2 142/3/2
f 143/2/2 144/2/2 145/2/2
f 145/2/2 144/2/2 146/2/2
f 147/3/2 148/3/2 151/3/2
f 151/3/2 148/3/2 152/3/2
f 149/3/2 150/3/2 153/3/2
f 153/3/2 150/3/2 154/3/2
f 155/3/2 156/3/2 159/3/2
f 159/3/2 156/3/2 160/3/2
f 157/3/2 158/3/2 161/3/2
f 161/3/2 158/3/2 162/3/2
f 163/3/2 164/3/2 167/3/2
f 167/3/2 164/3/2 168/3/2
f 165/3/2 166/3/2 169/3/2
f 169/3/2 166/3/2 170/3/2
f 171/2/2 172/2/2 173/2/2
f 173/2/2 172/2/2 174/2/2
f 181/3/3 176/3/3 175/3/3
f 182/3/3 176/3/3 181/3/3
f 183/3/3 176/3/3 182/3/3
f 184/3/3 178/3/3 177/3/3
f 185/3/3 178/3/3 184/3/3
f 186/3/3 178/3/3 185/3/3
f 187/3/3 180/3/3 179/3/3
f 188/3/3 180/3/3 187/3/3
f 189/3/3 183/3/3 182/3/3
f 189/3/3 185/3/3 184/3/3
f 189/3/3 184/3/3 183/3/3
f 190/3/3 185/3/3 189/3/3
f 191/3/3 185/3/3 190/3/3
f 192/3/3 185/3/3 191/3/3
f 193/3/3 187/3/3 179/3/3
f 194/3/3 187/3/3 193/3/3
f 195/3/3 180/3/3 188/3/3
f 196/3/3 180/3/3 195/3/3
f 197/3/3 191/3/3 190/3/3
f 198/3/3 191/3/3 197/3/3
f 222/3/3 201/3/3 200/3/3
f 222/1/3 202/1/3 201/1/3
f 223/3/3 203/3/3 202/3/3
f 223/1/3 202/1/3 222/1/3
f 224/1/3 204/1/3 203/1/3
f 224/3/3 203/3/3 223/3/3
f 225/3/3 205/3/3 204/3/3
f 225/1/3 204/1/3 224/1/3
f 226/1/3 206/1/3 205/1/3
f 226/3/3 205/3/3 225/3/3
f 227/3/3 207/3/3 206/3/3
f 227/1/3 206/1/3 226/1/3
f 228/1/3 208/1/3 207/1/3
f 228/3/3 207/3/3 227/3/3
f 229/3/3 209/3/3 208/3/3
f 229/1/3 208/1/3 228/1/3
f 230/1/3 210/1/3 209/1/3
f 230/3/3 209/3/3 229/3/3
f 231/3/3 211/3/3 210/3/3
f 231/1/3 210/1/3 230/1/3
f 232/1/3 212/1/3 211/1/3
f 232/3/3 211/3/3 231/3/3
f 233/1/3 212/1/3 232/1/3
f 235/3/3 214/3/3 213/3/3
f 236/3/3 214/3/3 235/3/3
f 238/1/3 216/1/3 215/1/3
f 239/3/3 217/3/3 216/3/3
f 239/1/3 216/1/3 238/1/3
f 240/1/3 218/1/3 217/1/3
f 240/3/3 217/3/3 239/3/3
f 241/3/3 219/3/3 218/3/3
f 241/1/3 218/1/3 240/1/3
f 242/1/3 220/1/3 219/1/3
f 242/3/3 219/3/3 241/3/3
f 243/2/3 221/2/3 220/2/3
f 243/1/3 220/1/3 242/1/3
f 244/3/3 222/3/3 200/3/3
f 244/3/3 223/3/3 222/3/3
f 245/3/3 223/3/3 244/3/3
f 254/3/3 233/3/3 232/3/3
f 254/3/3 234/3/3 233/3/3
f 255/3/3 234/3/3 254/3/3
f 256/3/3 234/3/3 255/3/3
f 259/3/3 239/3/3 238/3/3
f 259/3/3 238/3/3 237/3/3
f 260/3/3 239/3/3 259/3/3
f 261/2/3 242/2/3 241/2/3
f 261/3/3 239/3/3 260/3/3
f 261/2/3 241/2/3 240/2/3
f 261/2/3 243/2/3 242/2/3
f 261/2/3 240/2/3 239/2/3
f 262/2/3 243/2/3 261/2/3
f 263/2/3 221/2/3 243/2/3
f 263/2/3 243/2/3 262/2/3
f 264/3/3 244/3/3 200/3/3
f 264/1/3 245/1/3 244/1/3
f 265/1/3 245/1/3 264/1/3
f 266/1/3 247/1/3 246/1/3
f 267/3/3 248/3/3 247/3/3
f 267/1/3 247/1/3 266/1/3
f 268/1/3 249/1/3 248/1/3
f 268/3/3 248/3/3 267/3/3
f 269/3/3 250/3/3 249/3/3
f 269/1/3 249/1/3 268/1/3
f 270/1/3 251/1/3 250/1/3
f 270/3/3 250/3/3 269/3/3
f 271/3/3 252/3/3 251/3/3
f 271/1/3 251/1/3 270/1/3
f 272/1/3 253/1/3 252/1/3
f 272/3/3 252/3/3 271/3/3
f 273/1/3 253/1/3 272/1/3
f 274/1/3 255/1/3 254/1/3
f 275/3/3 256/3/3 255/3/3
f 275/1/3 255/1/3 274/1/3
f 276/1/3 257/1/3 256/1/3
f 276/3/3 256/3/3 275/3/3
f 277/1/3 257/1/3 276/1/3
f 278/1/3 259/1/3 258/1/3
f 279/3/3 260/3/3 259/3/3
f 279/1/3 259/1/3 278/1/3
f 280/1/3 261/1/3 260/1/3
f 280/3/3 260/3/3 279/3/3
f 281/2/3 262/2/3 261/2/3
f 281/1/3 261/1/3 280/1/3
f 282/3/3 278/3/3 277/3/3
f 282/3/3 277/3/3 276/3/3
f 282/3/3 281/3/3 280/3/3
f 282/3/3 280/3/3 279/3/3
f 282/3/3 276/3/3 275/3/3
f 282/3/3 271/3/3 270/3/3
f 282/3/3 272/3/3 271/3/3
f 282/3/3 273/3/3 272/3/3
f 282/3/3 264/3/3 200/3/3
f 282/3/3 275/3/3 274/3/3
f 282/3/3 269/3/3 268/3/3
f 282/3/3 268/3/3 267/3/3
f 282/3/3 267/3/3 266/3/3
f 282/3/3 266/3/3 265/3/3
f 282/3/3 265/3/3 264/3/3
f 282/3/3 279/3/3 278/3/3
f 282/3/3 274/3/3 273/3/3
f 282/3/3 270/3/3 269/3/3
f 283/3/3 281/3/3 282/3/3
f 284/3/3 281/3/3 283/3/3
f 285/3/3 281/3/3 284/3/3
f 286/3/3 281/3/3 285/3/3
f 287/3/3 281/3/3 286/3/3
f 288/3/3 281/3/3 287/3/3
f 289/3/3 281/3/3 288/3/3
f 290/3/3 281/3/3 289/3/3
f 291/3/3 281/3/3 290/3/3
f 292/3/3 281/3/3 291/3/3
f 293/3/3 281/3/3 292/3/3
f 294/3/3 281/3/3 293/3/3
f 295/3/3 281/3/3 294/3/3
f 296/3/3 281/3/3 295/3/3
f 297/3/3 281/3/3 296/3/3
f 298/3/3 281/3/3 297/3/3
f 299/2/3 262/2/3 281/2/3
f 299/3/3 281/3/3 298/3/3
f 300/2/3 200/2/3 199/2/3
f 300/3/3 282/3/3 200/3/3
f 301/1/3 283/1/3 282/1/3
f 301/3/3 282/3/3 300/3/3
f 302/3/3 284/3/3 283/3/3
f 302/1/3 283/1/3 301/1/3
f 303/1/3 285/1/3 284/1/3
f 303/3/3 284/3/3 302/3/3
f 304/3/3 286/3/3 285/3/3
f 304/1/3 285/1/3 303/1/3
f 305/1/3 287/1/3 286/1/3
f 305/3/3 286/3/3 304/3/3
f 306/3/3 288/3/3 287/3/3
f 306/1/3 287/1/3 305/1/3
f 307/1/3 289/1/3 288/1/3
f 307/3/3 288/3/3 306/3/3
f 308/3/3 290/3/3 289/3/3
f 308/1/3 289/1/3 307/1/3
f 309/1/3 291/1/3 290/1/3
f 309/3/3 290/3/3 308/3/3
f 310/3/3 292/3/3 291/3/3
f 310/1/3 291/1/3 309/1/3
f 311/1/3 293/1/3 292/1/3
f 311/3/3 292/3/3 310/3/3
f 312/3/3 294/3/3 293/3/3
f 312/1/3 293/1/3 311/1/3
f 313/1/3 295/1/3 294/1/3
f 313/3/3 294/3/3 312/3/3
f 314/3/3 296/3/3 295/3/3
f 314/1/3 295/1/3 313/1/3
f 315/1/3 297/1/3 296/1/3
f 315/3/3 296/3/3 314/3/3
f 316/3/3 298/3/3 297/3/3
f 316/1/3 297/1/3 315/1/3
f 317/1/3 299/1/3 298/1/3
f 317/3/3 298/3/3 316/3/3
f 318/2/3 262/2/3 299/2/3
f 318/1/3 299/1/3 317/1/3
f 319/2/3 317/2/3 316/2/3
f 319/2/3 315/2/3 314/2/3
f 319/2/3 318/2/3 317/2/3
f 319/2/3 314/2/3 313/2/3
f 319/2/3 313/2/3 312/2/3
f 319/2/3 312/2/3 311/2/3
f 319/2/3 311/2/3 310/2/3
f 319/2/3 310/2/3 309/2/3
f 319/2/3 309/2/3 308/2/3
f 319/2/3 308/2/3 307/2/3
f 319/2/3 307/2/3 306/2/3
f 319/2/3 306/2/3 305/2/3
f 319/2/3 305/2/3 304/2/3
f 319/2/3 304/2/3 303/2/3
f 319/2/3 303/2/3 302/2/3
f 319/2/3 302/2/3 301/2/3
f 319/2/3 301/2/3 300/2/3
f 319/2/3 300/2/3 199/2/3
f 319/2/3 316/2/3 315/2/3
f 320/2/3 262/2/3 318/2/3
f 320/2/3 318/2/3 319/2/3
f 322/3/4 323/3/4 344/3/4
f 323/1/4 324/1/4 344/1/4
f 324/3/4 325/3/4 345/3/4
f 344/1/4 324/1/4 345/1/4
f 325/1/4 326/1/4 346/1/4
f 345/3/4 325/3/4 346/3/4
f 326/3/4 327/3/4 347/3/4
f 346/1/4 326/1/4 347/1/4
f 327/1/4 328/1/4 348/1/4
f 347/3/4 327/3/4 348/3/4
f 328/3/4 329/3/4 349/3/4
f 348/1/4 328/1/4 349/1/4
f 329/1/4 330/1/4 350/1/4
f 349/3/4 329/3/4 350/3/4
f 330/3/4 331/3/4 351/3/4
f 350/1/4 330/1/4 351/1/4
f 331/1/4 332/1/4 352/1/4
f 351/3/4 331/3/4 352/3/4
f 332/3/4 333/3/4 353/3/4
f 352/1/4 332/1/4 353/1/4
f 333/1/4 334/1/4 354/1/4
f 353/3/4 333/3/4 354/3/4
f 354/1/4 334/1/4 355/1/4
f 335/3/4 336/3/4 357/3/4
f 357/3/4 336/3/4 358/3/4
f 337/1/4 338/1/4 360/1/4
f 338/3/4 339/3/4 361/3/4
f 360/1/4 338/1/4 361/1/4
f 339/1/4 340/1/4 362/1/4
f 361/3/4 339/3/4 362/3/4
f 340/3/4 341/3/4 363/3/4
f 362/1/4 340/1/4 363/1/4
f 341/1/4 342/1/4 364/1/4
f 363/3/4 341/3/4 364/3/4
f 342/2/4 343/2/4 365/2/4
f 364/1/4 342/1/4 365/1/4
f 322/3/4 344/3/4 366/3/4
f 344/3/4 345/3/4 366/3/4
f 366/3/4 345/3/4 367/3/4
f 354/3/4 355/3/4 376/3/4
f 355/3/4 356/3/4 376/3/4
f 376/3/4 356/3/4 377/3/4
f 377/3/4 356/3/4 378/3/4
f 360/3/4 361/3/4 381/3/4
f 359/3/4 360/3/4 381/3/4
f 381/3/4 361/3/4 382/3/4
f 363/2/4 364/2/4 383/2/4
f 382/3/4 361/3/4 383/3/4
f 362/2/4 363/2/4 383/2/4
f 364/2/4 365/2/4 383/2/4
f 361/2/4 362/2/4 383/2/4
f 383/2/4 365/2/4 384/2/4
f 365/2/4 343/2/4 385/2/4
f 384/2/4 365/2/4 385/2/4
f 322/3/4 366/3/4 386/3/4
f 366/1/4 367/1/4 386/1/4
f 386/1/4 367/1/4 387/1/4
f 368/1/4 369/1/4 388/1/4
f 369/3/4 370/3/4 389/3/4
f 388/1/4 369/1/4 389/1/4
f 370/1/4 371/1/4 390/1/4
f 389/3/4 370/3/4 390/3/4
f 371/3/4 372/3/4 391/3/4
f 390/1/4 371/1/4 391/1/4
f 372/1/4 373/1/4 392/1/4
f 391/3/4 372/3/4 392/3/4
f 373/3/4 374/3/4 393/3/4
f 392/1/4 373/1/4 393/1/4
f 374/1/4 375/1/4 394/1/4
f 393/3/4 374/3/4 394/3/4
f 394/1/4 375/1/4 395/1/4
f 376/1/4 377/1/4 396/1/4
f 377/3/4 378/3/4 397/3/4
f 396/1/4 377/1/4 397/1/4
f 378/1/4 379/1/4 398/1/4
f 397/3/4 378/3/4 398/3/4
f 398/1/4 379/1/4 399/1/4
f 380/1/4 381/1/4 400/1/4
f 381/3/4 382/3/4 401/3/4
f 400/1/4 381/1/4 401/1/4
f 382/1/4 383/1/4 402/1/4
f 401/3/4 382/3/4 402/3/4
f 383/2/4 384/2/4 403/2/4
f 402/1/4 383/1/4 403/1/4
f 399/3/4 400/3/4 404/3/4
f 398/3/4 399/3/4 404/3/4
f 402/3/4 403/3/4 404/3/4
f 401/3/4 402/3/4 404/3/4
f 397/3/4 398/3/4 404/3/4
f 392/3/4 393/3/4 404/3/4
f 393/3/4 394/3/4 404/3/4
f 394/3/4 395/3/4 404/3/4
f 322/3/4 386/3/4 404/3/4
f 396/3/4 397/3/4 404/3/4
f 390/3/4 391/3/4 404/3/4
f 389/3/4 390/3/4 404/3/4
f 388/3/4 389/3/4 404/3/4
f 387/3/4 388/3/4 404/3/4
f 386/3/4 387/3/4 404/3/4
f 400/3/4 401/3/4 404/3/4
f 395/3/4 396/3/4 404/3/4
f 391/3/4 392/3/4 404/3/4
f 404/3/4 403/3/4 405/3/4
f 405/3/4 403/3/4 406/3/4
f 406/3/4 403/3/4 407/3/4
f 407/3/4 403/3/4 408/3/4
f 408/3/4 403/3/4 409/3/4
f 409/3/4 403/3/4 410/3/4
f 410/3/4 403/3/4 411/3/4
f 411/3/4 403/3/4 412/3/4
f 412/3/4 403/3/4 413/3/4
f 413/3/4 403/3/4 414/3/4
f 414/3/4 403/3/4 415/3/4
f 415/3/4 403/3/4 416/3/4
f 416/3/4 403/3/4 417/3/4
f 417/3/4 403/3/4 418/3/4
f 418/3/4 403/3/4 419/3/4
f 419/3/4 403/3/4 420/3/4
f 403/2/4 384/2/4 421/2/4
f 420/3/4 403/3/4 421/3/4
f 321/2/4 322/2/4 422/2/4
f 322/3/4 404/3/4 422/3/4
f 404/1/4 405/1/4 423/1/4
f 422/3/4 404/3/4 423/3/4
f 405/3/4 406/3/4 424/3/4
f 423/1/4 405/1/4 424/1/4
f 406/1/4 407/1/4 425/1/4
f 424/3/4 406/3/4 425/3/4
f 407/3/4 408/3/4 426/3/4
f 425/1/4 407/1/4 426/1/4
f 408/1/4 409/1/4 427/1/4
f 426/3/4 408/3/4 427/3/4
f 409/3/4 410/3/4 428/3/4
f 427/1/4 409/1/4 428/1/4
f 410/1/4 411/1/4 429/1/4
f 428/3/4 410/3/4 429/3/4
f 411/3/4 412/3/4 430/3/4
f 429/1/4 411/1/4 430/1/4
f 412/1/4 413/1/4 431/1/4
f 430/3/4 412/3/4 431/3/4
f 413/3/4 414/3/4 432/3/4
f 431/1/4 413/1/4 432/1/4
f 414/1/4 415/1/4 433/1/4
f 432/3/4 414/3/4 433/3/4
f 415/3/4 416/3/4 434/3/4
f 433/1/4 415/1/4 434/1/4
f 416/1/4 417/1/4 435/1/4
f 434/3/4 416/3/4 435/3/4
f 417/3/4 418/3/4 436/3/4
f 435/1/4 417/1/4 436/1/4
f 418/1/4 419/1/4 437/1/4
f 436/3/4 418/3/4 437/3/4
f 419/3/4 420/3/4 438/3/4
f 437/1/4 419/1/4 438/1/4
f 420/1/4 421/1/4 439/1/4
f 438/3/4 420/3/4 439/3/4
f 421/2/4 384/2/4 440/2/4
f 439/1/4 421/1/4 440/1/4
f 438/2/4 439/2/4 441/2/4
f 436/2/4 437/2/4 441/2/4
f 439/2/4 440/2/4 441/2/4
f 435/2/4 436/2/4 441/2/4
f 434/2/4 435/2/4 441/2/4
f 433/2/4 434/2/4 441/2/4
f 432/2/4 433/2/4 441/2/4
f 431/2/4 432/2/4 441/2/4
f 430/2/4 431/2/4 441/2/4
f 429/2/4 430/2/4 441/2/4
f 428/2/4 429/2/4 441/2/4
f 427/2/4 428/2/4 441/2/4
f 426/2/4 427/2/4 441/2/4
f 425/2/4 426/2/4 441/2/4
f 424/2/4 425/2/4 441/2/4
f 423/2/4 424/2/4 441/2/4
f 422/2/4 423/2/4 441/2/4
f 321/2/4 422/2/4 441/2/4
f 437/2/4 438/2/4 441/2/4
f 440/2/4 384/2/4 442/2/4
f 441/2/4 440/2/4 442/2/4
f 443/3/4 444/3/4 449/3/4
f 449/3/4 444/3/4 450/3/4
f 450/3/4 444/3/4 451/3/4
f 445/3/4 446/3/4 452/3/4
f 452/3/4 446/3/4 453/3/4
f 453/3/4 446/3/4 454/3/4
f 447/3/4 448/3/4 455/3/4
f 455/3/4 448/3/4 456/3/4
f 450/3/4 451/3/4 457/3/4
f 452/3/4 453/3/4 457/3/4
f 451/3/4 452/3/4 457/3/4
f 457/3/4 453/3/4 458/3/4
f 458/3/4 453/3/4 459/3/4
f 459/3/4 453/3/4 460/3/4
f 447/3/4 455/3/4 461/3/4
f 461/3/4 455/3/4 462/3/4
f 456/3/4 448/3/4 463/3/4
f 463/3/4 448/3/4 464/3/4
f 458/3/4 459/3/4 465/3/4
f 465/3/4 459/3/4 466/3/4
f 469/2/5 468/2/5 467/2/5
f 470/2/5 468/2/5 469/2/5
f 473/3/5 472/3/5 471/3/5
f 474/3/5 472/3/5 473/3/5
f 475/3/5 472/3/5 474/3/5
f 479/3/5 477/3/5 476/3/5
f 479/3/5 478/3/5 477/3/5
f 480/3/5 478/3/5 479/3/5
f 483/3/5 482/3/5 481/3/5
f 484/3/5 482/3/5 483/3/5
f 487/3/5 486/3/5 485/3/5
f 488/3/5 486/3/5 487/3/5
f 491/3/5 490/3/5 489/3/5
f 492/3/5 490/3/5 491/3/5
f 495/3/5 494/3/5 493/3/5
f 496/3/5 494/3/5 495/3/5
f 499/3/5 498/3/5 497/3/5
f 500/3/5 498/3/5 499/3/5
f 503/3/5 502/3/5 501/3/5
f 504/3/5 502/3/5 503/3/5
f 507/3/5 506/3/5 505/3/5
f 508/3/5 506/3/5 507/3/5
f 511/3/5 510/3/5 509/3/5
f 512/3/5 510/3/5 511/3/5
f 515/3/5 514/3/5 513/3/5
f 516/3/5 514/3/5 515/3/5
f 519/3/5 518/3/5 517/3/5
f 520/3/5 518/3/5 519/3/5
f 521/3/6 522/3/6 523/3/6
f 523/3/6 522/3/6 524/3/6
f 525/3/6 526/3/6 527/3/6
f 527/3/6 526/3/6 528/3/6
f 529/3/6 530/3/6 531/3/6
f 531/3/6 530/3/6 532/3/6
f 532/3/6 530/3/6 533/3/6
f 534/3/6 535/3/6 537/3/6
f 535/3/6 536/3/6 537/3/6
f 537/3/6 536/3/6 538/3/6
f 539/3/6 540/3/6 541/3/6
f 541/3/6 540/3/6 542/3/6
f 543/3/6 544/3/6 545/3/6
f 545/3/6 544/3/6 546/3/6
f 547/3/6 548/3/6 549/3/6
f 549/3/6 548/3/6 550/3/6
f 551/3/6 552/3/6 553/3/6
f 553/3/6 552/3/6 554/3/6
f 555/3/6 556/3/6 557/3/6
f 557/3/6 556/3/6 558/3/6
f 559/3/6 560/3/6 561/3/6
f 561/3/6 560/3/6 562/3/6
f 563/3/6 564/3/6 565/3/6
f 565/3/6 564/3/6 566/3/6
f 567/3/6 568/3/6 569/3/6
f 569/3/6 568/3/6 570/3/6
f 571/2/6 572/2/6 573/2/6
f 573/2/6 572/2/6 574/2/6
f 575/2/6 576/2/6 577/2/6
f 577/2/6 576/2/6 578/2/6
