# MagicaVoxel @ ephtracy

# material
mtllib 03_small_door_2X.mtl
usemtl palette

# normals
vn -1 0 0
vn 1 0 0
vn 0 0 1
vn 0 0 -1
vn 0 -1 0
vn 0 1 0

# texcoords
vt 0.0449219 0.5
vt 0.0644531 0.5
vt 0.970703 0.5
vt 0.978516 0.5
vt 0.982422 0.5

# verts
v -3 0 0.5
v -3 0 -0.5
v -3 1 0.5
v -3 1 -0.5
v -3 2 0.5
v -3 2 -0.5
v -3 3 0.5
v -3 3 -0.5
v -3 4 0.5
v -3 4 -0.5
v -3 5 0.5
v -3 5 -0.5
v -3 6 0.5
v -3 6 -0.5
v -3 7 0.5
v -3 7 -0.5
v -3 8 0.5
v -3 8 -0.5
v -3 9 1.5
v -3 9 0.5
v -3 9 -0.5
v -3 9 -1.5
v -3 10 0.5
v -3 10 -0.5
v -3 11 1.5
v -3 11 0.5
v -3 11 -0.5
v -3 11 -1.5
v -3 12 1.5
v -3 12 0.5
v -3 12 -0.5
v -3 12 -1.5
v -3 13 1.5
v -3 13 0.5
v -3 13 -0.5
v -3 13 -1.5
v -3 14 1.5
v -3 14 0.5
v -3 14 -0.5
v -3 14 -1.5
v -3 15 0.5
v -3 15 -0.5
v -3 16 0.5
v -3 16 -0.5
v -2 3 1.5
v -2 3 0.5
v -2 3 -0.5
v -2 3 -1.5
v -2 4 0.5
v -2 4 -0.5
v -2 5 0.5
v -2 5 -0.5
v -2 6 0.5
v -2 6 -0.5
v -2 7 0.5
v -2 7 -0.5
v -2 8 1.5
v -2 8 0.5
v -2 8 -0.5
v -2 8 -1.5
v -2 11 1.5
v -2 11 0.5
v -2 11 -0.5
v -2 11 -1.5
v -2 12 1.5
v -2 12 0.5
v -2 12 -0.5
v -2 12 -1.5
v -2 9 1.5
v -2 9 0.5
v -2 9 -0.5
v -2 9 -1.5
v -2 10 1.5
v -2 10 0.5
v -2 10 -0.5
v -2 10 -1.5
v -2 13 1.5
v -2 13 0.5
v -2 13 -0.5
v -2 13 -1.5
v -2 14 1.5
v -2 14 0.5
v -2 14 -0.5
v -2 14 -1.5
v -1 4 1.5
v -1 4 0.5
v -1 4 -0.5
v -1 4 -1.5
v -1 5 0.5
v -1 5 -0.5
v -1 6 0.5
v -1 6 -0.5
v -1 7 1.5
v -1 7 0.5
v -1 7 -0.5
v -1 7 -1.5
v -1 10 1.5
v -1 10 0.5
v -1 10 -0.5
v -1 10 -1.5
v -1 11 1.5
v -1 11 0.5
v -1 11 -0.5
v -1 11 -1.5
v -1 12 1.5
v -1 12 0.5
v -1 12 -0.5
v -1 12 -1.5
v -1 13 1.5
v -1 13 0.5
v -1 13 -0.5
v -1 13 -1.5
v 0 3 1.5
v 0 3 0.5
v 0 3 -0.5
v 0 3 -1.5
v 0 4 1.5
v 0 4 0.5
v 0 4 -0.5
v 0 4 -1.5
v 0 7 1.5
v 0 7 0.5
v 0 7 -0.5
v 0 7 -1.5
v 0 8 1.5
v 0 8 0.5
v 0 8 -0.5
v 0 8 -1.5
v 0 11 1.5
v 0 11 0.5
v 0 11 -0.5
v 0 11 -1.5
v 0 12 1.5
v 0 12 0.5
v 0 12 -0.5
v 0 12 -1.5
v 3 0 0.5
v 3 0 -0.5
v 3 16 0.5
v 3 16 -0.5
v -3 9 1.5
v -3 11 1.5
v -3 12 1.5
v -3 13 1.5
v -3 14 1.5
v -2 3 1.5
v -2 8 1.5
v -2 9 1.5
v -2 10 1.5
v -2 11 1.5
v -2 12 1.5
v -2 13 1.5
v -2 14 1.5
v -1 4 1.5
v -1 7 1.5
v -1 10 1.5
v -1 11 1.5
v -1 12 1.5
v -1 13 1.5
v 0 3 1.5
v 0 4 1.5
v 0 7 1.5
v 0 8 1.5
v 0 11 1.5
v 0 12 1.5
v -3 0 0.5
v -3 1 0.5
v -3 2 0.5
v -3 3 0.5
v -3 4 0.5
v -3 5 0.5
v -3 6 0.5
v -3 7 0.5
v -3 8 0.5
v -3 9 0.5
v -3 11 0.5
v -3 12 0.5
v -3 14 0.5
v -3 15 0.5
v -3 16 0.5
v -2 2 0.5
v -2 3 0.5
v -2 4 0.5
v -2 5 0.5
v -2 6 0.5
v -2 7 0.5
v -2 8 0.5
v -2 9 0.5
v -2 10 0.5
v -2 11 0.5
v -2 12 0.5
v -2 13 0.5
v -2 14 0.5
v -2 15 0.5
v -1 2 0.5
v -1 3 0.5
v -1 4 0.5
v -1 5 0.5
v -1 6 0.5
v -1 7 0.5
v -1 8 0.5
v -1 9 0.5
v -1 10 0.5
v -1 11 0.5
v -1 12 0.5
v -1 13 0.5
v -1 14 0.5
v -1 15 0.5
v 0 2 0.5
v 0 3 0.5
v 0 4 0.5
v 0 5 0.5
v 0 6 0.5
v 0 7 0.5
v 0 8 0.5
v 0 9 0.5
v 0 10 0.5
v 0 11 0.5
v 0 12 0.5
v 0 13 0.5
v 0 14 0.5
v 0 15 0.5
v 1 2 0.5
v 1 3 0.5
v 1 4 0.5
v 1 5 0.5
v 1 6 0.5
v 1 7 0.5
v 1 8 0.5
v 1 9 0.5
v 1 10 0.5
v 1 11 0.5
v 1 12 0.5
v 1 13 0.5
v 1 14 0.5
v 1 15 0.5
v 2 1 0.5
v 2 2 0.5
v 2 3 0.5
v 2 4 0.5
v 2 5 0.5
v 2 6 0.5
v 2 7 0.5
v 2 8 0.5
v 2 9 0.5
v 2 10 0.5
v 2 11 0.5
v 2 12 0.5
v 2 13 0.5
v 2 14 0.5
v 2 15 0.5
v 3 0 0.5
v 3 16 0.5
v -3 0 -0.5
v -3 1 -0.5
v -3 2 -0.5
v -3 3 -0.5
v -3 4 -0.5
v -3 5 -0.5
v -3 6 -0.5
v -3 7 -0.5
v -3 8 -0.5
v -3 9 -0.5
v -3 11 -0.5
v -3 12 -0.5
v -3 14 -0.5
v -3 15 -0.5
v -3 16 -0.5
v -2 2 -0.5
v -2 3 -0.5
v -2 4 -0.5
v -2 5 -0.5
v -2 6 -0.5
v -2 7 -0.5
v -2 8 -0.5
v -2 9 -0.5
v -2 10 -0.5
v -2 11 -0.5
v -2 12 -0.5
v -2 13 -0.5
v -2 14 -0.5
v -2 15 -0.5
v -1 2 -0.5
v -1 3 -0.5
v -1 4 -0.5
v -1 5 -0.5
v -1 6 -0.5
v -1 7 -0.5
v -1 8 -0.5
v -1 9 -0.5
v -1 10 -0.5
v -1 11 -0.5
v -1 12 -0.5
v -1 13 -0.5
v -1 14 -0.5
v -1 15 -0.5
v 0 2 -0.5
v 0 3 -0.5
v 0 4 -0.5
v 0 5 -0.5
v 0 6 -0.5
v 0 7 -0.5
v 0 8 -0.5
v 0 9 -0.5
v 0 10 -0.5
v 0 11 -0.5
v 0 12 -0.5
v 0 13 -0.5
v 0 14 -0.5
v 0 15 -0.5
v 1 2 -0.5
v 1 3 -0.5
v 1 4 -0.5
v 1 5 -0.5
v 1 6 -0.5
v 1 7 -0.5
v 1 8 -0.5
v 1 9 -0.5
v 1 10 -0.5
v 1 11 -0.5
v 1 12 -0.5
v 1 13 -0.5
v 1 14 -0.5
v 1 15 -0.5
v 2 1 -0.5
v 2 2 -0.5
v 2 3 -0.5
v 2 4 -0.5
v 2 5 -0.5
v 2 6 -0.5
v 2 7 -0.5
v 2 8 -0.5
v 2 9 -0.5
v 2 10 -0.5
v 2 11 -0.5
v 2 12 -0.5
v 2 13 -0.5
v 2 14 -0.5
v 2 15 -0.5
v 3 0 -0.5
v 3 16 -0.5
v -3 9 -1.5
v -3 11 -1.5
v -3 12 -1.5
v -3 13 -1.5
v -3 14 -1.5
v -2 3 -1.5
v -2 8 -1.5
v -2 9 -1.5
v -2 10 -1.5
v -2 11 -1.5
v -2 12 -1.5
v -2 13 -1.5
v -2 14 -1.5
v -1 4 -1.5
v -1 7 -1.5
v -1 10 -1.5
v -1 11 -1.5
v -1 12 -1.5
v -1 13 -1.5
v 0 3 -1.5
v 0 4 -1.5
v 0 7 -1.5
v 0 8 -1.5
v 0 11 -1.5
v 0 12 -1.5
v -3 0 0.5
v 3 0 0.5
v -3 0 -0.5
v 3 0 -0.5
v -2 3 1.5
v 0 3 1.5
v -2 3 0.5
v -1 3 0.5
v 0 3 0.5
v -2 3 -0.5
v -1 3 -0.5
v 0 3 -0.5
v -2 3 -1.5
v 0 3 -1.5
v -1 7 1.5
v 0 7 1.5
v -1 7 0.5
v 0 7 0.5
v -1 7 -0.5
v 0 7 -0.5
v -1 7 -1.5
v 0 7 -1.5
v -3 9 1.5
v -2 9 1.5
v -3 9 0.5
v -2 9 0.5
v -3 9 -0.5
v -2 9 -0.5
v -3 9 -1.5
v -2 9 -1.5
v -2 10 1.5
v -1 10 1.5
v -2 10 0.5
v -1 10 0.5
v -2 10 -0.5
v -1 10 -0.5
v -2 10 -1.5
v -1 10 -1.5
v -1 11 1.5
v 0 11 1.5
v -1 11 0.5
v 0 11 0.5
v -1 11 -0.5
v 0 11 -0.5
v -1 11 -1.5
v 0 11 -1.5
v -3 12 1.5
v -2 12 1.5
v -3 12 0.5
v -2 12 0.5
v -3 12 -0.5
v -2 12 -0.5
v -3 12 -1.5
v -2 12 -1.5
v -1 4 1.5
v 0 4 1.5
v -1 4 0.5
v 0 4 0.5
v -1 4 -0.5
v 0 4 -0.5
v -1 4 -1.5
v 0 4 -1.5
v -2 8 1.5
v 0 8 1.5
v -2 8 0.5
v -1 8 0.5
v 0 8 0.5
v -2 8 -0.5
v -1 8 -0.5
v 0 8 -0.5
v -2 8 -1.5
v 0 8 -1.5
v -3 11 1.5
v -2 11 1.5
v -3 11 0.5
v -2 11 0.5
v -3 11 -0.5
v -2 11 -0.5
v -3 11 -1.5
v -2 11 -1.5
v -1 12 1.5
v 0 12 1.5
v -1 12 0.5
v 0 12 0.5
v -1 12 -0.5
v 0 12 -0.5
v -1 12 -1.5
v 0 12 -1.5
v -2 13 1.5
v -1 13 1.5
v -2 13 0.5
v -1 13 0.5
v -2 13 -0.5
v -1 13 -0.5
v -2 13 -1.5
v -1 13 -1.5
v -3 14 1.5
v -2 14 1.5
v -3 14 0.5
v -2 14 0.5
v -3 14 -0.5
v -2 14 -0.5
v -3 14 -1.5
v -2 14 -1.5
v -3 16 0.5
v 3 16 0.5
v -3 16 -0.5
v 3 16 -0.5

# faces
f 3/5/1 2/5/1 1/5/1
f 4/5/1 2/5/1 3/5/1
f 5/3/1 4/3/1 3/3/1
f 6/3/1 4/3/1 5/3/1
f 7/4/1 6/4/1 5/4/1
f 8/4/1 6/4/1 7/4/1
f 9/3/1 8/3/1 7/3/1
f 10/3/1 8/3/1 9/3/1
f 11/4/1 10/4/1 9/4/1
f 12/4/1 10/4/1 11/4/1
f 13/3/1 12/3/1 11/3/1
f 14/3/1 12/3/1 13/3/1
f 15/4/1 14/4/1 13/4/1
f 16/4/1 14/4/1 15/4/1
f 17/3/1 16/3/1 15/3/1
f 18/3/1 16/3/1 17/3/1
f 20/4/1 18/4/1 17/4/1
f 21/4/1 18/4/1 20/4/1
f 23/3/1 21/3/1 20/3/1
f 23/1/1 20/1/1 19/1/1
f 24/1/1 22/1/1 21/1/1
f 24/3/1 21/3/1 23/3/1
f 25/1/1 23/1/1 19/1/1
f 26/4/1 24/4/1 23/4/1
f 26/1/1 23/1/1 25/1/1
f 27/1/1 22/1/1 24/1/1
f 27/4/1 24/4/1 26/4/1
f 28/1/1 22/1/1 27/1/1
f 30/3/1 27/3/1 26/3/1
f 31/3/1 27/3/1 30/3/1
f 33/1/1 30/1/1 29/1/1
f 34/4/1 31/4/1 30/4/1
f 34/1/1 30/1/1 33/1/1
f 35/1/1 32/1/1 31/1/1
f 35/4/1 31/4/1 34/4/1
f 36/1/1 32/1/1 35/1/1
f 37/2/1 34/2/1 33/2/1
f 38/3/1 35/3/1 34/3/1
f 38/2/1 34/2/1 37/2/1
f 39/2/1 36/2/1 35/2/1
f 39/3/1 35/3/1 38/3/1
f 40/2/1 36/2/1 39/2/1
f 41/4/1 39/4/1 38/4/1
f 42/4/1 39/4/1 41/4/1
f 43/5/1 42/5/1 41/5/1
f 44/5/1 42/5/1 43/5/1
f 49/1/1 46/1/1 45/1/1
f 50/1/1 48/1/1 47/1/1
f 51/1/1 49/1/1 45/1/1
f 52/1/1 48/1/1 50/1/1
f 53/1/1 51/1/1 45/1/1
f 54/1/1 48/1/1 52/1/1
f 55/1/1 53/1/1 45/1/1
f 56/1/1 48/1/1 54/1/1
f 57/1/1 55/1/1 45/1/1
f 58/1/1 55/1/1 57/1/1
f 59/1/1 48/1/1 56/1/1
f 60/1/1 48/1/1 59/1/1
f 65/1/1 62/1/1 61/1/1
f 66/1/1 62/1/1 65/1/1
f 67/1/1 64/1/1 63/1/1
f 68/1/1 64/1/1 67/1/1
f 69/1/2 70/1/2 73/1/2
f 73/1/2 70/1/2 74/1/2
f 71/1/2 72/1/2 75/1/2
f 75/1/2 72/1/2 76/1/2
f 77/2/2 78/2/2 81/2/2
f 81/2/2 78/2/2 82/2/2
f 79/2/2 80/2/2 83/2/2
f 83/2/2 80/2/2 84/2/2
f 85/1/2 86/1/2 89/1/2
f 87/1/2 88/1/2 90/1/2
f 85/1/2 89/1/2 91/1/2
f 90/1/2 88/1/2 92/1/2
f 85/1/2 91/1/2 93/1/2
f 93/1/2 91/1/2 94/1/2
f 92/1/2 88/1/2 95/1/2
f 95/1/2 88/1/2 96/1/2
f 97/1/2 98/1/2 101/1/2
f 101/1/2 98/1/2 102/1/2
f 99/1/2 100/1/2 103/1/2
f 103/1/2 100/1/2 104/1/2
f 105/2/2 106/2/2 109/2/2
f 109/2/2 106/2/2 110/2/2
f 107/2/2 108/2/2 111/2/2
f 111/2/2 108/2/2 112/2/2
f 113/1/2 114/1/2 117/1/2
f 117/1/2 114/1/2 118/1/2
f 115/1/2 116/1/2 119/1/2
f 119/1/2 116/1/2 120/1/2
f 121/1/2 122/1/2 125/1/2
f 125/1/2 122/1/2 126/1/2
f 123/1/2 124/1/2 127/1/2
f 127/1/2 124/1/2 128/1/2
f 129/2/2 130/2/2 133/2/2
f 133/2/2 130/2/2 134/2/2
f 131/2/2 132/2/2 135/2/2
f 135/2/2 132/2/2 136/2/2
f 137/5/2 138/5/2 139/5/2
f 139/5/2 138/5/2 140/5/2
f 148/1/3 142/1/3 141/1/3
f 149/1/3 142/1/3 148/1/3
f 150/1/3 142/1/3 149/1/3
f 151/1/3 144/1/3 143/1/3
f 152/2/3 145/2/3 144/2/3
f 152/1/3 144/1/3 151/1/3
f 153/2/3 145/2/3 152/2/3
f 154/1/3 147/1/3 146/1/3
f 155/1/3 147/1/3 154/1/3
f 156/1/3 150/1/3 149/1/3
f 156/1/3 151/1/3 150/1/3
f 157/1/3 151/1/3 156/1/3
f 158/2/3 152/2/3 151/2/3
f 158/1/3 151/1/3 157/1/3
f 159/2/3 152/2/3 158/2/3
f 160/1/3 154/1/3 146/1/3
f 161/1/3 154/1/3 160/1/3
f 162/1/3 147/1/3 155/1/3
f 163/1/3 147/1/3 162/1/3
f 164/2/3 158/2/3 157/2/3
f 165/2/3 158/2/3 164/2/3
f 181/3/3 168/3/3 167/3/3
f 181/4/3 169/4/3 168/4/3
f 182/3/3 170/3/3 169/3/3
f 182/4/3 169/4/3 181/4/3
f 183/4/3 171/4/3 170/4/3
f 183/3/3 170/3/3 182/3/3
f 184/3/3 172/3/3 171/3/3
f 184/4/3 171/4/3 183/4/3
f 185/4/3 173/4/3 172/4/3
f 185/3/3 172/3/3 184/3/3
f 186/3/3 174/3/3 173/3/3
f 186/4/3 173/4/3 185/4/3
f 187/4/3 175/4/3 174/4/3
f 187/3/3 174/3/3 186/3/3
f 188/4/3 175/4/3 187/4/3
f 190/3/3 177/3/3 176/3/3
f 191/3/3 177/3/3 190/3/3
f 193/4/3 179/4/3 178/4/3
f 194/5/3 180/5/3 179/5/3
f 194/4/3 179/4/3 193/4/3
f 195/3/3 181/3/3 167/3/3
f 195/3/3 182/3/3 181/3/3
f 196/3/3 182/3/3 195/3/3
f 201/3/3 188/3/3 187/3/3
f 201/3/3 189/3/3 188/3/3
f 202/3/3 189/3/3 201/3/3
f 203/3/3 189/3/3 202/3/3
f 206/3/3 193/3/3 192/3/3
f 206/3/3 194/3/3 193/3/3
f 207/3/3 194/3/3 206/3/3
f 208/5/3 180/5/3 194/5/3
f 208/3/3 194/3/3 207/3/3
f 209/3/3 195/3/3 167/3/3
f 209/4/3 196/4/3 195/4/3
f 210/4/3 196/4/3 209/4/3
f 211/4/3 198/4/3 197/4/3
f 212/3/3 199/3/3 198/3/3
f 212/4/3 198/4/3 211/4/3
f 213/4/3 200/4/3 199/4/3
f 213/3/3 199/3/3 212/3/3
f 214/4/3 200/4/3 213/4/3
f 215/4/3 202/4/3 201/4/3
f 216/3/3 203/3/3 202/3/3
f 216/4/3 202/4/3 215/4/3
f 217/4/3 204/4/3 203/4/3
f 217/3/3 203/3/3 216/3/3
f 218/4/3 204/4/3 217/4/3
f 219/4/3 206/4/3 205/4/3
f 220/3/3 207/3/3 206/3/3
f 220/4/3 206/4/3 219/4/3
f 221/4/3 208/4/3 207/4/3
f 221/3/3 207/3/3 220/3/3
f 222/5/3 180/5/3 208/5/3
f 222/4/3 208/4/3 221/4/3
f 223/3/3 216/3/3 215/3/3
f 223/3/3 219/3/3 218/3/3
f 223/3/3 222/3/3 221/3/3
f 223/3/3 215/3/3 214/3/3
f 223/3/3 217/3/3 216/3/3
f 223/3/3 212/3/3 211/3/3
f 223/3/3 213/3/3 212/3/3
f 223/3/3 211/3/3 210/3/3
f 223/3/3 209/3/3 167/3/3
f 223/3/3 218/3/3 217/3/3
f 223/3/3 221/3/3 220/3/3
f 223/3/3 214/3/3 213/3/3
f 223/3/3 220/3/3 219/3/3
f 223/3/3 210/3/3 209/3/3
f 224/3/3 222/3/3 223/3/3
f 225/3/3 222/3/3 224/3/3
f 226/3/3 222/3/3 225/3/3
f 227/3/3 222/3/3 226/3/3
f 228/3/3 222/3/3 227/3/3
f 229/3/3 222/3/3 228/3/3
f 230/3/3 222/3/3 229/3/3
f 231/3/3 222/3/3 230/3/3
f 232/3/3 222/3/3 231/3/3
f 233/3/3 222/3/3 232/3/3
f 234/3/3 222/3/3 233/3/3
f 235/3/3 222/3/3 234/3/3
f 236/5/3 180/5/3 222/5/3
f 236/3/3 222/3/3 235/3/3
f 237/5/3 167/5/3 166/5/3
f 237/3/3 223/3/3 167/3/3
f 238/4/3 224/4/3 223/4/3
f 238/3/3 223/3/3 237/3/3
f 239/3/3 225/3/3 224/3/3
f 239/4/3 224/4/3 238/4/3
f 240/4/3 226/4/3 225/4/3
f 240/3/3 225/3/3 239/3/3
f 241/3/3 227/3/3 226/3/3
f 241/4/3 226/4/3 240/4/3
f 242/4/3 228/4/3 227/4/3
f 242/3/3 227/3/3 241/3/3
f 243/3/3 229/3/3 228/3/3
f 243/4/3 228/4/3 242/4/3
f 244/4/3 230/4/3 229/4/3
f 244/3/3 229/3/3 243/3/3
f 245/3/3 231/3/3 230/3/3
f 245/4/3 230/4/3 244/4/3
f 246/4/3 232/4/3 231/4/3
f 246/3/3 231/3/3 245/3/3
f 247/3/3 233/3/3 232/3/3
f 247/4/3 232/4/3 246/4/3
f 248/4/3 234/4/3 233/4/3
f 248/3/3 233/3/3 247/3/3
f 249/3/3 235/3/3 234/3/3
f 249/4/3 234/4/3 248/4/3
f 250/4/3 236/4/3 235/4/3
f 250/3/3 235/3/3 249/3/3
f 251/5/3 180/5/3 236/5/3
f 251/4/3 236/4/3 250/4/3
f 252/5/3 250/5/3 249/5/3
f 252/5/3 248/5/3 247/5/3
f 252/5/3 251/5/3 250/5/3
f 252/5/3 247/5/3 246/5/3
f 252/5/3 246/5/3 245/5/3
f 252/5/3 245/5/3 244/5/3
f 252/5/3 244/5/3 243/5/3
f 252/5/3 243/5/3 242/5/3
f 252/5/3 242/5/3 241/5/3
f 252/5/3 241/5/3 240/5/3
f 252/5/3 240/5/3 239/5/3
f 252/5/3 239/5/3 238/5/3
f 252/5/3 238/5/3 237/5/3
f 252/5/3 237/5/3 166/5/3
f 252/5/3 249/5/3 248/5/3
f 253/5/3 180/5/3 251/5/3
f 253/5/3 251/5/3 252/5/3
f 255/3/4 256/3/4 269/3/4
f 256/4/4 257/4/4 269/4/4
f 257/3/4 258/3/4 270/3/4
f 269/4/4 257/4/4 270/4/4
f 258/4/4 259/4/4 271/4/4
f 270/3/4 258/3/4 271/3/4
f 259/3/4 260/3/4 272/3/4
f 271/4/4 259/4/4 272/4/4
f 260/4/4 261/4/4 273/4/4
f 272/3/4 260/3/4 273/3/4
f 261/3/4 262/3/4 274/3/4
f 273/4/4 261/4/4 274/4/4
f 262/4/4 263/4/4 275/4/4
f 274/3/4 262/3/4 275/3/4
f 275/4/4 263/4/4 276/4/4
f 264/3/4 265/3/4 278/3/4
f 278/3/4 265/3/4 279/3/4
f 266/4/4 267/4/4 281/4/4
f 267/5/4 268/5/4 282/5/4
f 281/4/4 267/4/4 282/4/4
f 255/3/4 269/3/4 283/3/4
f 269/3/4 270/3/4 283/3/4
f 283/3/4 270/3/4 284/3/4
f 275/3/4 276/3/4 289/3/4
f 276/3/4 277/3/4 289/3/4
f 289/3/4 277/3/4 290/3/4
f 290/3/4 277/3/4 291/3/4
f 280/3/4 281/3/4 294/3/4
f 281/3/4 282/3/4 294/3/4
f 294/3/4 282/3/4 295/3/4
f 282/5/4 268/5/4 296/5/4
f 295/3/4 282/3/4 296/3/4
f 255/3/4 283/3/4 297/3/4
f 283/4/4 284/4/4 297/4/4
f 297/4/4 284/4/4 298/4/4
f 285/4/4 286/4/4 299/4/4
f 286/3/4 287/3/4 300/3/4
f 299/4/4 286/4/4 300/4/4
f 287/4/4 288/4/4 301/4/4
f 300/3/4 287/3/4 301/3/4
f 301/4/4 288/4/4 302/4/4
f 289/4/4 290/4/4 303/4/4
f 290/3/4 291/3/4 304/3/4
f 303/4/4 290/4/4 304/4/4
f 291/4/4 292/4/4 305/4/4
f 304/3/4 291/3/4 305/3/4
f 305/4/4 292/4/4 306/4/4
f 293/4/4 294/4/4 307/4/4
f 294/3/4 295/3/4 308/3/4
f 307/4/4 294/4/4 308/4/4
f 295/4/4 296/4/4 309/4/4
f 308/3/4 295/3/4 309/3/4
f 296/5/4 268/5/4 310/5/4
f 309/4/4 296/4/4 310/4/4
f 303/3/4 304/3/4 311/3/4
f 306/3/4 307/3/4 311/3/4
f 309/3/4 310/3/4 311/3/4
f 302/3/4 303/3/4 311/3/4
f 304/3/4 305/3/4 311/3/4
f 299/3/4 300/3/4 311/3/4
f 300/3/4 301/3/4 311/3/4
f 298/3/4 299/3/4 311/3/4
f 255/3/4 297/3/4 311/3/4
f 305/3/4 306/3/4 311/3/4
f 308/3/4 309/3/4 311/3/4
f 301/3/4 302/3/4 311/3/4
f 307/3/4 308/3/4 311/3/4
f 297/3/4 298/3/4 311/3/4
f 311/3/4 310/3/4 312/3/4
f 312/3/4 310/3/4 313/3/4
f 313/3/4 310/3/4 314/3/4
f 314/3/4 310/3/4 315/3/4
f 315/3/4 310/3/4 316/3/4
f 316/3/4 310/3/4 317/3/4
f 317/3/4 310/3/4 318/3/4
f 318/3/4 310/3/4 319/3/4
f 319/3/4 310/3/4 320/3/4
f 320/3/4 310/3/4 321/3/4
f 321/3/4 310/3/4 322/3/4
f 322/3/4 310/3/4 323/3/4
f 310/5/4 268/5/4 324/5/4
f 323/3/4 310/3/4 324/3/4
f 254/5/4 255/5/4 325/5/4
f 255/3/4 311/3/4 325/3/4
f 311/4/4 312/4/4 326/4/4
f 325/3/4 311/3/4 326/3/4
f 312/3/4 313/3/4 327/3/4
f 326/4/4 312/4/4 327/4/4
f 313/4/4 314/4/4 328/4/4
f 327/3/4 313/3/4 328/3/4
f 314/3/4 315/3/4 329/3/4
f 328/4/4 314/4/4 329/4/4
f 315/4/4 316/4/4 330/4/4
f 329/3/4 315/3/4 330/3/4
f 316/3/4 317/3/4 331/3/4
f 330/4/4 316/4/4 331/4/4
f 317/4/4 318/4/4 332/4/4
f 331/3/4 317/3/4 332/3/4
f 318/3/4 319/3/4 333/3/4
f 332/4/4 318/4/4 333/4/4
f 319/4/4 320/4/4 334/4/4
f 333/3/4 319/3/4 334/3/4
f 320/3/4 321/3/4 335/3/4
f 334/4/4 320/4/4 335/4/4
f 321/4/4 322/4/4 336/4/4
f 335/3/4 321/3/4 336/3/4
f 322/3/4 323/3/4 337/3/4
f 336/4/4 322/4/4 337/4/4
f 323/4/4 324/4/4 338/4/4
f 337/3/4 323/3/4 338/3/4
f 324/5/4 268/5/4 339/5/4
f 338/4/4 324/4/4 339/4/4
f 337/5/4 338/5/4 340/5/4
f 335/5/4 336/5/4 340/5/4
f 338/5/4 339/5/4 340/5/4
f 334/5/4 335/5/4 340/5/4
f 333/5/4 334/5/4 340/5/4
f 332/5/4 333/5/4 340/5/4
f 331/5/4 332/5/4 340/5/4
f 330/5/4 331/5/4 340/5/4
f 329/5/4 330/5/4 340/5/4
f 328/5/4 329/5/4 340/5/4
f 327/5/4 328/5/4 340/5/4
f 326/5/4 327/5/4 340/5/4
f 325/5/4 326/5/4 340/5/4
f 254/5/4 325/5/4 340/5/4
f 336/5/4 337/5/4 340/5/4
f 339/5/4 268/5/4 341/5/4
f 340/5/4 339/5/4 341/5/4
f 342/1/4 343/1/4 349/1/4
f 349/1/4 343/1/4 350/1/4
f 350/1/4 343/1/4 351/1/4
f 344/1/4 345/1/4 352/1/4
f 345/2/4 346/2/4 353/2/4
f 352/1/4 345/1/4 353/1/4
f 353/2/4 346/2/4 354/2/4
f 347/1/4 348/1/4 355/1/4
f 355/1/4 348/1/4 356/1/4
f 350/1/4 351/1/4 357/1/4
f 351/1/4 352/1/4 357/1/4
f 357/1/4 352/1/4 358/1/4
f 352/2/4 353/2/4 359/2/4
f 358/1/4 352/1/4 359/1/4
f 359/2/4 353/2/4 360/2/4
f 347/1/4 355/1/4 361/1/4
f 361/1/4 355/1/4 362/1/4
f 356/1/4 348/1/4 363/1/4
f 363/1/4 348/1/4 364/1/4
f 358/2/4 359/2/4 365/2/4
f 365/2/4 359/2/4 366/2/4
f 369/5/5 368/5/5 367/5/5
f 370/5/5 368/5/5 369/5/5
f 373/1/5 372/1/5 371/1/5
f 374/1/5 372/1/5 373/1/5
f 375/1/5 372/1/5 374/1/5
f 379/1/5 377/1/5 376/1/5
f 379/1/5 378/1/5 377/1/5
f 380/1/5 378/1/5 379/1/5
f 383/1/5 382/1/5 381/1/5
f 384/1/5 382/1/5 383/1/5
f 387/1/5 386/1/5 385/1/5
f 388/1/5 386/1/5 387/1/5
f 391/1/5 390/1/5 389/1/5
f 392/1/5 390/1/5 391/1/5
f 395/1/5 394/1/5 393/1/5
f 396/1/5 394/1/5 395/1/5
f 399/1/5 398/1/5 397/1/5
f 400/1/5 398/1/5 399/1/5
f 403/1/5 402/1/5 401/1/5
f 404/1/5 402/1/5 403/1/5
f 407/2/5 406/2/5 405/2/5
f 408/2/5 406/2/5 407/2/5
f 411/2/5 410/2/5 409/2/5
f 412/2/5 410/2/5 411/2/5
f 415/1/5 414/1/5 413/1/5
f 416/1/5 414/1/5 415/1/5
f 419/1/5 418/1/5 417/1/5
f 420/1/5 418/1/5 419/1/5
f 421/1/6 422/1/6 423/1/6
f 423/1/6 422/1/6 424/1/6
f 425/1/6 426/1/6 427/1/6
f 427/1/6 426/1/6 428/1/6
f 429/1/6 430/1/6 431/1/6
f 431/1/6 430/1/6 432/1/6
f 432/1/6 430/1/6 433/1/6
f 434/1/6 435/1/6 437/1/6
f 435/1/6 436/1/6 437/1/6
f 437/1/6 436/1/6 438/1/6
f 439/1/6 440/1/6 441/1/6
f 441/1/6 440/1/6 442/1/6
f 443/1/6 444/1/6 445/1/6
f 445/1/6 444/1/6 446/1/6
f 447/2/6 448/2/6 449/2/6
f 449/2/6 448/2/6 450/2/6
f 451/2/6 452/2/6 453/2/6
f 453/2/6 452/2/6 454/2/6
f 455/2/6 456/2/6 457/2/6
f 457/2/6 456/2/6 458/2/6
f 459/2/6 460/2/6 461/2/6
f 461/2/6 460/2/6 462/2/6
f 463/2/6 464/2/6 465/2/6
f 465/2/6 464/2/6 466/2/6
f 467/2/6 468/2/6 469/2/6
f 469/2/6 468/2/6 470/2/6
f 471/5/6 472/5/6 473/5/6
f 473/5/6 472/5/6 474/5/6
