# MagicaVoxel @ ephtracy

# material
mtllib 03_small_door_2X.mtl
usemtl palette

# normals
vn -1 0 0
vn 1 0 0
vn 0 0 1
vn 0 0 -1
vn 0 -1 0
vn 0 1 0

# texcoords
vt 0.0449219 0.5
vt 0.0644531 0.5
vt 0.970703 0.5
vt 0.978516 0.5
vt 0.982422 0.5

# verts
v -3 0 -0
v -3 0 -1
v -3 1 -0
v -3 1 -1
v -3 2 -0
v -3 2 -1
v -3 3 -0
v -3 3 -1
v -3 4 -0
v -3 4 -1
v -3 5 -0
v -3 5 -1
v -3 6 -0
v -3 6 -1
v -3 7 -0
v -3 7 -1
v -3 8 -0
v -3 8 -1
v -3 9 1
v -3 9 -0
v -3 9 -1
v -3 10 -0
v -3 10 -1
v -3 11 1
v -3 11 -0
v -3 11 -1
v -3 12 1
v -3 12 -0
v -3 12 -1
v -3 13 1
v -3 13 -0
v -3 13 -1
v -3 14 1
v -3 14 -0
v -3 14 -1
v -3 15 -0
v -3 15 -1
v -3 16 -0
v -3 16 -1
v -2 3 1
v -2 3 -0
v -2 4 -0
v -2 5 -0
v -2 6 -0
v -2 7 -0
v -2 8 1
v -2 8 -0
v -2 11 1
v -2 11 -0
v -2 12 1
v -2 12 -0
v -2 9 1
v -2 9 -0
v -2 10 1
v -2 10 -0
v -2 13 1
v -2 13 -0
v -2 14 1
v -2 14 -0
v -1 4 1
v -1 4 -0
v -1 5 -0
v -1 6 -0
v -1 7 1
v -1 7 -0
v -1 10 1
v -1 10 -0
v -1 11 1
v -1 11 -0
v -1 12 1
v -1 12 -0
v -1 13 1
v -1 13 -0
v 0 3 1
v 0 3 -0
v 0 4 1
v 0 4 -0
v 0 7 1
v 0 7 -0
v 0 8 1
v 0 8 -0
v 0 11 1
v 0 11 -0
v 0 12 1
v 0 12 -0
v 3 0 -0
v 3 0 -1
v 3 16 -0
v 3 16 -1
v -3 9 1
v -3 11 1
v -3 12 1
v -3 13 1
v -3 14 1
v -2 3 1
v -2 8 1
v -2 9 1
v -2 10 1
v -2 11 1
v -2 12 1
v -2 13 1
v -2 14 1
v -1 4 1
v -1 7 1
v -1 10 1
v -1 11 1
v -1 12 1
v -1 13 1
v 0 3 1
v 0 4 1
v 0 7 1
v 0 8 1
v 0 11 1
v 0 12 1
v -3 0 -0
v -3 1 -0
v -3 2 -0
v -3 3 -0
v -3 4 -0
v -3 5 -0
v -3 6 -0
v -3 7 -0
v -3 8 -0
v -3 9 -0
v -3 11 -0
v -3 12 -0
v -3 14 -0
v -3 15 -0
v -3 16 -0
v -2 2 -0
v -2 3 -0
v -2 4 -0
v -2 5 -0
v -2 6 -0
v -2 7 -0
v -2 8 -0
v -2 9 -0
v -2 10 -0
v -2 11 -0
v -2 12 -0
v -2 13 -0
v -2 14 -0
v -2 15 -0
v -1 2 -0
v -1 3 -0
v -1 4 -0
v -1 5 -0
v -1 6 -0
v -1 7 -0
v -1 8 -0
v -1 9 -0
v -1 10 -0
v -1 11 -0
v -1 12 -0
v -1 13 -0
v -1 14 -0
v -1 15 -0
v 0 2 -0
v 0 3 -0
v 0 4 -0
v 0 5 -0
v 0 6 -0
v 0 7 -0
v 0 8 -0
v 0 9 -0
v 0 10 -0
v 0 11 -0
v 0 12 -0
v 0 13 -0
v 0 14 -0
v 0 15 -0
v 1 2 -0
v 1 3 -0
v 1 4 -0
v 1 5 -0
v 1 6 -0
v 1 7 -0
v 1 8 -0
v 1 9 -0
v 1 10 -0
v 1 11 -0
v 1 12 -0
v 1 13 -0
v 1 14 -0
v 1 15 -0
v 2 1 -0
v 2 2 -0
v 2 3 -0
v 2 4 -0
v 2 5 -0
v 2 6 -0
v 2 7 -0
v 2 8 -0
v 2 9 -0
v 2 10 -0
v 2 11 -0
v 2 12 -0
v 2 13 -0
v 2 14 -0
v 2 15 -0
v 3 0 -0
v 3 16 -0
v -3 0 -1
v -3 1 -1
v -3 2 -1
v -3 3 -1
v -3 4 -1
v -3 5 -1
v -3 6 -1
v -3 7 -1
v -3 8 -1
v -3 9 -1
v -3 10 -1
v -3 11 -1
v -3 12 -1
v -3 13 -1
v -3 14 -1
v -3 15 -1
v -3 16 -1
v -2 2 -1
v -2 3 -1
v -2 4 -1
v -2 5 -1
v -2 6 -1
v -2 7 -1
v -2 8 -1
v -2 9 -1
v -2 10 -1
v -2 11 -1
v -2 12 -1
v -2 13 -1
v -2 14 -1
v -2 15 -1
v -1 2 -1
v -1 3 -1
v -1 4 -1
v -1 5 -1
v -1 6 -1
v -1 7 -1
v -1 8 -1
v -1 9 -1
v -1 10 -1
v -1 11 -1
v -1 12 -1
v -1 13 -1
v -1 14 -1
v -1 15 -1
v 0 2 -1
v 0 3 -1
v 0 4 -1
v 0 5 -1
v 0 6 -1
v 0 7 -1
v 0 8 -1
v 0 9 -1
v 0 10 -1
v 0 11 -1
v 0 12 -1
v 0 13 -1
v 0 14 -1
v 0 15 -1
v 1 2 -1
v 1 3 -1
v 1 4 -1
v 1 5 -1
v 1 6 -1
v 1 7 -1
v 1 8 -1
v 1 9 -1
v 1 10 -1
v 1 11 -1
v 1 12 -1
v 1 13 -1
v 1 14 -1
v 1 15 -1
v 2 1 -1
v 2 2 -1
v 2 3 -1
v 2 4 -1
v 2 5 -1
v 2 6 -1
v 2 7 -1
v 2 8 -1
v 2 9 -1
v 2 10 -1
v 2 11 -1
v 2 12 -1
v 2 13 -1
v 2 14 -1
v 2 15 -1
v 3 0 -1
v 3 16 -1
v -3 0 -0
v 3 0 -0
v -3 0 -1
v 3 0 -1
v -2 3 1
v 0 3 1
v -2 3 -0
v -1 3 -0
v 0 3 -0
v -1 7 1
v 0 7 1
v -1 7 -0
v 0 7 -0
v -3 9 1
v -2 9 1
v -3 9 -0
v -2 9 -0
v -2 10 1
v -1 10 1
v -2 10 -0
v -1 10 -0
v -1 11 1
v 0 11 1
v -1 11 -0
v 0 11 -0
v -3 12 1
v -2 12 1
v -3 12 -0
v -2 12 -0
v -1 4 1
v 0 4 1
v -1 4 -0
v 0 4 -0
v -2 8 1
v 0 8 1
v -2 8 -0
v -1 8 -0
v 0 8 -0
v -3 11 1
v -2 11 1
v -3 11 -0
v -2 11 -0
v -1 12 1
v 0 12 1
v -1 12 -0
v 0 12 -0
v -2 13 1
v -1 13 1
v -2 13 -0
v -1 13 -0
v -3 14 1
v -2 14 1
v -3 14 -0
v -2 14 -0
v -3 16 -0
v 3 16 -0
v -3 16 -1
v 3 16 -1

# faces
f 3/5/1 2/5/1 1/5/1
f 4/5/1 2/5/1 3/5/1
f 5/3/1 4/3/1 3/3/1
f 6/3/1 4/3/1 5/3/1
f 7/4/1 6/4/1 5/4/1
f 8/4/1 6/4/1 7/4/1
f 9/3/1 8/3/1 7/3/1
f 10/3/1 8/3/1 9/3/1
f 11/4/1 10/4/1 9/4/1
f 12/4/1 10/4/1 11/4/1
f 13/3/1 12/3/1 11/3/1
f 14/3/1 12/3/1 13/3/1
f 15/4/1 14/4/1 13/4/1
f 16/4/1 14/4/1 15/4/1
f 17/3/1 16/3/1 15/3/1
f 18/3/1 16/3/1 17/3/1
f 20/4/1 18/4/1 17/4/1
f 21/4/1 18/4/1 20/4/1
f 22/1/1 20/1/1 19/1/1
f 22/3/1 21/3/1 20/3/1
f 23/3/1 21/3/1 22/3/1
f 24/1/1 22/1/1 19/1/1
f 25/4/1 23/4/1 22/4/1
f 25/1/1 22/1/1 24/1/1
f 26/4/1 23/4/1 25/4/1
f 28/3/1 26/3/1 25/3/1
f 29/3/1 26/3/1 28/3/1
f 30/1/1 28/1/1 27/1/1
f 31/4/1 29/4/1 28/4/1
f 31/1/1 28/1/1 30/1/1
f 32/4/1 29/4/1 31/4/1
f 33/2/1 31/2/1 30/2/1
f 34/3/1 32/3/1 31/3/1
f 34/2/1 31/2/1 33/2/1
f 35/3/1 32/3/1 34/3/1
f 36/4/1 35/4/1 34/4/1
f 37/4/1 35/4/1 36/4/1
f 38/5/1 37/5/1 36/5/1
f 39/5/1 37/5/1 38/5/1
f 42/1/1 41/1/1 40/1/1
f 43/1/1 42/1/1 40/1/1
f 44/1/1 43/1/1 40/1/1
f 45/1/1 44/1/1 40/1/1
f 46/1/1 45/1/1 40/1/1
f 47/1/1 45/1/1 46/1/1
f 50/1/1 49/1/1 48/1/1
f 51/1/1 49/1/1 50/1/1
f 52/1/2 53/1/2 54/1/2
f 54/1/2 53/1/2 55/1/2
f 56/2/2 57/2/2 58/2/2
f 58/2/2 57/2/2 59/2/2
f 60/1/2 61/1/2 62/1/2
f 60/1/2 62/1/2 63/1/2
f 60/1/2 63/1/2 64/1/2
f 64/1/2 63/1/2 65/1/2
f 66/1/2 67/1/2 68/1/2
f 68/1/2 67/1/2 69/1/2
f 70/2/2 71/2/2 72/2/2
f 72/2/2 71/2/2 73/2/2
f 74/1/2 75/1/2 76/1/2
f 76/1/2 75/1/2 77/1/2
f 78/1/2 79/1/2 80/1/2
f 80/1/2 79/1/2 81/1/2
f 82/2/2 83/2/2 84/2/2
f 84/2/2 83/2/2 85/2/2
f 86/5/2 87/5/2 88/5/2
f 88/5/2 87/5/2 89/5/2
f 97/1/3 91/1/3 90/1/3
f 98/1/3 91/1/3 97/1/3
f 99/1/3 91/1/3 98/1/3
f 100/1/3 93/1/3 92/1/3
f 101/2/3 94/2/3 93/2/3
f 101/1/3 93/1/3 100/1/3
f 102/2/3 94/2/3 101/2/3
f 103/1/3 96/1/3 95/1/3
f 104/1/3 96/1/3 103/1/3
f 105/1/3 99/1/3 98/1/3
f 105/1/3 100/1/3 99/1/3
f 106/1/3 100/1/3 105/1/3
f 107/2/3 101/2/3 100/2/3
f 107/1/3 100/1/3 106/1/3
f 108/2/3 101/2/3 107/2/3
f 109/1/3 103/1/3 95/1/3
f 110/1/3 103/1/3 109/1/3
f 111/1/3 96/1/3 104/1/3
f 112/1/3 96/1/3 111/1/3
f 113/2/3 107/2/3 106/2/3
f 114/2/3 107/2/3 113/2/3
f 130/3/3 117/3/3 116/3/3
f 130/4/3 118/4/3 117/4/3
f 131/3/3 119/3/3 118/3/3
f 131/4/3 118/4/3 130/4/3
f 132/4/3 120/4/3 119/4/3
f 132/3/3 119/3/3 131/3/3
f 133/3/3 121/3/3 120/3/3
f 133/4/3 120/4/3 132/4/3
f 134/4/3 122/4/3 121/4/3
f 134/3/3 121/3/3 133/3/3
f 135/3/3 123/3/3 122/3/3
f 135/4/3 122/4/3 134/4/3
f 136/4/3 124/4/3 123/4/3
f 136/3/3 123/3/3 135/3/3
f 137/4/3 124/4/3 136/4/3
f 139/3/3 126/3/3 125/3/3
f 140/3/3 126/3/3 139/3/3
f 142/4/3 128/4/3 127/4/3
f 143/5/3 129/5/3 128/5/3
f 143/4/3 128/4/3 142/4/3
f 144/3/3 130/3/3 116/3/3
f 144/3/3 131/3/3 130/3/3
f 145/3/3 131/3/3 144/3/3
f 150/3/3 137/3/3 136/3/3
f 150/3/3 138/3/3 137/3/3
f 151/3/3 138/3/3 150/3/3
f 152/3/3 138/3/3 151/3/3
f 155/3/3 142/3/3 141/3/3
f 155/3/3 143/3/3 142/3/3
f 156/3/3 143/3/3 155/3/3
f 157/5/3 129/5/3 143/5/3
f 157/3/3 143/3/3 156/3/3
f 158/3/3 144/3/3 116/3/3
f 158/4/3 145/4/3 144/4/3
f 159/4/3 145/4/3 158/4/3
f 160/4/3 147/4/3 146/4/3
f 161/3/3 148/3/3 147/3/3
f 161/4/3 147/4/3 160/4/3
f 162/4/3 149/4/3 148/4/3
f 162/3/3 148/3/3 161/3/3
f 163/4/3 149/4/3 162/4/3
f 164/4/3 151/4/3 150/4/3
f 165/3/3 152/3/3 151/3/3
f 165/4/3 151/4/3 164/4/3
f 166/4/3 153/4/3 152/4/3
f 166/3/3 152/3/3 165/3/3
f 167/4/3 153/4/3 166/4/3
f 168/4/3 155/4/3 154/4/3
f 169/3/3 156/3/3 155/3/3
f 169/4/3 155/4/3 168/4/3
f 170/4/3 157/4/3 156/4/3
f 170/3/3 156/3/3 169/3/3
f 171/5/3 129/5/3 157/5/3
f 171/4/3 157/4/3 170/4/3
f 172/3/3 165/3/3 164/3/3
f 172/3/3 168/3/3 167/3/3
f 172/3/3 171/3/3 170/3/3
f 172/3/3 164/3/3 163/3/3
f 172/3/3 166/3/3 165/3/3
f 172/3/3 161/3/3 160/3/3
f 172/3/3 162/3/3 161/3/3
f 172/3/3 160/3/3 159/3/3
f 172/3/3 158/3/3 116/3/3
f 172/3/3 167/3/3 166/3/3
f 172/3/3 170/3/3 169/3/3
f 172/3/3 163/3/3 162/3/3
f 172/3/3 169/3/3 168/3/3
f 172/3/3 159/3/3 158/3/3
f 173/3/3 171/3/3 172/3/3
f 174/3/3 171/3/3 173/3/3
f 175/3/3 171/3/3 174/3/3
f 176/3/3 171/3/3 175/3/3
f 177/3/3 171/3/3 176/3/3
f 178/3/3 171/3/3 177/3/3
f 179/3/3 171/3/3 178/3/3
f 180/3/3 171/3/3 179/3/3
f 181/3/3 171/3/3 180/3/3
f 182/3/3 171/3/3 181/3/3
f 183/3/3 171/3/3 182/3/3
f 184/3/3 171/3/3 183/3/3
f 185/5/3 129/5/3 171/5/3
f 185/3/3 171/3/3 184/3/3
f 186/5/3 116/5/3 115/5/3
f 186/3/3 172/3/3 116/3/3
f 187/4/3 173/4/3 172/4/3
f 187/3/3 172/3/3 186/3/3
f 188/3/3 174/3/3 173/3/3
f 188/4/3 173/4/3 187/4/3
f 189/4/3 175/4/3 174/4/3
f 189/3/3 174/3/3 188/3/3
f 190/3/3 176/3/3 175/3/3
f 190/4/3 175/4/3 189/4/3
f 191/4/3 177/4/3 176/4/3
f 191/3/3 176/3/3 190/3/3
f 192/3/3 178/3/3 177/3/3
f 192/4/3 177/4/3 191/4/3
f 193/4/3 179/4/3 178/4/3
f 193/3/3 178/3/3 192/3/3
f 194/3/3 180/3/3 179/3/3
f 194/4/3 179/4/3 193/4/3
f 195/4/3 181/4/3 180/4/3
f 195/3/3 180/3/3 194/3/3
f 196/3/3 182/3/3 181/3/3
f 196/4/3 181/4/3 195/4/3
f 197/4/3 183/4/3 182/4/3
f 197/3/3 182/3/3 196/3/3
f 198/3/3 184/3/3 183/3/3
f 198/4/3 183/4/3 197/4/3
f 199/4/3 185/4/3 184/4/3
f 199/3/3 184/3/3 198/3/3
f 200/5/3 129/5/3 185/5/3
f 200/4/3 185/4/3 199/4/3
f 201/5/3 199/5/3 198/5/3
f 201/5/3 197/5/3 196/5/3
f 201/5/3 200/5/3 199/5/3
f 201/5/3 196/5/3 195/5/3
f 201/5/3 195/5/3 194/5/3
f 201/5/3 194/5/3 193/5/3
f 201/5/3 193/5/3 192/5/3
f 201/5/3 192/5/3 191/5/3
f 201/5/3 191/5/3 190/5/3
f 201/5/3 190/5/3 189/5/3
f 201/5/3 189/5/3 188/5/3
f 201/5/3 188/5/3 187/5/3
f 201/5/3 187/5/3 186/5/3
f 201/5/3 186/5/3 115/5/3
f 201/5/3 198/5/3 197/5/3
f 202/5/3 129/5/3 200/5/3
f 202/5/3 200/5/3 201/5/3
f 204/3/4 205/3/4 220/3/4
f 205/4/4 206/4/4 220/4/4
f 206/3/4 207/3/4 221/3/4
f 220/4/4 206/4/4 221/4/4
f 207/4/4 208/4/4 222/4/4
f 221/3/4 207/3/4 222/3/4
f 208/3/4 209/3/4 223/3/4
f 222/4/4 208/4/4 223/4/4
f 209/4/4 210/4/4 224/4/4
f 223/3/4 209/3/4 224/3/4
f 210/3/4 211/3/4 225/3/4
f 224/4/4 210/4/4 225/4/4
f 211/4/4 212/4/4 226/4/4
f 225/3/4 211/3/4 226/3/4
f 212/3/4 213/3/4 227/3/4
f 226/4/4 212/4/4 227/4/4
f 213/4/4 214/4/4 228/4/4
f 227/3/4 213/3/4 228/3/4
f 214/3/4 215/3/4 229/3/4
f 228/4/4 214/4/4 229/4/4
f 215/4/4 216/4/4 230/4/4
f 229/3/4 215/3/4 230/3/4
f 216/3/4 217/3/4 231/3/4
f 230/4/4 216/4/4 231/4/4
f 217/4/4 218/4/4 232/4/4
f 231/3/4 217/3/4 232/3/4
f 218/5/4 219/5/4 233/5/4
f 232/4/4 218/4/4 233/4/4
f 231/3/4 232/3/4 234/3/4
f 230/3/4 231/3/4 234/3/4
f 232/3/4 233/3/4 234/3/4
f 229/3/4 230/3/4 234/3/4
f 228/3/4 229/3/4 234/3/4
f 227/3/4 228/3/4 234/3/4
f 226/3/4 227/3/4 234/3/4
f 225/3/4 226/3/4 234/3/4
f 224/3/4 225/3/4 234/3/4
f 223/3/4 224/3/4 234/3/4
f 222/3/4 223/3/4 234/3/4
f 221/3/4 222/3/4 234/3/4
f 220/3/4 221/3/4 234/3/4
f 204/3/4 220/3/4 234/3/4
f 234/3/4 233/3/4 235/3/4
f 235/3/4 233/3/4 236/3/4
f 236/3/4 233/3/4 237/3/4
f 237/3/4 233/3/4 238/3/4
f 238/3/4 233/3/4 239/3/4
f 239/3/4 233/3/4 240/3/4
f 240/3/4 233/3/4 241/3/4
f 241/3/4 233/3/4 242/3/4
f 242/3/4 233/3/4 243/3/4
f 243/3/4 233/3/4 244/3/4
f 244/3/4 233/3/4 245/3/4
f 245/3/4 233/3/4 246/3/4
f 233/5/4 219/5/4 247/5/4
f 246/3/4 233/3/4 247/3/4
f 204/3/4 234/3/4 248/3/4
f 234/4/4 235/4/4 248/4/4
f 235/3/4 236/3/4 249/3/4
f 248/4/4 235/4/4 249/4/4
f 236/4/4 237/4/4 250/4/4
f 249/3/4 236/3/4 250/3/4
f 237/3/4 238/3/4 251/3/4
f 250/4/4 237/4/4 251/4/4
f 238/4/4 239/4/4 252/4/4
f 251/3/4 238/3/4 252/3/4
f 239/3/4 240/3/4 253/3/4
f 252/4/4 239/4/4 253/4/4
f 240/4/4 241/4/4 254/4/4
f 253/3/4 240/3/4 254/3/4
f 241/3/4 242/3/4 255/3/4
f 254/4/4 241/4/4 255/4/4
f 242/4/4 243/4/4 256/4/4
f 255/3/4 242/3/4 256/3/4
f 243/3/4 244/3/4 257/3/4
f 256/4/4 243/4/4 257/4/4
f 244/4/4 245/4/4 258/4/4
f 257/3/4 244/3/4 258/3/4
f 245/3/4 246/3/4 259/3/4
f 258/4/4 245/4/4 259/4/4
f 246/4/4 247/4/4 260/4/4
f 259/3/4 246/3/4 260/3/4
f 247/5/4 219/5/4 261/5/4
f 260/4/4 247/4/4 261/4/4
f 257/3/4 258/3/4 262/3/4
f 259/3/4 260/3/4 262/3/4
f 260/3/4 261/3/4 262/3/4
f 256/3/4 257/3/4 262/3/4
f 255/3/4 256/3/4 262/3/4
f 254/3/4 255/3/4 262/3/4
f 253/3/4 254/3/4 262/3/4
f 252/3/4 253/3/4 262/3/4
f 251/3/4 252/3/4 262/3/4
f 250/3/4 251/3/4 262/3/4
f 249/3/4 250/3/4 262/3/4
f 248/3/4 249/3/4 262/3/4
f 204/3/4 248/3/4 262/3/4
f 258/3/4 259/3/4 262/3/4
f 262/3/4 261/3/4 263/3/4
f 263/3/4 261/3/4 264/3/4
f 264/3/4 261/3/4 265/3/4
f 265/3/4 261/3/4 266/3/4
f 266/3/4 261/3/4 267/3/4
f 267/3/4 261/3/4 268/3/4
f 268/3/4 261/3/4 269/3/4
f 269/3/4 261/3/4 270/3/4
f 270/3/4 261/3/4 271/3/4
f 271/3/4 261/3/4 272/3/4
f 272/3/4 261/3/4 273/3/4
f 273/3/4 261/3/4 274/3/4
f 261/5/4 219/5/4 275/5/4
f 274/3/4 261/3/4 275/3/4
f 203/5/4 204/5/4 276/5/4
f 204/3/4 262/3/4 276/3/4
f 262/4/4 263/4/4 277/4/4
f 276/3/4 262/3/4 277/3/4
f 263/3/4 264/3/4 278/3/4
f 277/4/4 263/4/4 278/4/4
f 264/4/4 265/4/4 279/4/4
f 278/3/4 264/3/4 279/3/4
f 265/3/4 266/3/4 280/3/4
f 279/4/4 265/4/4 280/4/4
f 266/4/4 267/4/4 281/4/4
f 280/3/4 266/3/4 281/3/4
f 267/3/4 268/3/4 282/3/4
f 281/4/4 267/4/4 282/4/4
f 268/4/4 269/4/4 283/4/4
f 282/3/4 268/3/4 283/3/4
f 269/3/4 270/3/4 284/3/4
f 283/4/4 269/4/4 284/4/4
f 270/4/4 271/4/4 285/4/4
f 284/3/4 270/3/4 285/3/4
f 271/3/4 272/3/4 286/3/4
f 285/4/4 271/4/4 286/4/4
f 272/4/4 273/4/4 287/4/4
f 286/3/4 272/3/4 287/3/4
f 273/3/4 274/3/4 288/3/4
f 287/4/4 273/4/4 288/4/4
f 274/4/4 275/4/4 289/4/4
f 288/3/4 274/3/4 289/3/4
f 275/5/4 219/5/4 290/5/4
f 289/4/4 275/4/4 290/4/4
f 288/5/4 289/5/4 291/5/4
f 286/5/4 287/5/4 291/5/4
f 289/5/4 290/5/4 291/5/4
f 285/5/4 286/5/4 291/5/4
f 284/5/4 285/5/4 291/5/4
f 283/5/4 284/5/4 291/5/4
f 282/5/4 283/5/4 291/5/4
f 281/5/4 282/5/4 291/5/4
f 280/5/4 281/5/4 291/5/4
f 279/5/4 280/5/4 291/5/4
f 278/5/4 279/5/4 291/5/4
f 277/5/4 278/5/4 291/5/4
f 276/5/4 277/5/4 291/5/4
f 203/5/4 276/5/4 291/5/4
f 287/5/4 288/5/4 291/5/4
f 290/5/4 219/5/4 292/5/4
f 291/5/4 290/5/4 292/5/4
f 295/5/5 294/5/5 293/5/5
f 296/5/5 294/5/5 295/5/5
f 299/1/5 298/1/5 297/1/5
f 300/1/5 298/1/5 299/1/5
f 301/1/5 298/1/5 300/1/5
f 304/1/5 303/1/5 302/1/5
f 305/1/5 303/1/5 304/1/5
f 308/1/5 307/1/5 306/1/5
f 309/1/5 307/1/5 308/1/5
f 312/1/5 311/1/5 310/1/5
f 313/1/5 311/1/5 312/1/5
f 316/2/5 315/2/5 314/2/5
f 317/2/5 315/2/5 316/2/5
f 320/1/5 319/1/5 318/1/5
f 321/1/5 319/1/5 320/1/5
f 322/1/6 323/1/6 324/1/6
f 324/1/6 323/1/6 325/1/6
f 326/1/6 327/1/6 328/1/6
f 328/1/6 327/1/6 329/1/6
f 329/1/6 327/1/6 330/1/6
f 331/1/6 332/1/6 333/1/6
f 333/1/6 332/1/6 334/1/6
f 335/2/6 336/2/6 337/2/6
f 337/2/6 336/2/6 338/2/6
f 339/2/6 340/2/6 341/2/6
f 341/2/6 340/2/6 342/2/6
f 343/2/6 344/2/6 345/2/6
f 345/2/6 344/2/6 346/2/6
f 347/5/6 348/5/6 349/5/6
f 349/5/6 348/5/6 350/5/6
