# MagicaVoxel @ ephtracy

# material
mtllib 04_cave_02_octopus_door_2X.mtl
usemtl palette

# normals
vn -1 0 0
vn 1 0 0
vn 0 0 1
vn 0 0 -1
vn 0 -1 0
vn 0 1 0

# texcoords
vt 0.00195313 0.5
vt 0.00585938 0.5
vt 0.00976563 0.5

# verts
v -10 0 -0
v -10 0 -1
v -10 26 -0
v -10 26 -1
v -9 1 1
v -9 1 -0
v -9 1 -1
v -9 1 -2
v -9 25 1
v -9 25 -0
v -9 25 -1
v -9 25 -2
v -7 3 2
v -7 3 1
v -7 5 2
v -7 5 1
v -7 21 2
v -7 21 1
v -7 23 2
v -7 23 1
v -5 5 2
v -5 5 1
v -5 21 2
v -5 21 1
v -4 26 -0
v -4 26 -1
v -4 29 -0
v -4 29 -1
v -3 25 1
v -3 25 -0
v -3 25 -1
v -3 25 -2
v -3 28 1
v -3 28 -0
v -3 28 -1
v -3 28 -2
v 3 3 2
v 3 3 1
v 3 23 2
v 3 23 1
v -3 3 2
v -3 3 1
v -3 23 2
v -3 23 1
v 3 25 1
v 3 25 -0
v 3 25 -1
v 3 25 -2
v 3 28 1
v 3 28 -0
v 3 28 -1
v 3 28 -2
v 4 26 -0
v 4 26 -1
v 4 29 -0
v 4 29 -1
v 5 5 2
v 5 5 1
v 5 21 2
v 5 21 1
v 7 3 2
v 7 3 1
v 7 5 2
v 7 5 1
v 7 21 2
v 7 21 1
v 7 23 2
v 7 23 1
v 9 1 1
v 9 1 -0
v 9 1 -1
v 9 1 -2
v 9 25 1
v 9 25 -0
v 9 25 -1
v 9 25 -2
v 10 0 -0
v 10 0 -1
v 10 26 -0
v 10 26 -1
v -7 3 2
v -7 5 2
v -7 21 2
v -7 23 2
v -5 5 2
v -5 21 2
v -3 3 2
v -3 23 2
v 3 3 2
v 3 23 2
v 5 5 2
v 5 21 2
v 7 3 2
v 7 5 2
v 7 21 2
v 7 23 2
v -9 1 1
v -9 25 1
v -7 3 1
v -7 5 1
v -7 21 1
v -7 23 1
v -5 5 1
v -5 21 1
v -3 3 1
v -3 23 1
v -3 25 1
v -3 28 1
v 3 3 1
v 3 23 1
v 3 25 1
v 3 28 1
v 5 5 1
v 5 21 1
v 7 3 1
v 7 5 1
v 7 21 1
v 7 23 1
v 9 1 1
v 9 25 1
v -10 0 -0
v -10 26 -0
v -9 1 -0
v -9 25 -0
v -4 26 -0
v -4 29 -0
v -3 25 -0
v -3 28 -0
v 3 25 -0
v 3 28 -0
v 4 26 -0
v 4 29 -0
v 9 1 -0
v 9 25 -0
v 10 0 -0
v 10 26 -0
v -10 0 -1
v -10 26 -1
v -9 1 -1
v -9 25 -1
v -4 26 -1
v -4 29 -1
v -3 25 -1
v -3 28 -1
v 3 25 -1
v 3 28 -1
v 4 26 -1
v 4 29 -1
v 9 1 -1
v 9 25 -1
v 10 0 -1
v 10 26 -1
v -9 1 -2
v -9 25 -2
v -3 25 -2
v -3 28 -2
v 3 25 -2
v 3 28 -2
v 9 1 -2
v 9 25 -2
v -10 0 -0
v 10 0 -0
v -10 0 -1
v 10 0 -1
v -9 1 1
v 9 1 1
v -9 1 -0
v 9 1 -0
v -9 1 -1
v 9 1 -1
v -9 1 -2
v 9 1 -2
v -7 3 2
v -3 3 2
v 3 3 2
v 7 3 2
v -7 3 1
v -3 3 1
v 3 3 1
v 7 3 1
v -7 21 2
v -5 21 2
v 5 21 2
v 7 21 2
v -7 21 1
v -5 21 1
v 5 21 1
v 7 21 1
v -7 5 2
v -5 5 2
v 5 5 2
v 7 5 2
v -7 5 1
v -5 5 1
v 5 5 1
v 7 5 1
v -7 23 2
v -3 23 2
v 3 23 2
v 7 23 2
v -7 23 1
v -3 23 1
v 3 23 1
v 7 23 1
v -9 25 1
v -3 25 1
v 3 25 1
v 9 25 1
v -9 25 -0
v -3 25 -0
v 3 25 -0
v 9 25 -0
v -9 25 -1
v -3 25 -1
v 3 25 -1
v 9 25 -1
v -9 25 -2
v -3 25 -2
v 3 25 -2
v 9 25 -2
v -10 26 -0
v -4 26 -0
v 4 26 -0
v 10 26 -0
v -10 26 -1
v -4 26 -1
v 4 26 -1
v 10 26 -1
v -3 28 1
v 3 28 1
v -3 28 -0
v 3 28 -0
v -3 28 -1
v 3 28 -1
v -3 28 -2
v 3 28 -2
v -4 29 -0
v 4 29 -0
v -4 29 -1
v 4 29 -1

# faces
f 3/1/1 2/1/1 1/1/1
f 4/1/1 2/1/1 3/1/1
f 9/2/1 6/2/1 5/2/1
f 10/2/1 6/2/1 9/2/1
f 11/2/1 8/2/1 7/2/1
f 12/2/1 8/2/1 11/2/1
f 15/3/1 14/3/1 13/3/1
f 16/3/1 14/3/1 15/3/1
f 19/3/1 18/3/1 17/3/1
f 20/3/1 18/3/1 19/3/1
f 23/3/1 22/3/1 21/3/1
f 24/3/1 22/3/1 23/3/1
f 27/1/1 26/1/1 25/1/1
f 28/1/1 26/1/1 27/1/1
f 33/2/1 30/2/1 29/2/1
f 34/2/1 30/2/1 33/2/1
f 35/2/1 32/2/1 31/2/1
f 36/2/1 32/2/1 35/2/1
f 39/3/1 38/3/1 37/3/1
f 40/3/1 38/3/1 39/3/1
f 41/3/2 42/3/2 43/3/2
f 43/3/2 42/3/2 44/3/2
f 45/2/2 46/2/2 49/2/2
f 49/2/2 46/2/2 50/2/2
f 47/2/2 48/2/2 51/2/2
f 51/2/2 48/2/2 52/2/2
f 53/1/2 54/1/2 55/1/2
f 55/1/2 54/1/2 56/1/2
f 57/3/2 58/3/2 59/3/2
f 59/3/2 58/3/2 60/3/2
f 61/3/2 62/3/2 63/3/2
f 63/3/2 62/3/2 64/3/2
f 65/3/2 66/3/2 67/3/2
f 67/3/2 66/3/2 68/3/2
f 69/2/2 70/2/2 73/2/2
f 73/2/2 70/2/2 74/2/2
f 71/2/2 72/2/2 75/2/2
f 75/2/2 72/2/2 76/2/2
f 77/1/2 78/1/2 79/1/2
f 79/1/2 78/1/2 80/1/2
f 85/3/3 82/3/3 81/3/3
f 86/3/3 84/3/3 83/3/3
f 87/3/3 85/3/3 81/3/3
f 87/3/3 86/3/3 85/3/3
f 88/3/3 84/3/3 86/3/3
f 88/3/3 86/3/3 87/3/3
f 91/3/3 90/3/3 89/3/3
f 92/3/3 90/3/3 91/3/3
f 93/3/3 91/3/3 89/3/3
f 94/3/3 91/3/3 93/3/3
f 95/3/3 90/3/3 92/3/3
f 96/3/3 90/3/3 95/3/3
f 99/2/3 98/2/3 97/2/3
f 100/2/3 98/2/3 99/2/3
f 101/2/3 98/2/3 100/2/3
f 102/2/3 98/2/3 101/2/3
f 103/2/3 101/2/3 100/2/3
f 104/2/3 101/2/3 103/2/3
f 105/2/3 99/2/3 97/2/3
f 106/2/3 98/2/3 102/2/3
f 107/2/3 98/2/3 106/2/3
f 109/2/3 105/2/3 97/2/3
f 109/2/3 108/2/3 107/2/3
f 109/2/3 107/2/3 106/2/3
f 109/2/3 106/2/3 105/2/3
f 110/2/3 108/2/3 109/2/3
f 111/2/3 108/2/3 110/2/3
f 112/2/3 108/2/3 111/2/3
f 115/2/3 109/2/3 97/2/3
f 116/2/3 114/2/3 113/2/3
f 117/2/3 114/2/3 116/2/3
f 118/2/3 111/2/3 110/2/3
f 119/2/3 115/2/3 97/2/3
f 119/2/3 118/2/3 117/2/3
f 119/2/3 117/2/3 116/2/3
f 119/2/3 116/2/3 115/2/3
f 120/2/3 111/2/3 118/2/3
f 120/2/3 118/2/3 119/2/3
f 123/1/3 122/1/3 121/1/3
f 124/1/3 122/1/3 123/1/3
f 125/1/3 122/1/3 124/1/3
f 127/1/3 125/1/3 124/1/3
f 127/1/3 126/1/3 125/1/3
f 128/1/3 126/1/3 127/1/3
f 130/1/3 126/1/3 128/1/3
f 131/1/3 130/1/3 129/1/3
f 132/1/3 126/1/3 130/1/3
f 132/1/3 130/1/3 131/1/3
f 133/1/3 123/1/3 121/1/3
f 134/1/3 131/1/3 129/1/3
f 135/1/3 133/1/3 121/1/3
f 135/1/3 134/1/3 133/1/3
f 136/1/3 131/1/3 134/1/3
f 136/1/3 134/1/3 135/1/3
f 137/1/4 138/1/4 139/1/4
f 139/1/4 138/1/4 140/1/4
f 140/1/4 138/1/4 141/1/4
f 140/1/4 141/1/4 143/1/4
f 141/1/4 142/1/4 143/1/4
f 143/1/4 142/1/4 144/1/4
f 144/1/4 142/1/4 146/1/4
f 145/1/4 146/1/4 147/1/4
f 146/1/4 142/1/4 148/1/4
f 147/1/4 146/1/4 148/1/4
f 137/1/4 139/1/4 149/1/4
f 145/1/4 147/1/4 150/1/4
f 137/1/4 149/1/4 151/1/4
f 149/1/4 150/1/4 151/1/4
f 150/1/4 147/1/4 152/1/4
f 151/1/4 150/1/4 152/1/4
f 153/2/4 154/2/4 155/2/4
f 153/2/4 155/2/4 157/2/4
f 155/2/4 156/2/4 157/2/4
f 157/2/4 156/2/4 158/2/4
f 153/2/4 157/2/4 159/2/4
f 159/2/4 157/2/4 160/2/4
f 163/1/5 162/1/5 161/1/5
f 164/1/5 162/1/5 163/1/5
f 167/2/5 166/2/5 165/2/5
f 168/2/5 166/2/5 167/2/5
f 171/2/5 170/2/5 169/2/5
f 172/2/5 170/2/5 171/2/5
f 177/3/5 174/3/5 173/3/5
f 178/3/5 174/3/5 177/3/5
f 179/3/5 176/3/5 175/3/5
f 180/3/5 176/3/5 179/3/5
f 185/3/5 182/3/5 181/3/5
f 186/3/5 182/3/5 185/3/5
f 187/3/5 184/3/5 183/3/5
f 188/3/5 184/3/5 187/3/5
f 189/3/6 190/3/6 193/3/6
f 193/3/6 190/3/6 194/3/6
f 191/3/6 192/3/6 195/3/6
f 195/3/6 192/3/6 196/3/6
f 197/3/6 198/3/6 201/3/6
f 201/3/6 198/3/6 202/3/6
f 199/3/6 200/3/6 203/3/6
f 203/3/6 200/3/6 204/3/6
f 205/2/6 206/2/6 209/2/6
f 209/2/6 206/2/6 210/2/6
f 207/2/6 208/2/6 211/2/6
f 211/2/6 208/2/6 212/2/6
f 213/2/6 214/2/6 217/2/6
f 217/2/6 214/2/6 218/2/6
f 215/2/6 216/2/6 219/2/6
f 219/2/6 216/2/6 220/2/6
f 221/1/6 222/1/6 225/1/6
f 225/1/6 222/1/6 226/1/6
f 223/1/6 224/1/6 227/1/6
f 227/1/6 224/1/6 228/1/6
f 229/2/6 230/2/6 231/2/6
f 231/2/6 230/2/6 232/2/6
f 233/2/6 234/2/6 235/2/6
f 235/2/6 234/2/6 236/2/6
f 237/1/6 238/1/6 239/1/6
f 239/1/6 238/1/6 240/1/6
