# MagicaVoxel @ ephtracy

# material
mtllib 06_poster02_garden_2X.mtl
usemtl palette

# normals
vn -1 0 0
vn 1 0 0
vn 0 0 1
vn 0 0 -1
vn 0 -1 0
vn 0 1 0

# texcoords
vt 0.00976563 0.5
vt 0.0214844 0.5
vt 0.0527344 0.5
vt 0.0644531 0.5
vt 0.0683594 0.5
vt 0.103516 0.5
vt 0.107422 0.5
vt 0.126953 0.5
vt 0.130859 0.5
vt 0.134766 0.5
vt 0.177734 0.5
vt 0.310547 0.5

# verts
v -12 0 0.5
v -12 0 -0.5
v -12 6 0.5
v -12 6 -0.5
v -12 9 0.5
v -12 9 -0.5
v -12 14 0.5
v -12 14 -0.5
v -12 24 0.5
v -12 24 -0.5
v 12 0 0.5
v 12 0 -0.5
v 12 6 0.5
v 12 6 -0.5
v 12 9 0.5
v 12 9 -0.5
v 12 14 0.5
v 12 14 -0.5
v 12 24 0.5
v 12 24 -0.5
v -12 0 0.5
v -12 6 0.5
v -12 9 0.5
v -12 14 0.5
v -12 24 0.5
v -11 8 0.5
v -11 9 0.5
v -11 14 0.5
v -11 19 0.5
v -10 5 0.5
v -10 6 0.5
v -10 8 0.5
v -10 9 0.5
v -10 12 0.5
v -10 19 0.5
v -10 21 0.5
v -9 5 0.5
v -9 6 0.5
v -9 8 0.5
v -9 9 0.5
v -9 12 0.5
v -9 17 0.5
v -9 21 0.5
v -8 3 0.5
v -8 6 0.5
v -8 8 0.5
v -8 12 0.5
v -8 14 0.5
v -8 17 0.5
v -7 12 0.5
v -7 14 0.5
v -7 19 0.5
v -6 14 0.5
v -6 19 0.5
v -6 21 0.5
v -5 14 0.5
v -5 16 0.5
v -5 17 0.5
v -5 21 0.5
v -4 16 0.5
v -4 17 0.5
v -3 3 0.5
v -3 10 0.5
v -2 3 0.5
v -2 9 0.5
v -2 16 0.5
v -2 17 0.5
v -1 4 0.5
v -1 5 0.5
v -1 6 0.5
v -1 8 0.5
v -1 17 0.5
v -1 24 0.5
v 1 4 0.5
v 1 5 0.5
v 1 6 0.5
v 1 8 0.5
v 1 17 0.5
v 1 24 0.5
v 2 3 0.5
v 2 9 0.5
v 2 16 0.5
v 2 17 0.5
v 3 3 0.5
v 3 10 0.5
v 4 16 0.5
v 4 17 0.5
v 5 14 0.5
v 5 16 0.5
v 5 17 0.5
v 5 21 0.5
v 6 14 0.5
v 6 19 0.5
v 6 21 0.5
v 7 12 0.5
v 7 14 0.5
v 7 19 0.5
v 8 3 0.5
v 8 6 0.5
v 8 8 0.5
v 8 12 0.5
v 8 14 0.5
v 8 17 0.5
v 9 5 0.5
v 9 6 0.5
v 9 8 0.5
v 9 9 0.5
v 9 12 0.5
v 9 17 0.5
v 9 21 0.5
v 10 5 0.5
v 10 6 0.5
v 10 8 0.5
v 10 9 0.5
v 10 12 0.5
v 10 19 0.5
v 10 21 0.5
v 11 8 0.5
v 11 9 0.5
v 11 14 0.5
v 11 19 0.5
v 12 0 0.5
v 12 6 0.5
v 12 9 0.5
v 12 14 0.5
v 12 24 0.5
v -12 0 -0.5
v -12 6 -0.5
v -12 9 -0.5
v -12 14 -0.5
v -12 24 -0.5
v -11 8 -0.5
v -11 9 -0.5
v -11 14 -0.5
v -11 19 -0.5
v -10 5 -0.5
v -10 6 -0.5
v -10 8 -0.5
v -10 9 -0.5
v -10 12 -0.5
v -10 19 -0.5
v -10 21 -0.5
v -9 5 -0.5
v -9 6 -0.5
v -9 8 -0.5
v -9 9 -0.5
v -9 12 -0.5
v -9 17 -0.5
v -9 21 -0.5
v -8 3 -0.5
v -8 6 -0.5
v -8 8 -0.5
v -8 12 -0.5
v -8 14 -0.5
v -8 17 -0.5
v -7 12 -0.5
v -7 14 -0.5
v -7 19 -0.5
v -6 14 -0.5
v -6 19 -0.5
v -6 21 -0.5
v -5 14 -0.5
v -5 16 -0.5
v -5 17 -0.5
v -5 21 -0.5
v -4 16 -0.5
v -4 17 -0.5
v -3 3 -0.5
v -3 10 -0.5
v -2 3 -0.5
v -2 9 -0.5
v -2 16 -0.5
v -2 17 -0.5
v -1 4 -0.5
v -1 5 -0.5
v -1 6 -0.5
v -1 8 -0.5
v -1 17 -0.5
v -1 24 -0.5
v 1 4 -0.5
v 1 5 -0.5
v 1 6 -0.5
v 1 8 -0.5
v 1 17 -0.5
v 1 24 -0.5
v 2 3 -0.5
v 2 9 -0.5
v 2 16 -0.5
v 2 17 -0.5
v 3 3 -0.5
v 3 10 -0.5
v 4 16 -0.5
v 4 17 -0.5
v 5 14 -0.5
v 5 16 -0.5
v 5 17 -0.5
v 5 21 -0.5
v 6 14 -0.5
v 6 19 -0.5
v 6 21 -0.5
v 7 12 -0.5
v 7 14 -0.5
v 7 19 -0.5
v 8 3 -0.5
v 8 6 -0.5
v 8 8 -0.5
v 8 12 -0.5
v 8 14 -0.5
v 8 17 -0.5
v 9 5 -0.5
v 9 6 -0.5
v 9 8 -0.5
v 9 9 -0.5
v 9 12 -0.5
v 9 17 -0.5
v 9 21 -0.5
v 10 5 -0.5
v 10 6 -0.5
v 10 8 -0.5
v 10 9 -0.5
v 10 12 -0.5
v 10 19 -0.5
v 10 21 -0.5
v 11 8 -0.5
v 11 9 -0.5
v 11 14 -0.5
v 11 19 -0.5
v 12 0 -0.5
v 12 6 -0.5
v 12 9 -0.5
v 12 14 -0.5
v 12 24 -0.5
v -12 0 0.5
v 12 0 0.5
v -12 0 -0.5
v 12 0 -0.5
v -12 24 0.5
v -1 24 0.5
v 1 24 0.5
v 12 24 0.5
v -12 24 -0.5
v -1 24 -0.5
v 1 24 -0.5
v 12 24 -0.5

# faces
f 3/5/1 2/5/1 1/5/1
f 4/5/1 2/5/1 3/5/1
f 5/1/1 4/1/1 3/1/1
f 6/1/1 4/1/1 5/1/1
f 7/9/1 6/9/1 5/9/1
f 8/9/1 6/9/1 7/9/1
f 9/12/1 8/12/1 7/12/1
f 10/12/1 8/12/1 9/12/1
f 11/5/2 12/5/2 13/5/2
f 13/5/2 12/5/2 14/5/2
f 13/1/2 14/1/2 15/1/2
f 15/1/2 14/1/2 16/1/2
f 15/9/2 16/9/2 17/9/2
f 17/9/2 16/9/2 18/9/2
f 17/12/2 18/12/2 19/12/2
f 19/12/2 18/12/2 20/12/2
f 26/1/3 23/1/3 22/1/3
f 27/9/3 24/9/3 23/9/3
f 27/1/3 23/1/3 26/1/3
f 28/12/3 25/12/3 24/12/3
f 28/9/3 24/9/3 27/9/3
f 29/12/3 25/12/3 28/12/3
f 30/5/3 22/5/3 21/5/3
f 31/1/3 26/1/3 22/1/3
f 31/5/3 22/5/3 30/5/3
f 32/8/3 27/8/3 26/8/3
f 32/1/3 26/1/3 31/1/3
f 32/8/3 28/8/3 27/8/3
f 32/8/3 29/8/3 28/8/3
f 33/8/3 29/8/3 32/8/3
f 34/8/3 29/8/3 33/8/3
f 35/12/3 25/12/3 29/12/3
f 35/8/3 29/8/3 34/8/3
f 36/12/3 25/12/3 35/12/3
f 37/2/3 31/2/3 30/2/3
f 37/5/3 30/5/3 21/5/3
f 37/2/3 32/2/3 31/2/3
f 37/2/3 33/2/3 32/2/3
f 38/2/3 33/2/3 37/2/3
f 39/2/3 33/2/3 38/2/3
f 40/9/3 34/9/3 33/9/3
f 40/2/3 33/2/3 39/2/3
f 41/10/3 36/10/3 35/10/3
f 41/9/3 34/9/3 40/9/3
f 41/10/3 35/10/3 34/10/3
f 42/10/3 36/10/3 41/10/3
f 43/12/3 25/12/3 36/12/3
f 43/10/3 36/10/3 42/10/3
f 44/5/3 38/5/3 37/5/3
f 44/5/3 37/5/3 21/5/3
f 45/1/3 39/1/3 38/1/3
f 45/5/3 38/5/3 44/5/3
f 46/9/3 42/9/3 41/9/3
f 46/1/3 39/1/3 45/1/3
f 46/9/3 40/9/3 39/9/3
f 46/9/3 41/9/3 40/9/3
f 47/9/3 42/9/3 46/9/3
f 48/9/3 42/9/3 47/9/3
f 49/12/3 43/12/3 42/12/3
f 49/9/3 42/9/3 48/9/3
f 50/4/3 45/4/3 44/4/3
f 50/8/3 48/8/3 47/8/3
f 50/4/3 46/4/3 45/4/3
f 50/4/3 47/4/3 46/4/3
f 51/12/3 49/12/3 48/12/3
f 51/8/3 48/8/3 50/8/3
f 52/12/3 43/12/3 49/12/3
f 52/12/3 49/12/3 51/12/3
f 53/5/3 51/5/3 50/5/3
f 53/8/3 52/8/3 51/8/3
f 54/12/3 43/12/3 52/12/3
f 54/8/3 52/8/3 53/8/3
f 55/12/3 25/12/3 43/12/3
f 55/12/3 43/12/3 54/12/3
f 56/5/3 53/5/3 50/5/3
f 56/10/3 54/10/3 53/10/3
f 56/10/3 55/10/3 54/10/3
f 57/10/3 55/10/3 56/10/3
f 58/10/3 55/10/3 57/10/3
f 59/12/3 25/12/3 55/12/3
f 59/10/3 55/10/3 58/10/3
f 60/9/3 58/9/3 57/9/3
f 60/4/3 57/4/3 56/4/3
f 61/12/3 59/12/3 58/12/3
f 61/9/3 58/9/3 60/9/3
f 62/5/3 44/5/3 21/5/3
f 62/4/3 50/4/3 44/4/3
f 63/4/3 50/4/3 62/4/3
f 64/5/3 62/5/3 21/5/3
f 64/6/3 63/6/3 62/6/3
f 65/6/3 63/6/3 64/6/3
f 66/12/3 61/12/3 60/12/3
f 66/4/3 60/4/3 56/4/3
f 67/12/3 59/12/3 61/12/3
f 67/12/3 61/12/3 66/12/3
f 68/7/3 65/7/3 64/7/3
f 69/7/3 65/7/3 68/7/3
f 70/7/3 65/7/3 69/7/3
f 71/7/3 65/7/3 70/7/3
f 72/12/3 59/12/3 67/12/3
f 72/7/3 67/7/3 66/7/3
f 73/12/3 25/12/3 59/12/3
f 73/12/3 59/12/3 72/12/3
f 74/7/3 68/7/3 64/7/3
f 74/3/3 69/3/3 68/3/3
f 75/7/3 70/7/3 69/7/3
f 75/3/3 69/3/3 74/3/3
f 76/3/3 71/3/3 70/3/3
f 76/7/3 70/7/3 75/7/3
f 77/7/3 65/7/3 71/7/3
f 77/3/3 71/3/3 76/3/3
f 78/7/3 72/7/3 66/7/3
f 78/11/3 73/11/3 72/11/3
f 79/11/3 73/11/3 78/11/3
f 80/7/3 76/7/3 75/7/3
f 80/5/3 64/5/3 21/5/3
f 80/7/3 75/7/3 74/7/3
f 80/7/3 77/7/3 76/7/3
f 80/7/3 74/7/3 64/7/3
f 81/7/3 65/7/3 77/7/3
f 81/7/3 77/7/3 80/7/3
f 81/6/3 63/6/3 65/6/3
f 82/4/3 66/4/3 56/4/3
f 82/7/3 78/7/3 66/7/3
f 83/12/3 79/12/3 78/12/3
f 83/7/3 78/7/3 82/7/3
f 84/5/3 80/5/3 21/5/3
f 84/6/3 81/6/3 80/6/3
f 85/6/3 63/6/3 81/6/3
f 85/6/3 81/6/3 84/6/3
f 85/4/3 50/4/3 63/4/3
f 86/12/3 83/12/3 82/12/3
f 86/4/3 82/4/3 56/4/3
f 87/12/3 79/12/3 83/12/3
f 87/12/3 83/12/3 86/12/3
f 88/4/3 86/4/3 56/4/3
f 88/5/3 56/5/3 50/5/3
f 89/9/3 87/9/3 86/9/3
f 89/4/3 86/4/3 88/4/3
f 90/12/3 79/12/3 87/12/3
f 90/9/3 87/9/3 89/9/3
f 91/12/3 79/12/3 90/12/3
f 92/10/3 89/10/3 88/10/3
f 92/5/3 88/5/3 50/5/3
f 92/10/3 91/10/3 90/10/3
f 92/10/3 90/10/3 89/10/3
f 93/10/3 91/10/3 92/10/3
f 94/12/3 79/12/3 91/12/3
f 94/10/3 91/10/3 93/10/3
f 95/4/3 85/4/3 84/4/3
f 95/4/3 50/4/3 85/4/3
f 95/5/3 92/5/3 50/5/3
f 96/8/3 93/8/3 92/8/3
f 96/5/3 92/5/3 95/5/3
f 97/12/3 94/12/3 93/12/3
f 97/8/3 93/8/3 96/8/3
f 98/5/3 84/5/3 21/5/3
f 98/4/3 95/4/3 84/4/3
f 99/4/3 95/4/3 98/4/3
f 100/4/3 95/4/3 99/4/3
f 101/8/3 96/8/3 95/8/3
f 101/4/3 95/4/3 100/4/3
f 102/12/3 97/12/3 96/12/3
f 102/8/3 96/8/3 101/8/3
f 103/12/3 97/12/3 102/12/3
f 104/5/3 99/5/3 98/5/3
f 105/1/3 100/1/3 99/1/3
f 105/5/3 99/5/3 104/5/3
f 106/9/3 101/9/3 100/9/3
f 106/1/3 100/1/3 105/1/3
f 106/9/3 102/9/3 101/9/3
f 106/9/3 103/9/3 102/9/3
f 107/9/3 103/9/3 106/9/3
f 108/9/3 103/9/3 107/9/3
f 109/12/3 97/12/3 103/12/3
f 109/9/3 103/9/3 108/9/3
f 110/12/3 94/12/3 97/12/3
f 110/12/3 97/12/3 109/12/3
f 110/12/3 79/12/3 94/12/3
f 111/2/3 105/2/3 104/2/3
f 111/2/3 107/2/3 106/2/3
f 111/5/3 104/5/3 98/5/3
f 111/2/3 106/2/3 105/2/3
f 112/2/3 107/2/3 111/2/3
f 113/2/3 107/2/3 112/2/3
f 114/9/3 108/9/3 107/9/3
f 114/2/3 107/2/3 113/2/3
f 115/10/3 109/10/3 108/10/3
f 115/9/3 108/9/3 114/9/3
f 115/10/3 110/10/3 109/10/3
f 116/10/3 110/10/3 115/10/3
f 117/12/3 79/12/3 110/12/3
f 117/10/3 110/10/3 116/10/3
f 118/8/3 114/8/3 113/8/3
f 118/8/3 116/8/3 115/8/3
f 118/1/3 113/1/3 112/1/3
f 118/8/3 115/8/3 114/8/3
f 119/8/3 116/8/3 118/8/3
f 120/8/3 116/8/3 119/8/3
f 121/12/3 117/12/3 116/12/3
f 121/8/3 116/8/3 120/8/3
f 122/5/3 112/5/3 111/5/3
f 122/5/3 111/5/3 98/5/3
f 122/5/3 98/5/3 21/5/3
f 123/1/3 119/1/3 118/1/3
f 123/5/3 112/5/3 122/5/3
f 123/1/3 118/1/3 112/1/3
f 124/9/3 120/9/3 119/9/3
f 124/1/3 119/1/3 123/1/3
f 125/12/3 121/12/3 120/12/3
f 125/9/3 120/9/3 124/9/3
f 126/12/3 79/12/3 117/12/3
f 126/12/3 121/12/3 125/12/3
f 126/12/3 117/12/3 121/12/3
f 128/1/4 129/1/4 132/1/4
f 129/9/4 130/9/4 133/9/4
f 132/1/4 129/1/4 133/1/4
f 130/12/4 131/12/4 134/12/4
f 133/9/4 130/9/4 134/9/4
f 134/12/4 131/12/4 135/12/4
f 127/5/4 128/5/4 136/5/4
f 128/1/4 132/1/4 137/1/4
f 136/5/4 128/5/4 137/5/4
f 132/8/4 133/8/4 138/8/4
f 137/1/4 132/1/4 138/1/4
f 133/8/4 134/8/4 138/8/4
f 134/8/4 135/8/4 138/8/4
f 138/8/4 135/8/4 139/8/4
f 139/8/4 135/8/4 140/8/4
f 135/12/4 131/12/4 141/12/4
f 140/8/4 135/8/4 141/8/4
f 141/12/4 131/12/4 142/12/4
f 136/2/4 137/2/4 143/2/4
f 127/5/4 136/5/4 143/5/4
f 137/2/4 138/2/4 143/2/4
f 138/2/4 139/2/4 143/2/4
f 143/2/4 139/2/4 144/2/4
f 144/2/4 139/2/4 145/2/4
f 139/9/4 140/9/4 146/9/4
f 145/2/4 139/2/4 146/2/4
f 141/10/4 142/10/4 147/10/4
f 146/9/4 140/9/4 147/9/4
f 140/10/4 141/10/4 147/10/4
f 147/10/4 142/10/4 148/10/4
f 142/12/4 131/12/4 149/12/4
f 148/10/4 142/10/4 149/10/4
f 143/5/4 144/5/4 150/5/4
f 127/5/4 143/5/4 150/5/4
f 144/1/4 145/1/4 151/1/4
f 150/5/4 144/5/4 151/5/4
f 147/9/4 148/9/4 152/9/4
f 151/1/4 145/1/4 152/1/4
f 145/9/4 146/9/4 152/9/4
f 146/9/4 147/9/4 152/9/4
f 152/9/4 148/9/4 153/9/4
f 153/9/4 148/9/4 154/9/4
f 148/12/4 149/12/4 155/12/4
f 154/9/4 148/9/4 155/9/4
f 150/4/4 151/4/4 156/4/4
f 153/8/4 154/8/4 156/8/4
f 151/4/4 152/4/4 156/4/4
f 152/4/4 153/4/4 156/4/4
f 154/12/4 155/12/4 157/12/4
f 156/8/4 154/8/4 157/8/4
f 155/12/4 149/12/4 158/12/4
f 157/12/4 155/12/4 158/12/4
f 156/5/4 157/5/4 159/5/4
f 157/8/4 158/8/4 159/8/4
f 158/12/4 149/12/4 160/12/4
f 159/8/4 158/8/4 160/8/4
f 149/12/4 131/12/4 161/12/4
f 160/12/4 149/12/4 161/12/4
f 156/5/4 159/5/4 162/5/4
f 159/10/4 160/10/4 162/10/4
f 160/10/4 161/10/4 162/10/4
f 162/10/4 161/10/4 163/10/4
f 163/10/4 161/10/4 164/10/4
f 161/12/4 131/12/4 165/12/4
f 164/10/4 161/10/4 165/10/4
f 163/9/4 164/9/4 166/9/4
f 162/4/4 163/4/4 166/4/4
f 164/12/4 165/12/4 167/12/4
f 166/9/4 164/9/4 167/9/4
f 127/5/4 150/5/4 168/5/4
f 150/4/4 156/4/4 168/4/4
f 168/4/4 156/4/4 169/4/4
f 127/5/4 168/5/4 170/5/4
f 168/6/4 169/6/4 170/6/4
f 170/6/4 169/6/4 171/6/4
f 166/12/4 167/12/4 172/12/4
f 162/4/4 166/4/4 172/4/4
f 167/12/4 165/12/4 173/12/4
f 172/12/4 167/12/4 173/12/4
f 170/7/4 171/7/4 174/7/4
f 174/7/4 171/7/4 175/7/4
f 175/7/4 171/7/4 176/7/4
f 176/7/4 171/7/4 177/7/4
f 173/12/4 165/12/4 178/12/4
f 172/7/4 173/7/4 178/7/4
f 165/12/4 131/12/4 179/12/4
f 178/12/4 165/12/4 179/12/4
f 170/7/4 174/7/4 180/7/4
f 174/3/4 175/3/4 180/3/4
f 175/7/4 176/7/4 181/7/4
f 180/3/4 175/3/4 181/3/4
f 176/3/4 177/3/4 182/3/4
f 181/7/4 176/7/4 182/7/4
f 177/7/4 171/7/4 183/7/4
f 182/3/4 177/3/4 183/3/4
f 172/7/4 178/7/4 184/7/4
f 178/11/4 179/11/4 184/11/4
f 184/11/4 179/11/4 185/11/4
f 181/7/4 182/7/4 186/7/4
f 127/5/4 170/5/4 186/5/4
f 180/7/4 181/7/4 186/7/4
f 182/7/4 183/7/4 186/7/4
f 170/7/4 180/7/4 186/7/4
f 183/7/4 171/7/4 187/7/4
f 186/7/4 183/7/4 187/7/4
f 171/6/4 169/6/4 187/6/4
f 162/4/4 172/4/4 188/4/4
f 172/7/4 184/7/4 188/7/4
f 184/12/4 185/12/4 189/12/4
f 188/7/4 184/7/4 189/7/4
f 127/5/4 186/5/4 190/5/4
f 186/6/4 187/6/4 190/6/4
f 187/6/4 169/6/4 191/6/4
f 190/6/4 187/6/4 191/6/4
f 169/4/4 156/4/4 191/4/4
f 188/12/4 189/12/4 192/12/4
f 162/4/4 188/4/4 192/4/4
f 189/12/4 185/12/4 193/12/4
f 192/12/4 189/12/4 193/12/4
f 162/4/4 192/4/4 194/4/4
f 156/5/4 162/5/4 194/5/4
f 192/9/4 193/9/4 195/9/4
f 194/4/4 192/4/4 195/4/4
f 193/12/4 185/12/4 196/12/4
f 195/9/4 193/9/4 196/9/4
f 196/12/4 185/12/4 197/12/4
f 194/10/4 195/10/4 198/10/4
f 156/5/4 194/5/4 198/5/4
f 196/10/4 197/10/4 198/10/4
f 195/10/4 196/10/4 198/10/4
f 198/10/4 197/10/4 199/10/4
f 197/12/4 185/12/4 200/12/4
f 199/10/4 197/10/4 200/10/4
f 190/4/4 191/4/4 201/4/4
f 191/4/4 156/4/4 201/4/4
f 156/5/4 198/5/4 201/5/4
f 198/8/4 199/8/4 202/8/4
f 201/5/4 198/5/4 202/5/4
f 199/12/4 200/12/4 203/12/4
f 202/8/4 199/8/4 203/8/4
f 127/5/4 190/5/4 204/5/4
f 190/4/4 201/4/4 204/4/4
f 204/4/4 201/4/4 205/4/4
f 205/4/4 201/4/4 206/4/4
f 201/8/4 202/8/4 207/8/4
f 206/4/4 201/4/4 207/4/4
f 202/12/4 203/12/4 208/12/4
f 207/8/4 202/8/4 208/8/4
f 208/12/4 203/12/4 209/12/4
f 204/5/4 205/5/4 210/5/4
f 205/1/4 206/1/4 211/1/4
f 210/5/4 205/5/4 211/5/4
f 206/9/4 207/9/4 212/9/4
f 211/1/4 206/1/4 212/1/4
f 207/9/4 208/9/4 212/9/4
f 208/9/4 209/9/4 212/9/4
f 212/9/4 209/9/4 213/9/4
f 213/9/4 209/9/4 214/9/4
f 209/12/4 203/12/4 215/12/4
f 214/9/4 209/9/4 215/9/4
f 203/12/4 200/12/4 216/12/4
f 215/12/4 203/12/4 216/12/4
f 200/12/4 185/12/4 216/12/4
f 210/2/4 211/2/4 217/2/4
f 212/2/4 213/2/4 217/2/4
f 204/5/4 210/5/4 217/5/4
f 211/2/4 212/2/4 217/2/4
f 217/2/4 213/2/4 218/2/4
f 218/2/4 213/2/4 219/2/4
f 213/9/4 214/9/4 220/9/4
f 219/2/4 213/2/4 220/2/4
f 214/10/4 215/10/4 221/10/4
f 220/9/4 214/9/4 221/9/4
f 215/10/4 216/10/4 221/10/4
f 221/10/4 216/10/4 222/10/4
f 216/12/4 185/12/4 223/12/4
f 222/10/4 216/10/4 223/10/4
f 219/8/4 220/8/4 224/8/4
f 221/8/4 222/8/4 224/8/4
f 218/1/4 219/1/4 224/1/4
f 220/8/4 221/8/4 224/8/4
f 224/8/4 222/8/4 225/8/4
f 225/8/4 222/8/4 226/8/4
f 222/12/4 223/12/4 227/12/4
f 226/8/4 222/8/4 227/8/4
f 217/5/4 218/5/4 228/5/4
f 204/5/4 217/5/4 228/5/4
f 127/5/4 204/5/4 228/5/4
f 224/1/4 225/1/4 229/1/4
f 228/5/4 218/5/4 229/5/4
f 218/1/4 224/1/4 229/1/4
f 225/9/4 226/9/4 230/9/4
f 229/1/4 225/1/4 230/1/4
f 226/12/4 227/12/4 231/12/4
f 230/9/4 226/9/4 231/9/4
f 223/12/4 185/12/4 232/12/4
f 231/12/4 227/12/4 232/12/4
f 227/12/4 223/12/4 232/12/4
f 235/5/5 234/5/5 233/5/5
f 236/5/5 234/5/5 235/5/5
f 237/12/6 238/12/6 241/12/6
f 238/11/6 239/11/6 242/11/6
f 241/12/6 238/12/6 242/12/6
f 239/12/6 240/12/6 243/12/6
f 242/11/6 239/11/6 243/11/6
f 243/12/6 240/12/6 244/12/6
