# 3ds Max Wavefront OBJ Exporter v0.97b - (c)2007 guruware
# File Created: 12.02.2016 15:43:22

mtllib light_shaft_flip.mtl

#
# object Box002
#

v  -5.0000 109.0000 -0.0077
v  4.9942 109.0000 -0.0077
v  -0.9885 18.7502 -6.7425
v  -10.9827 18.7502 -6.7425
v  4.9942 109.0000 -11.0000
v  -0.9885 18.7502 -17.7348
v  -5.0000 109.0000 -11.0000
v  -10.9827 18.7502 -17.7348
# 8 vertices

vn 0.0000 0.0744 -0.9972
vn -0.9978 0.0661 -0.0000
vn 0.0000 -0.0744 0.9972
vn 0.9978 -0.0661 -0.0000
# 4 vertex normals

vt 0.0000 0.9925 0.0238
vt 0.9623 1.0000 0.0227
vt 0.9931 0.0167 -0.0000
vt 0.0308 0.0092 0.0010
vt 0.9990 0.9908 0.9692
vt 0.9762 0.0075 1.0000
vt -0.0000 0.0167 0.9931
vt 0.0227 1.0000 0.9623
vt 0.9931 0.9833 1.0000
vt 0.9623 0.0000 0.9773
vt 0.0000 0.0075 0.9762
vt 0.0308 0.9908 0.9990
vt -0.0000 0.9833 0.0069
vt 0.9762 0.9925 0.0000
vt 0.9990 0.0092 0.0308
vt 0.0227 0.0000 0.0377
# 16 texture coords

g Box002
usemtl palette
s 8
f 1/1/1 2/2/1 3/3/1 4/4/1 
s 16
f 5/5/2 6/6/2 3/7/2 2/8/2 
s 32
f 7/9/3 8/10/3 6/11/3 5/12/3 
s 64
f 7/13/4 1/14/4 4/15/4 8/16/4 
# 4 polygons

