# MagicaVoxel @ ephtracy

# material
mtllib 03_arcade_16X.mtl
usemtl palette

# normals
vn -1 0 0
vn 1 0 0
vn 0 0 1
vn 0 0 -1
vn 0 -1 0
vn 0 1 0

# texcoords
vt 0.0332031 0.5
vt 0.0371094 0.5
vt 0.0410156 0.5
vt 0.0488281 0.5
vt 0.0761719 0.5
vt 0.0957031 0.5
vt 0.0996094 0.5
vt 0.103516 0.5
vt 0.107422 0.5
vt 0.111328 0.5
vt 0.142578 0.5
vt 0.158203 0.5

# verts
v -16 0 17.5
v -16 0 -12.5
v -16 3 -12.5
v -16 3 -13.5
v -16 9 -13.5
v -16 9 -14.5
v -16 15 -14.5
v -16 15 -15.5
v -16 21 -15.5
v -16 21 -16.5
v -16 27 -16.5
v -16 27 -17.5
v -16 31 19.5
v -16 31 17.5
v -16 33 -17.5
v -16 33 -18.5
v -16 39 -18.5
v -16 39 -19.5
v -16 40 19.5
v -16 40 12.5
v -16 41 19.5
v -16 41 12.5
v -16 71 -18.5
v -16 71 -19.5
v -16 72 19.5
v -16 72 12.5
v -16 72 -17.5
v -16 72 -18.5
v -16 73 -16.5
v -16 73 -17.5
v -16 74 -15.5
v -16 74 -16.5
v -16 75 -14.5
v -16 75 -15.5
v -16 76 -13.5
v -16 76 -14.5
v -16 77 -12.5
v -16 77 -13.5
v -16 78 -11.5
v -16 78 -12.5
v -16 79 -10.5
v -16 79 -11.5
v -16 80 19.5
v -16 80 -10.5
v -9 13 13.5
v -9 13 12.5
v -9 24 13.5
v -9 24 12.5
v -7 19 14.5
v -7 19 13.5
v -7 22 14.5
v -7 22 13.5
v -6 41 17.5
v -6 41 14.5
v -6 42 17.5
v -6 42 14.5
v -6 45 17.5
v -6 45 14.5
v -6 48 17.5
v -6 48 14.5
v -5 42 16.5
v -5 42 15.5
v -5 45 16.5
v -5 45 15.5
v -3 19 14.5
v -3 19 13.5
v -3 22 14.5
v -3 22 13.5
v 0 41 18.5
v 0 41 16.5
v 0 41 15.5
v 0 41 13.5
v 0 42 18.5
v 0 42 16.5
v 0 42 15.5
v 0 42 13.5
v 4 41 18.5
v 4 41 16.5
v 4 41 15.5
v 4 41 13.5
v 4 42 18.5
v 4 42 16.5
v 4 42 15.5
v 4 42 13.5
v 6 17 14.5
v 6 17 13.5
v 6 19 14.5
v 6 19 13.5
v 10 45 12.5
v 10 45 -16.5
v 10 68 12.5
v 10 68 -16.5
v 12 59 -18.5
v 12 59 -19.5
v 12 65 -18.5
v 12 65 -19.5
v 15 0 16.5
v 15 0 12.5
v 15 31 16.5
v 15 31 12.5
v -15 0 17.5
v -15 0 12.5
v -15 31 17.5
v -15 31 12.5
v -10 45 12.5
v -10 45 -16.5
v -10 68 12.5
v -10 68 -16.5
v -5 19 14.5
v -5 19 13.5
v -5 22 14.5
v -5 22 13.5
v -4 42 16.5
v -4 42 15.5
v -4 45 16.5
v -4 45 15.5
v -3 41 17.5
v -3 41 14.5
v -3 42 17.5
v -3 42 14.5
v -3 45 17.5
v -3 45 14.5
v -3 48 17.5
v -3 48 14.5
v -1 19 14.5
v -1 19 13.5
v -1 22 14.5
v -1 22 13.5
v 2 41 18.5
v 2 41 16.5
v 2 41 15.5
v 2 41 13.5
v 2 42 18.5
v 2 42 16.5
v 2 42 15.5
v 2 42 13.5
v 6 41 18.5
v 6 41 16.5
v 6 41 15.5
v 6 41 13.5
v 6 42 18.5
v 6 42 16.5
v 6 42 15.5
v 6 42 13.5
v 8 17 14.5
v 8 17 13.5
v 8 19 14.5
v 8 19 13.5
v 9 13 13.5
v 9 13 12.5
v 9 24 13.5
v 9 24 12.5
v 9 59 -18.5
v 9 59 -19.5
v 9 65 -18.5
v 9 65 -19.5
v 16 0 16.5
v 16 0 -12.5
v 16 3 -12.5
v 16 3 -13.5
v 16 9 -13.5
v 16 9 -14.5
v 16 15 -14.5
v 16 15 -15.5
v 16 21 -15.5
v 16 21 -16.5
v 16 27 -16.5
v 16 27 -17.5
v 16 31 19.5
v 16 31 16.5
v 16 33 -17.5
v 16 33 -18.5
v 16 39 -18.5
v 16 39 -19.5
v 16 40 19.5
v 16 40 12.5
v 16 41 19.5
v 16 41 12.5
v 16 71 -18.5
v 16 71 -19.5
v 16 72 19.5
v 16 72 12.5
v 16 72 -17.5
v 16 72 -18.5
v 16 73 -16.5
v 16 73 -17.5
v 16 74 -15.5
v 16 74 -16.5
v 16 75 -14.5
v 16 75 -15.5
v 16 76 -13.5
v 16 76 -14.5
v 16 77 -12.5
v 16 77 -13.5
v 16 78 -11.5
v 16 78 -12.5
v 16 79 -10.5
v 16 79 -11.5
v 16 80 19.5
v 16 80 -10.5
v -16 31 19.5
v -16 40 19.5
v -16 41 19.5
v -16 72 19.5
v -16 80 19.5
v -15 73 19.5
v -15 75 19.5
v -15 77 19.5
v -15 79 19.5
v 15 73 19.5
v 15 75 19.5
v 15 77 19.5
v 15 79 19.5
v 16 31 19.5
v 16 40 19.5
v 16 41 19.5
v 16 72 19.5
v 16 80 19.5
v 0 41 18.5
v 0 42 18.5
v 2 41 18.5
v 2 42 18.5
v 4 41 18.5
v 4 42 18.5
v 6 41 18.5
v 6 42 18.5
v -16 0 17.5
v -16 31 17.5
v -15 0 17.5
v -15 31 17.5
v -6 41 17.5
v -6 42 17.5
v -6 45 17.5
v -6 48 17.5
v -3 41 17.5
v -3 42 17.5
v -3 45 17.5
v -3 48 17.5
v -5 42 16.5
v -5 45 16.5
v -4 42 16.5
v -4 45 16.5
v 15 0 16.5
v 15 31 16.5
v 16 0 16.5
v 16 31 16.5
v 0 41 15.5
v 0 42 15.5
v 2 41 15.5
v 2 42 15.5
v 4 41 15.5
v 4 42 15.5
v 6 41 15.5
v 6 42 15.5
v -7 19 14.5
v -7 22 14.5
v -5 19 14.5
v -5 22 14.5
v -3 19 14.5
v -3 22 14.5
v -1 19 14.5
v -1 22 14.5
v 6 17 14.5
v 6 19 14.5
v 8 17 14.5
v 8 19 14.5
v -9 13 13.5
v -9 24 13.5
v -7 19 13.5
v -7 22 13.5
v -5 19 13.5
v -5 22 13.5
v -3 19 13.5
v -3 22 13.5
v -1 19 13.5
v -1 22 13.5
v 6 17 13.5
v 6 19 13.5
v 8 17 13.5
v 8 19 13.5
v 9 13 13.5
v 9 24 13.5
v -16 41 12.5
v -16 72 12.5
v -15 0 12.5
v -15 31 12.5
v -15 41 12.5
v -15 72 12.5
v -11 44 12.5
v -11 69 12.5
v -10 45 12.5
v -10 68 12.5
v -9 13 12.5
v -9 24 12.5
v 9 13 12.5
v 9 24 12.5
v 10 45 12.5
v 10 68 12.5
v 11 44 12.5
v 11 69 12.5
v 15 0 12.5
v 15 31 12.5
v 15 41 12.5
v 15 72 12.5
v 16 41 12.5
v 16 72 12.5
v -10 45 -16.5
v -10 68 -16.5
v 10 45 -16.5
v 10 68 -16.5
v 0 41 16.5
v 0 42 16.5
v 2 41 16.5
v 2 42 16.5
v 4 41 16.5
v 4 42 16.5
v 6 41 16.5
v 6 42 16.5
v -5 42 15.5
v -5 45 15.5
v -4 42 15.5
v -4 45 15.5
v -6 41 14.5
v -6 42 14.5
v -6 45 14.5
v -6 48 14.5
v -3 41 14.5
v -3 42 14.5
v -3 45 14.5
v -3 48 14.5
v 0 41 13.5
v 0 42 13.5
v 2 41 13.5
v 2 42 13.5
v 4 41 13.5
v 4 42 13.5
v 6 41 13.5
v 6 42 13.5
v -16 79 -10.5
v -16 80 -10.5
v 16 79 -10.5
v 16 80 -10.5
v -16 78 -11.5
v -16 79 -11.5
v 16 78 -11.5
v 16 79 -11.5
v -16 0 -12.5
v -16 3 -12.5
v -16 77 -12.5
v -16 78 -12.5
v 16 0 -12.5
v 16 3 -12.5
v 16 77 -12.5
v 16 78 -12.5
v -16 3 -13.5
v -16 9 -13.5
v -16 76 -13.5
v -16 77 -13.5
v 16 3 -13.5
v 16 9 -13.5
v 16 76 -13.5
v 16 77 -13.5
v -16 9 -14.5
v -16 15 -14.5
v -16 75 -14.5
v -16 76 -14.5
v 16 9 -14.5
v 16 15 -14.5
v 16 75 -14.5
v 16 76 -14.5
v -16 15 -15.5
v -16 21 -15.5
v -16 74 -15.5
v -16 75 -15.5
v 16 15 -15.5
v 16 21 -15.5
v 16 74 -15.5
v 16 75 -15.5
v -16 21 -16.5
v -16 27 -16.5
v -16 73 -16.5
v -16 74 -16.5
v 16 21 -16.5
v 16 27 -16.5
v 16 73 -16.5
v 16 74 -16.5
v -16 27 -17.5
v -16 33 -17.5
v -16 72 -17.5
v -16 73 -17.5
v 16 27 -17.5
v 16 33 -17.5
v 16 72 -17.5
v 16 73 -17.5
v -16 33 -18.5
v -16 39 -18.5
v -16 71 -18.5
v -16 72 -18.5
v 9 59 -18.5
v 9 65 -18.5
v 12 59 -18.5
v 12 65 -18.5
v 16 33 -18.5
v 16 39 -18.5
v 16 71 -18.5
v 16 72 -18.5
v -16 39 -19.5
v -16 71 -19.5
v 8 58 -19.5
v 8 66 -19.5
v 9 59 -19.5
v 9 65 -19.5
v 12 59 -19.5
v 12 65 -19.5
v 13 58 -19.5
v 13 66 -19.5
v 16 39 -19.5
v 16 71 -19.5
v -16 0 17.5
v -15 0 17.5
v 15 0 16.5
v 16 0 16.5
v -15 0 12.5
v 15 0 12.5
v -15 0 11.5
v 15 0 11.5
v -16 0 -12.5
v 16 0 -12.5
v -16 3 -12.5
v 16 3 -12.5
v -16 3 -13.5
v 16 3 -13.5
v -16 9 -13.5
v 16 9 -13.5
v -16 9 -14.5
v 16 9 -14.5
v -9 13 13.5
v 9 13 13.5
v -9 13 12.5
v 9 13 12.5
v -16 15 -14.5
v 16 15 -14.5
v -16 15 -15.5
v 16 15 -15.5
v 6 17 14.5
v 8 17 14.5
v 6 17 13.5
v 8 17 13.5
v -7 19 14.5
v -5 19 14.5
v -3 19 14.5
v -1 19 14.5
v -7 19 13.5
v -5 19 13.5
v -3 19 13.5
v -1 19 13.5
v -16 21 -15.5
v 16 21 -15.5
v -16 21 -16.5
v 16 21 -16.5
v -16 27 -16.5
v 16 27 -16.5
v -16 27 -17.5
v 16 27 -17.5
v -16 31 19.5
v 16 31 19.5
v -16 31 17.5
v -15 31 17.5
v 15 31 16.5
v 16 31 16.5
v -15 31 12.5
v 15 31 12.5
v -16 33 -17.5
v 16 33 -17.5
v -16 33 -18.5
v 16 33 -18.5
v -16 39 -18.5
v 16 39 -18.5
v -16 39 -19.5
v 16 39 -19.5
v -6 45 17.5
v -3 45 17.5
v -5 45 16.5
v -4 45 16.5
v -5 45 15.5
v -4 45 15.5
v -6 45 14.5
v -3 45 14.5
v 9 65 -18.5
v 12 65 -18.5
v 9 65 -19.5
v 12 65 -19.5
v -10 68 12.5
v 10 68 12.5
v -10 68 -16.5
v 10 68 -16.5
v -16 72 19.5
v 16 72 19.5
v -15 72 18.5
v 15 72 18.5
v -16 72 12.5
v -15 72 12.5
v 15 72 12.5
v 16 72 12.5
v 6 19 14.5
v 8 19 14.5
v 6 19 13.5
v 8 19 13.5
v -7 22 14.5
v -5 22 14.5
v -3 22 14.5
v -1 22 14.5
v -7 22 13.5
v -5 22 13.5
v -3 22 13.5
v -1 22 13.5
v -9 24 13.5
v 9 24 13.5
v -9 24 12.5
v 9 24 12.5
v -16 41 19.5
v 16 41 19.5
v 0 41 18.5
v 2 41 18.5
v 4 41 18.5
v 6 41 18.5
v -6 41 17.5
v -3 41 17.5
v 0 41 16.5
v 2 41 16.5
v 4 41 16.5
v 6 41 16.5
v 0 41 15.5
v 2 41 15.5
v 4 41 15.5
v 6 41 15.5
v -6 41 14.5
v -3 41 14.5
v 0 41 13.5
v 2 41 13.5
v 4 41 13.5
v 6 41 13.5
v -16 41 12.5
v -15 41 12.5
v 15 41 12.5
v 16 41 12.5
v 0 42 18.5
v 2 42 18.5
v 4 42 18.5
v 6 42 18.5
v -6 42 17.5
v -3 42 17.5
v -5 42 16.5
v -4 42 16.5
v 0 42 16.5
v 2 42 16.5
v 4 42 16.5
v 6 42 16.5
v -5 42 15.5
v -4 42 15.5
v 0 42 15.5
v 2 42 15.5
v 4 42 15.5
v 6 42 15.5
v -6 42 14.5
v -3 42 14.5
v 0 42 13.5
v 2 42 13.5
v 4 42 13.5
v 6 42 13.5
v -10 45 12.5
v 10 45 12.5
v -10 45 -16.5
v 10 45 -16.5
v -6 48 17.5
v -3 48 17.5
v -6 48 14.5
v -3 48 14.5
v 9 59 -18.5
v 12 59 -18.5
v 9 59 -19.5
v 12 59 -19.5
v -16 71 -18.5
v 16 71 -18.5
v -16 71 -19.5
v 16 71 -19.5
v -16 72 -17.5
v 16 72 -17.5
v -16 72 -18.5
v 16 72 -18.5
v -16 73 -16.5
v 16 73 -16.5
v -16 73 -17.5
v 16 73 -17.5
v -16 74 -15.5
v 16 74 -15.5
v -16 74 -16.5
v 16 74 -16.5
v -16 75 -14.5
v 16 75 -14.5
v -16 75 -15.5
v 16 75 -15.5
v -16 76 -13.5
v 16 76 -13.5
v -16 76 -14.5
v 16 76 -14.5
v -16 77 -12.5
v 16 77 -12.5
v -16 77 -13.5
v 16 77 -13.5
v -16 78 -11.5
v 16 78 -11.5
v -16 78 -12.5
v 16 78 -12.5
v -16 79 -10.5
v 16 79 -10.5
v -16 79 -11.5
v 16 79 -11.5
v -16 80 19.5
v 16 80 19.5
v -16 80 -10.5
v 16 80 -10.5

# faces
f 3/1/1 2/1/1 1/1/1
f 5/1/1 4/1/1 3/1/1
f 7/1/1 6/1/1 5/1/1
f 9/1/1 8/1/1 7/1/1
f 11/1/1 10/1/1 9/1/1
f 14/1/1 3/1/1 1/1/1
f 14/1/1 12/1/1 11/1/1
f 14/1/1 11/1/1 9/1/1
f 14/1/1 9/1/1 7/1/1
f 14/1/1 7/1/1 5/1/1
f 14/1/1 5/1/1 3/1/1
f 15/1/1 12/1/1 14/1/1
f 15/1/1 14/1/1 13/1/1
f 17/1/1 16/1/1 15/1/1
f 19/1/1 15/1/1 13/1/1
f 19/1/1 18/1/1 17/1/1
f 19/1/1 17/1/1 15/1/1
f 20/1/1 18/1/1 19/1/1
f 21/7/1 20/7/1 19/7/1
f 22/1/1 18/1/1 20/1/1
f 22/7/1 20/7/1 21/7/1
f 23/1/1 18/1/1 22/1/1
f 24/1/1 18/1/1 23/1/1
f 26/1/1 23/1/1 22/1/1
f 27/1/1 23/1/1 26/1/1
f 28/1/1 23/1/1 27/1/1
f 29/1/1 26/1/1 25/1/1
f 29/1/1 27/1/1 26/1/1
f 30/1/1 27/1/1 29/1/1
f 31/1/1 29/1/1 25/1/1
f 32/1/1 29/1/1 31/1/1
f 33/1/1 31/1/1 25/1/1
f 34/1/1 31/1/1 33/1/1
f 35/1/1 33/1/1 25/1/1
f 36/1/1 33/1/1 35/1/1
f 37/1/1 35/1/1 25/1/1
f 38/1/1 35/1/1 37/1/1
f 39/1/1 37/1/1 25/1/1
f 40/1/1 37/1/1 39/1/1
f 41/1/1 39/1/1 25/1/1
f 42/1/1 39/1/1 41/1/1
f 43/1/1 41/1/1 25/1/1
f 44/1/1 41/1/1 43/1/1
f 47/7/1 46/7/1 45/7/1
f 48/7/1 46/7/1 47/7/1
f 51/11/1 50/11/1 49/11/1
f 52/11/1 50/11/1 51/11/1
f 55/9/1 54/9/1 53/9/1
f 56/9/1 54/9/1 55/9/1
f 59/11/1 58/11/1 57/11/1
f 60/11/1 58/11/1 59/11/1
f 63/10/1 62/10/1 61/10/1
f 64/10/1 62/10/1 63/10/1
f 67/11/1 66/11/1 65/11/1
f 68/11/1 66/11/1 67/11/1
f 73/12/1 70/12/1 69/12/1
f 74/12/1 70/12/1 73/12/1
f 75/5/1 72/5/1 71/5/1
f 76/5/1 72/5/1 75/5/1
f 81/11/1 78/11/1 77/11/1
f 82/11/1 78/11/1 81/11/1
f 83/4/1 80/4/1 79/4/1
f 84/4/1 80/4/1 83/4/1
f 87/10/1 86/10/1 85/10/1
f 88/10/1 86/10/1 87/10/1
f 91/6/1 90/6/1 89/6/1
f 92/6/1 90/6/1 91/6/1
f 95/8/1 94/8/1 93/8/1
f 96/8/1 94/8/1 95/8/1
f 99/1/1 98/1/1 97/1/1
f 100/1/1 98/1/1 99/1/1
f 101/1/2 102/1/2 103/1/2
f 103/1/2 102/1/2 104/1/2
f 105/6/2 106/6/2 107/6/2
f 107/6/2 106/6/2 108/6/2
f 109/11/2 110/11/2 111/11/2
f 111/11/2 110/11/2 112/11/2
f 113/10/2 114/10/2 115/10/2
f 115/10/2 114/10/2 116/10/2
f 117/9/2 118/9/2 119/9/2
f 119/9/2 118/9/2 120/9/2
f 121/11/2 122/11/2 123/11/2
f 123/11/2 122/11/2 124/11/2
f 125/11/2 126/11/2 127/11/2
f 127/11/2 126/11/2 128/11/2
f 129/12/2 130/12/2 133/12/2
f 133/12/2 130/12/2 134/12/2
f 131/5/2 132/5/2 135/5/2
f 135/5/2 132/5/2 136/5/2
f 137/11/2 138/11/2 141/11/2
f 141/11/2 138/11/2 142/11/2
f 139/4/2 140/4/2 143/4/2
f 143/4/2 140/4/2 144/4/2
f 145/10/2 146/10/2 147/10/2
f 147/10/2 146/10/2 148/10/2
f 149/7/2 150/7/2 151/7/2
f 151/7/2 150/7/2 152/7/2
f 153/8/2 154/8/2 155/8/2
f 155/8/2 154/8/2 156/8/2
f 157/1/2 158/1/2 159/1/2
f 159/1/2 160/1/2 161/1/2
f 161/1/2 162/1/2 163/1/2
f 163/1/2 164/1/2 165/1/2
f 165/1/2 166/1/2 167/1/2
f 157/1/2 159/1/2 170/1/2
f 167/1/2 168/1/2 170/1/2
f 165/1/2 167/1/2 170/1/2
f 163/1/2 165/1/2 170/1/2
f 161/1/2 163/1/2 170/1/2
f 159/1/2 161/1/2 170/1/2
f 170/1/2 168/1/2 171/1/2
f 169/1/2 170/1/2 171/1/2
f 171/1/2 172/1/2 173/1/2
f 169/1/2 171/1/2 175/1/2
f 173/1/2 174/1/2 175/1/2
f 171/1/2 173/1/2 175/1/2
f 175/1/2 174/1/2 176/1/2
f 175/7/2 176/7/2 177/7/2
f 176/1/2 174/1/2 178/1/2
f 177/7/2 176/7/2 178/7/2
f 178/1/2 174/1/2 179/1/2
f 179/1/2 174/1/2 180/1/2
f 178/1/2 179/1/2 182/1/2
f 182/1/2 179/1/2 183/1/2
f 183/1/2 179/1/2 184/1/2
f 181/1/2 182/1/2 185/1/2
f 182/1/2 183/1/2 185/1/2
f 185/1/2 183/1/2 186/1/2
f 181/1/2 185/1/2 187/1/2
f 187/1/2 185/1/2 188/1/2
f 181/1/2 187/1/2 189/1/2
f 189/1/2 187/1/2 190/1/2
f 181/1/2 189/1/2 191/1/2
f 191/1/2 189/1/2 192/1/2
f 181/1/2 191/1/2 193/1/2
f 193/1/2 191/1/2 194/1/2
f 181/1/2 193/1/2 195/1/2
f 195/1/2 193/1/2 196/1/2
f 181/1/2 195/1/2 197/1/2
f 197/1/2 195/1/2 198/1/2
f 181/1/2 197/1/2 199/1/2
f 199/1/2 197/1/2 200/1/2
f 206/1/3 205/1/3 204/1/3
f 207/1/3 205/1/3 206/1/3
f 208/1/3 205/1/3 207/1/3
f 209/1/3 205/1/3 208/1/3
f 210/1/3 206/1/3 204/1/3
f 210/2/3 207/2/3 206/2/3
f 211/3/3 208/3/3 207/3/3
f 211/2/3 207/2/3 210/2/3
f 212/4/3 209/4/3 208/4/3
f 212/3/3 208/3/3 211/3/3
f 213/1/3 205/1/3 209/1/3
f 213/4/3 209/4/3 212/4/3
f 214/1/3 202/1/3 201/1/3
f 215/7/3 203/7/3 202/7/3
f 215/1/3 202/1/3 214/1/3
f 216/7/3 203/7/3 215/7/3
f 217/1/3 212/1/3 211/1/3
f 217/1/3 211/1/3 210/1/3
f 217/1/3 210/1/3 204/1/3
f 217/1/3 213/1/3 212/1/3
f 218/1/3 205/1/3 213/1/3
f 218/1/3 213/1/3 217/1/3
f 221/12/3 220/12/3 219/12/3
f 222/12/3 220/12/3 221/12/3
f 225/11/3 224/11/3 223/11/3
f 226/11/3 224/11/3 225/11/3
f 229/1/3 228/1/3 227/1/3
f 230/1/3 228/1/3 229/1/3
f 235/9/3 232/9/3 231/9/3
f 236/9/3 232/9/3 235/9/3
f 237/11/3 234/11/3 233/11/3
f 238/11/3 234/11/3 237/11/3
f 241/10/3 240/10/3 239/10/3
f 242/10/3 240/10/3 241/10/3
f 245/1/3 244/1/3 243/1/3
f 246/1/3 244/1/3 245/1/3
f 249/5/3 248/5/3 247/5/3
f 250/5/3 248/5/3 249/5/3
f 253/4/3 252/4/3 251/4/3
f 254/4/3 252/4/3 253/4/3
f 257/11/3 256/11/3 255/11/3
f 258/11/3 256/11/3 257/11/3
f 261/11/3 260/11/3 259/11/3
f 262/11/3 260/11/3 261/11/3
f 265/10/3 264/10/3 263/10/3
f 266/10/3 264/10/3 265/10/3
f 269/7/3 268/7/3 267/7/3
f 270/7/3 268/7/3 269/7/3
f 271/7/3 269/7/3 267/7/3
f 272/7/3 268/7/3 270/7/3
f 273/7/3 271/7/3 267/7/3
f 273/7/3 272/7/3 271/7/3
f 274/7/3 268/7/3 272/7/3
f 274/7/3 272/7/3 273/7/3
f 275/7/3 273/7/3 267/7/3
f 276/7/3 268/7/3 274/7/3
f 277/7/3 275/7/3 267/7/3
f 277/7/3 276/7/3 275/7/3
f 278/7/3 276/7/3 277/7/3
f 279/7/3 277/7/3 267/7/3
f 280/7/3 276/7/3 278/7/3
f 281/7/3 279/7/3 267/7/3
f 281/7/3 280/7/3 279/7/3
f 282/7/3 268/7/3 276/7/3
f 282/7/3 280/7/3 281/7/3
f 282/7/3 276/7/3 280/7/3
f 287/1/3 284/1/3 283/1/3
f 288/1/3 284/1/3 287/1/3
f 289/2/3 288/2/3 287/2/3
f 290/2/3 288/2/3 289/2/3
f 291/6/3 290/6/3 289/6/3
f 292/6/3 290/6/3 291/6/3
f 293/8/3 286/8/3 285/8/3
f 294/8/3 286/8/3 293/8/3
f 295/8/3 293/8/3 285/8/3
f 296/8/3 286/8/3 294/8/3
f 297/6/3 291/6/3 289/6/3
f 298/6/3 290/6/3 292/6/3
f 299/6/3 297/6/3 289/6/3
f 299/6/3 298/6/3 297/6/3
f 299/2/3 289/2/3 287/2/3
f 300/6/3 290/6/3 298/6/3
f 300/6/3 298/6/3 299/6/3
f 300/2/3 288/2/3 290/2/3
f 301/8/3 296/8/3 295/8/3
f 301/8/3 295/8/3 285/8/3
f 302/8/3 286/8/3 296/8/3
f 302/8/3 296/8/3 301/8/3
f 303/2/3 299/2/3 287/2/3
f 303/2/3 300/2/3 299/2/3
f 304/2/3 288/2/3 300/2/3
f 304/2/3 300/2/3 303/2/3
f 305/1/3 304/1/3 303/1/3
f 306/1/3 304/1/3 305/1/3
f 309/6/3 308/6/3 307/6/3
f 310/6/3 308/6/3 309/6/3
f 311/12/4 312/12/4 313/12/4
f 313/12/4 312/12/4 314/12/4
f 315/11/4 316/11/4 317/11/4
f 317/11/4 316/11/4 318/11/4
f 319/10/4 320/10/4 321/10/4
f 321/10/4 320/10/4 322/10/4
f 323/9/4 324/9/4 327/9/4
f 327/9/4 324/9/4 328/9/4
f 325/11/4 326/11/4 329/11/4
f 329/11/4 326/11/4 330/11/4
f 331/5/4 332/5/4 333/5/4
f 333/5/4 332/5/4 334/5/4
f 335/4/4 336/4/4 337/4/4
f 337/4/4 336/4/4 338/4/4
f 339/1/4 340/1/4 341/1/4
f 341/1/4 340/1/4 342/1/4
f 343/1/4 344/1/4 345/1/4
f 345/1/4 344/1/4 346/1/4
f 347/1/4 348/1/4 351/1/4
f 351/1/4 348/1/4 352/1/4
f 349/1/4 350/1/4 353/1/4
f 353/1/4 350/1/4 354/1/4
f 355/1/4 356/1/4 359/1/4
f 359/1/4 356/1/4 360/1/4
f 357/1/4 358/1/4 361/1/4
f 361/1/4 358/1/4 362/1/4
f 363/1/4 364/1/4 367/1/4
f 367/1/4 364/1/4 368/1/4
f 365/1/4 366/1/4 369/1/4
f 369/1/4 366/1/4 370/1/4
f 371/1/4 372/1/4 375/1/4
f 375/1/4 372/1/4 376/1/4
f 373/1/4 374/1/4 377/1/4
f 377/1/4 374/1/4 378/1/4
f 379/1/4 380/1/4 383/1/4
f 383/1/4 380/1/4 384/1/4
f 381/1/4 382/1/4 385/1/4
f 385/1/4 382/1/4 386/1/4
f 387/1/4 388/1/4 391/1/4
f 391/1/4 388/1/4 392/1/4
f 389/1/4 390/1/4 393/1/4
f 393/1/4 390/1/4 394/1/4
f 399/7/4 400/7/4 401/7/4
f 401/7/4 400/7/4 402/7/4
f 395/1/4 396/1/4 403/1/4
f 403/1/4 396/1/4 404/1/4
f 397/1/4 398/1/4 405/1/4
f 405/1/4 398/1/4 406/1/4
f 407/1/4 408/1/4 409/1/4
f 409/1/4 408/1/4 410/1/4
f 409/8/4 410/8/4 411/8/4
f 411/8/4 410/8/4 412/8/4
f 409/8/4 411/8/4 413/8/4
f 412/8/4 410/8/4 414/8/4
f 407/1/4 409/1/4 415/1/4
f 413/8/4 414/8/4 415/8/4
f 409/8/4 413/8/4 415/8/4
f 414/8/4 410/8/4 416/8/4
f 415/8/4 414/8/4 416/8/4
f 410/1/4 408/1/4 416/1/4
f 407/1/4 415/1/4 417/1/4
f 415/1/4 416/1/4 417/1/4
f 416/1/4 408/1/4 418/1/4
f 417/1/4 416/1/4 418/1/4
f 423/1/5 420/1/5 419/1/5
f 424/1/5 422/1/5 421/1/5
f 425/1/5 423/1/5 419/1/5
f 425/8/5 424/8/5 423/8/5
f 426/1/5 422/1/5 424/1/5
f 426/8/5 424/8/5 425/8/5
f 427/1/5 425/1/5 419/1/5
f 427/1/5 426/1/5 425/1/5
f 428/1/5 422/1/5 426/1/5
f 428/1/5 426/1/5 427/1/5
f 431/1/5 430/1/5 429/1/5
f 432/1/5 430/1/5 431/1/5
f 435/1/5 434/1/5 433/1/5
f 436/1/5 434/1/5 435/1/5
f 439/7/5 438/7/5 437/7/5
f 440/7/5 438/7/5 439/7/5
f 443/1/5 442/1/5 441/1/5
f 444/1/5 442/1/5 443/1/5
f 447/10/5 446/10/5 445/10/5
f 448/10/5 446/10/5 447/10/5
f 453/11/5 450/11/5 449/11/5
f 454/11/5 450/11/5 453/11/5
f 455/11/5 452/11/5 451/11/5
f 456/11/5 452/11/5 455/11/5
f 459/1/5 458/1/5 457/1/5
f 460/1/5 458/1/5 459/1/5
f 463/1/5 462/1/5 461/1/5
f 464/1/5 462/1/5 463/1/5
f 467/1/5 466/1/5 465/1/5
f 468/1/5 466/1/5 467/1/5
f 469/1/5 466/1/5 468/1/5
f 470/1/5 466/1/5 469/1/5
f 471/1/5 469/1/5 468/1/5
f 472/1/5 469/1/5 471/1/5
f 475/1/5 474/1/5 473/1/5
f 476/1/5 474/1/5 475/1/5
f 479/1/5 478/1/5 477/1/5
f 480/1/5 478/1/5 479/1/5
f 483/11/5 482/11/5 481/11/5
f 484/11/5 482/11/5 483/11/5
f 485/11/5 483/11/5 481/11/5
f 486/11/5 482/11/5 484/11/5
f 487/11/5 485/11/5 481/11/5
f 487/11/5 486/11/5 485/11/5
f 488/11/5 482/11/5 486/11/5
f 488/11/5 486/11/5 487/11/5
f 491/8/5 490/8/5 489/8/5
f 492/8/5 490/8/5 491/8/5
f 495/6/5 494/6/5 493/6/5
f 496/6/5 494/6/5 495/6/5
f 499/1/5 498/1/5 497/1/5
f 500/1/5 498/1/5 499/1/5
f 501/1/5 499/1/5 497/1/5
f 502/2/5 500/2/5 499/2/5
f 502/1/5 499/1/5 501/1/5
f 503/1/5 498/1/5 500/1/5
f 503/2/5 500/2/5 502/2/5
f 504/1/5 498/1/5 503/1/5
f 505/10/6 506/10/6 507/10/6
f 507/10/6 506/10/6 508/10/6
f 509/11/6 510/11/6 513/11/6
f 513/11/6 510/11/6 514/11/6
f 511/11/6 512/11/6 515/11/6
f 515/11/6 512/11/6 516/11/6
f 517/7/6 518/7/6 519/7/6
f 519/7/6 518/7/6 520/7/6
f 521/7/6 522/7/6 523/7/6
f 523/7/6 522/7/6 524/7/6
f 524/7/6 522/7/6 525/7/6
f 525/7/6 522/7/6 526/7/6
f 521/7/6 523/7/6 527/7/6
f 527/7/6 523/7/6 528/7/6
f 528/7/6 523/7/6 529/7/6
f 524/7/6 525/7/6 530/7/6
f 530/7/6 525/7/6 531/7/6
f 526/7/6 522/7/6 532/7/6
f 530/7/6 531/7/6 533/7/6
f 531/7/6 532/7/6 533/7/6
f 528/7/6 529/7/6 533/7/6
f 529/7/6 530/7/6 533/7/6
f 533/7/6 532/7/6 534/7/6
f 534/7/6 532/7/6 535/7/6
f 532/7/6 522/7/6 536/7/6
f 535/7/6 532/7/6 536/7/6
f 521/7/6 527/7/6 537/7/6
f 528/7/6 533/7/6 538/7/6
f 538/7/6 533/7/6 539/7/6
f 537/7/6 538/7/6 539/7/6
f 534/7/6 535/7/6 540/7/6
f 540/7/6 535/7/6 541/7/6
f 536/7/6 522/7/6 542/7/6
f 537/7/6 539/7/6 543/7/6
f 541/7/6 542/7/6 543/7/6
f 540/7/6 541/7/6 543/7/6
f 521/7/6 537/7/6 543/7/6
f 539/7/6 540/7/6 543/7/6
f 543/7/6 542/7/6 544/7/6
f 542/7/6 522/7/6 545/7/6
f 544/7/6 542/7/6 545/7/6
f 545/7/6 522/7/6 546/7/6
f 551/9/6 552/9/6 553/9/6
f 553/9/6 552/9/6 554/9/6
f 547/12/6 548/12/6 555/12/6
f 555/12/6 548/12/6 556/12/6
f 549/11/6 550/11/6 557/11/6
f 557/11/6 550/11/6 558/11/6
f 551/9/6 553/9/6 559/9/6
f 554/9/6 552/9/6 560/9/6
f 551/9/6 559/9/6 565/9/6
f 559/9/6 560/9/6 565/9/6
f 560/9/6 552/9/6 566/9/6
f 565/9/6 560/9/6 566/9/6
f 561/5/6 562/5/6 567/5/6
f 567/5/6 562/5/6 568/5/6
f 563/4/6 564/4/6 569/4/6
f 569/4/6 564/4/6 570/4/6
f 571/6/6 572/6/6 573/6/6
f 573/6/6 572/6/6 574/6/6
f 575/11/6 576/11/6 577/11/6
f 577/11/6 576/11/6 578/11/6
f 579/8/6 580/8/6 581/8/6
f 581/8/6 580/8/6 582/8/6
f 583/1/6 584/1/6 585/1/6
f 585/1/6 584/1/6 586/1/6
f 587/1/6 588/1/6 589/1/6
f 589/1/6 588/1/6 590/1/6
f 591/1/6 592/1/6 593/1/6
f 593/1/6 592/1/6 594/1/6
f 595/1/6 596/1/6 597/1/6
f 597/1/6 596/1/6 598/1/6
f 599/1/6 600/1/6 601/1/6
f 601/1/6 600/1/6 602/1/6
f 603/1/6 604/1/6 605/1/6
f 605/1/6 604/1/6 606/1/6
f 607/1/6 608/1/6 609/1/6
f 609/1/6 608/1/6 610/1/6
f 611/1/6 612/1/6 613/1/6
f 613/1/6 612/1/6 614/1/6
f 615/1/6 616/1/6 617/1/6
f 617/1/6 616/1/6 618/1/6
f 619/1/6 620/1/6 621/1/6
f 621/1/6 620/1/6 622/1/6
