# MagicaVoxel @ ephtracy

# material
mtllib 03_arcade_16X.mtl
usemtl palette

# normals
vn -1 0 0
vn 1 0 0
vn 0 0 1
vn 0 0 -1
vn 0 -1 0
vn 0 1 0

# texcoords
vt 0.0332031 0.5
vt 0.0371094 0.5
vt 0.0488281 0.5
vt 0.0761719 0.5
vt 0.0957031 0.5
vt 0.0996094 0.5
vt 0.103516 0.5
vt 0.107422 0.5
vt 0.111328 0.5
vt 0.142578 0.5
vt 0.158203 0.5

# verts
v -16 0 17.5
v -16 0 -12.5
v -16 3 -12.5
v -16 3 -13.5
v -16 9 -13.5
v -16 9 -14.5
v -16 15 -14.5
v -16 15 -15.5
v -16 21 -15.5
v -16 21 -16.5
v -16 27 -16.5
v -16 27 -17.5
v -16 31 19.5
v -16 31 17.5
v -16 33 -17.5
v -16 33 -18.5
v -16 39 -18.5
v -16 39 -19.5
v -16 40 19.5
v -16 40 12.5
v -16 41 19.5
v -16 41 12.5
v -16 71 -18.5
v -16 71 -19.5
v -16 72 19.5
v -16 72 12.5
v -16 72 -17.5
v -16 72 -18.5
v -16 73 -16.5
v -16 73 -17.5
v -16 74 -15.5
v -16 74 -16.5
v -16 75 -14.5
v -16 75 -15.5
v -16 76 -13.5
v -16 76 -14.5
v -16 77 -12.5
v -16 77 -13.5
v -16 78 -11.5
v -16 78 -12.5
v -16 79 -10.5
v -16 79 -11.5
v -16 80 19.5
v -16 80 -10.5
v -9 13 13.5
v -9 13 12.5
v -9 24 13.5
v -9 24 12.5
v -7 19 14.5
v -7 19 13.5
v -7 22 14.5
v -7 22 13.5
v -6 41 17.5
v -6 41 14.5
v -6 42 17.5
v -6 42 14.5
v -6 45 17.5
v -6 45 14.5
v -6 48 17.5
v -6 48 14.5
v -5 42 16.5
v -5 42 15.5
v -5 45 16.5
v -5 45 15.5
v -3 19 14.5
v -3 19 13.5
v -3 22 14.5
v -3 22 13.5
v 0 41 18.5
v 0 41 16.5
v 0 41 15.5
v 0 41 13.5
v 0 42 18.5
v 0 42 16.5
v 0 42 15.5
v 0 42 13.5
v 4 41 18.5
v 4 41 16.5
v 4 41 15.5
v 4 41 13.5
v 4 42 18.5
v 4 42 16.5
v 4 42 15.5
v 4 42 13.5
v 6 17 14.5
v 6 17 13.5
v 6 19 14.5
v 6 19 13.5
v 10 45 12.5
v 10 45 -16.5
v 10 68 12.5
v 10 68 -16.5
v 15 0 16.5
v 15 0 12.5
v 15 31 16.5
v 15 31 12.5
v -15 0 17.5
v -15 0 12.5
v -15 31 17.5
v -15 31 12.5
v -10 45 12.5
v -10 45 -16.5
v -10 68 12.5
v -10 68 -16.5
v -5 19 14.5
v -5 19 13.5
v -5 22 14.5
v -5 22 13.5
v -4 42 16.5
v -4 42 15.5
v -4 45 16.5
v -4 45 15.5
v -3 41 17.5
v -3 41 14.5
v -3 42 17.5
v -3 42 14.5
v -3 45 17.5
v -3 45 14.5
v -3 48 17.5
v -3 48 14.5
v -1 19 14.5
v -1 19 13.5
v -1 22 14.5
v -1 22 13.5
v 2 41 18.5
v 2 41 16.5
v 2 41 15.5
v 2 41 13.5
v 2 42 18.5
v 2 42 16.5
v 2 42 15.5
v 2 42 13.5
v 6 41 18.5
v 6 41 16.5
v 6 41 15.5
v 6 41 13.5
v 6 42 18.5
v 6 42 16.5
v 6 42 15.5
v 6 42 13.5
v 8 17 14.5
v 8 17 13.5
v 8 19 14.5
v 8 19 13.5
v 9 13 13.5
v 9 13 12.5
v 9 24 13.5
v 9 24 12.5
v 16 0 16.5
v 16 0 -12.5
v 16 3 -12.5
v 16 3 -13.5
v 16 9 -13.5
v 16 9 -14.5
v 16 15 -14.5
v 16 15 -15.5
v 16 21 -15.5
v 16 21 -16.5
v 16 27 -16.5
v 16 27 -17.5
v 16 31 19.5
v 16 31 16.5
v 16 33 -17.5
v 16 33 -18.5
v 16 39 -18.5
v 16 39 -19.5
v 16 40 19.5
v 16 40 12.5
v 16 41 19.5
v 16 41 12.5
v 16 71 -18.5
v 16 71 -19.5
v 16 72 19.5
v 16 72 12.5
v 16 72 -17.5
v 16 72 -18.5
v 16 73 -16.5
v 16 73 -17.5
v 16 74 -15.5
v 16 74 -16.5
v 16 75 -14.5
v 16 75 -15.5
v 16 76 -13.5
v 16 76 -14.5
v 16 77 -12.5
v 16 77 -13.5
v 16 78 -11.5
v 16 78 -12.5
v 16 79 -10.5
v 16 79 -11.5
v 16 80 19.5
v 16 80 -10.5
v -16 31 19.5
v -16 40 19.5
v -16 41 19.5
v -16 72 19.5
v -16 80 19.5
v 16 31 19.5
v 16 40 19.5
v 16 41 19.5
v 16 72 19.5
v 16 80 19.5
v 0 41 18.5
v 0 42 18.5
v 2 41 18.5
v 2 42 18.5
v 4 41 18.5
v 4 42 18.5
v 6 41 18.5
v 6 42 18.5
v -16 0 17.5
v -16 31 17.5
v -15 0 17.5
v -15 31 17.5
v -6 41 17.5
v -6 42 17.5
v -6 45 17.5
v -6 48 17.5
v -3 41 17.5
v -3 42 17.5
v -3 45 17.5
v -3 48 17.5
v -5 42 16.5
v -5 45 16.5
v -4 42 16.5
v -4 45 16.5
v 15 0 16.5
v 15 31 16.5
v 16 0 16.5
v 16 31 16.5
v 0 41 15.5
v 0 42 15.5
v 2 41 15.5
v 2 42 15.5
v 4 41 15.5
v 4 42 15.5
v 6 41 15.5
v 6 42 15.5
v -7 19 14.5
v -7 22 14.5
v -5 19 14.5
v -5 22 14.5
v -3 19 14.5
v -3 22 14.5
v -1 19 14.5
v -1 22 14.5
v 6 17 14.5
v 6 19 14.5
v 8 17 14.5
v 8 19 14.5
v -9 13 13.5
v -9 24 13.5
v -7 19 13.5
v -7 22 13.5
v -5 19 13.5
v -5 22 13.5
v -3 19 13.5
v -3 22 13.5
v -1 19 13.5
v -1 22 13.5
v 6 17 13.5
v 6 19 13.5
v 8 17 13.5
v 8 19 13.5
v 9 13 13.5
v 9 24 13.5
v -16 41 12.5
v -16 72 12.5
v -15 0 12.5
v -15 31 12.5
v -15 41 12.5
v -15 72 12.5
v -11 44 12.5
v -11 69 12.5
v -10 45 12.5
v -10 68 12.5
v -9 13 12.5
v -9 24 12.5
v 9 13 12.5
v 9 24 12.5
v 10 45 12.5
v 10 68 12.5
v 11 44 12.5
v 11 69 12.5
v 15 0 12.5
v 15 31 12.5
v 15 41 12.5
v 15 72 12.5
v 16 41 12.5
v 16 72 12.5
v -10 45 -16.5
v -10 68 -16.5
v 10 45 -16.5
v 10 68 -16.5
v 0 41 16.5
v 0 42 16.5
v 2 41 16.5
v 2 42 16.5
v 4 41 16.5
v 4 42 16.5
v 6 41 16.5
v 6 42 16.5
v -5 42 15.5
v -5 45 15.5
v -4 42 15.5
v -4 45 15.5
v -6 41 14.5
v -6 42 14.5
v -6 45 14.5
v -6 48 14.5
v -3 41 14.5
v -3 42 14.5
v -3 45 14.5
v -3 48 14.5
v 0 41 13.5
v 0 42 13.5
v 2 41 13.5
v 2 42 13.5
v 4 41 13.5
v 4 42 13.5
v 6 41 13.5
v 6 42 13.5
v -16 79 -10.5
v -16 80 -10.5
v 16 79 -10.5
v 16 80 -10.5
v -16 78 -11.5
v -16 79 -11.5
v 16 78 -11.5
v 16 79 -11.5
v -16 0 -12.5
v -16 3 -12.5
v -16 77 -12.5
v -16 78 -12.5
v 16 0 -12.5
v 16 3 -12.5
v 16 77 -12.5
v 16 78 -12.5
v -16 3 -13.5
v -16 9 -13.5
v -16 76 -13.5
v -16 77 -13.5
v 16 3 -13.5
v 16 9 -13.5
v 16 76 -13.5
v 16 77 -13.5
v -16 9 -14.5
v -16 15 -14.5
v -16 75 -14.5
v -16 76 -14.5
v 16 9 -14.5
v 16 15 -14.5
v 16 75 -14.5
v 16 76 -14.5
v -16 15 -15.5
v -16 21 -15.5
v -16 74 -15.5
v -16 75 -15.5
v 16 15 -15.5
v 16 21 -15.5
v 16 74 -15.5
v 16 75 -15.5
v -16 21 -16.5
v -16 27 -16.5
v -16 73 -16.5
v -16 74 -16.5
v 16 21 -16.5
v 16 27 -16.5
v 16 73 -16.5
v 16 74 -16.5
v -16 27 -17.5
v -16 33 -17.5
v -16 72 -17.5
v -16 73 -17.5
v 16 27 -17.5
v 16 33 -17.5
v 16 72 -17.5
v 16 73 -17.5
v -16 33 -18.5
v -16 39 -18.5
v -16 71 -18.5
v -16 72 -18.5
v 16 33 -18.5
v 16 39 -18.5
v 16 71 -18.5
v 16 72 -18.5
v -16 39 -19.5
v -16 71 -19.5
v 16 39 -19.5
v 16 71 -19.5
v -16 0 17.5
v -15 0 17.5
v 15 0 16.5
v 16 0 16.5
v -15 0 12.5
v 15 0 12.5
v -15 0 11.5
v 15 0 11.5
v -16 0 -12.5
v 16 0 -12.5
v -16 3 -12.5
v 16 3 -12.5
v -16 3 -13.5
v 16 3 -13.5
v -16 9 -13.5
v 16 9 -13.5
v -16 9 -14.5
v 16 9 -14.5
v -9 13 13.5
v 9 13 13.5
v -9 13 12.5
v 9 13 12.5
v -16 15 -14.5
v 16 15 -14.5
v -16 15 -15.5
v 16 15 -15.5
v 6 17 14.5
v 8 17 14.5
v 6 17 13.5
v 8 17 13.5
v -7 19 14.5
v -5 19 14.5
v -3 19 14.5
v -1 19 14.5
v -7 19 13.5
v -5 19 13.5
v -3 19 13.5
v -1 19 13.5
v -16 21 -15.5
v 16 21 -15.5
v -16 21 -16.5
v 16 21 -16.5
v -16 27 -16.5
v 16 27 -16.5
v -16 27 -17.5
v 16 27 -17.5
v -16 31 19.5
v 16 31 19.5
v -16 31 17.5
v -15 31 17.5
v 15 31 16.5
v 16 31 16.5
v -15 31 12.5
v 15 31 12.5
v -16 33 -17.5
v 16 33 -17.5
v -16 33 -18.5
v 16 33 -18.5
v -16 39 -18.5
v 16 39 -18.5
v -16 39 -19.5
v 16 39 -19.5
v -6 45 17.5
v -3 45 17.5
v -5 45 16.5
v -4 45 16.5
v -5 45 15.5
v -4 45 15.5
v -6 45 14.5
v -3 45 14.5
v -10 68 12.5
v 10 68 12.5
v -10 68 -16.5
v 10 68 -16.5
v -16 72 19.5
v 16 72 19.5
v -15 72 18.5
v 15 72 18.5
v -16 72 12.5
v -15 72 12.5
v 15 72 12.5
v 16 72 12.5
v 6 19 14.5
v 8 19 14.5
v 6 19 13.5
v 8 19 13.5
v -7 22 14.5
v -5 22 14.5
v -3 22 14.5
v -1 22 14.5
v -7 22 13.5
v -5 22 13.5
v -3 22 13.5
v -1 22 13.5
v -9 24 13.5
v 9 24 13.5
v -9 24 12.5
v 9 24 12.5
v -16 41 19.5
v 16 41 19.5
v 0 41 18.5
v 2 41 18.5
v 4 41 18.5
v 6 41 18.5
v -6 41 17.5
v -3 41 17.5
v 0 41 16.5
v 2 41 16.5
v 4 41 16.5
v 6 41 16.5
v 0 41 15.5
v 2 41 15.5
v 4 41 15.5
v 6 41 15.5
v -6 41 14.5
v -3 41 14.5
v 0 41 13.5
v 2 41 13.5
v 4 41 13.5
v 6 41 13.5
v -16 41 12.5
v -15 41 12.5
v 15 41 12.5
v 16 41 12.5
v 0 42 18.5
v 2 42 18.5
v 4 42 18.5
v 6 42 18.5
v -6 42 17.5
v -3 42 17.5
v -5 42 16.5
v -4 42 16.5
v 0 42 16.5
v 2 42 16.5
v 4 42 16.5
v 6 42 16.5
v -5 42 15.5
v -4 42 15.5
v 0 42 15.5
v 2 42 15.5
v 4 42 15.5
v 6 42 15.5
v -6 42 14.5
v -3 42 14.5
v 0 42 13.5
v 2 42 13.5
v 4 42 13.5
v 6 42 13.5
v -10 45 12.5
v 10 45 12.5
v -10 45 -16.5
v 10 45 -16.5
v -6 48 17.5
v -3 48 17.5
v -6 48 14.5
v -3 48 14.5
v -16 71 -18.5
v 16 71 -18.5
v -16 71 -19.5
v 16 71 -19.5
v -16 72 -17.5
v 16 72 -17.5
v -16 72 -18.5
v 16 72 -18.5
v -16 73 -16.5
v 16 73 -16.5
v -16 73 -17.5
v 16 73 -17.5
v -16 74 -15.5
v 16 74 -15.5
v -16 74 -16.5
v 16 74 -16.5
v -16 75 -14.5
v 16 75 -14.5
v -16 75 -15.5
v 16 75 -15.5
v -16 76 -13.5
v 16 76 -13.5
v -16 76 -14.5
v 16 76 -14.5
v -16 77 -12.5
v 16 77 -12.5
v -16 77 -13.5
v 16 77 -13.5
v -16 78 -11.5
v 16 78 -11.5
v -16 78 -12.5
v 16 78 -12.5
v -16 79 -10.5
v 16 79 -10.5
v -16 79 -11.5
v 16 79 -11.5
v -16 80 19.5
v 16 80 19.5
v -16 80 -10.5
v 16 80 -10.5

# faces
f 3/1/1 2/1/1 1/1/1
f 5/1/1 4/1/1 3/1/1
f 7/1/1 6/1/1 5/1/1
f 9/1/1 8/1/1 7/1/1
f 11/1/1 10/1/1 9/1/1
f 14/1/1 3/1/1 1/1/1
f 14/1/1 12/1/1 11/1/1
f 14/1/1 11/1/1 9/1/1
f 14/1/1 9/1/1 7/1/1
f 14/1/1 7/1/1 5/1/1
f 14/1/1 5/1/1 3/1/1
f 15/1/1 12/1/1 14/1/1
f 15/1/1 14/1/1 13/1/1
f 17/1/1 16/1/1 15/1/1
f 19/1/1 15/1/1 13/1/1
f 19/1/1 18/1/1 17/1/1
f 19/1/1 17/1/1 15/1/1
f 20/1/1 18/1/1 19/1/1
f 21/6/1 20/6/1 19/6/1
f 22/1/1 18/1/1 20/1/1
f 22/6/1 20/6/1 21/6/1
f 23/1/1 18/1/1 22/1/1
f 24/1/1 18/1/1 23/1/1
f 26/1/1 23/1/1 22/1/1
f 27/1/1 23/1/1 26/1/1
f 28/1/1 23/1/1 27/1/1
f 29/1/1 26/1/1 25/1/1
f 29/1/1 27/1/1 26/1/1
f 30/1/1 27/1/1 29/1/1
f 31/1/1 29/1/1 25/1/1
f 32/1/1 29/1/1 31/1/1
f 33/1/1 31/1/1 25/1/1
f 34/1/1 31/1/1 33/1/1
f 35/1/1 33/1/1 25/1/1
f 36/1/1 33/1/1 35/1/1
f 37/1/1 35/1/1 25/1/1
f 38/1/1 35/1/1 37/1/1
f 39/1/1 37/1/1 25/1/1
f 40/1/1 37/1/1 39/1/1
f 41/1/1 39/1/1 25/1/1
f 42/1/1 39/1/1 41/1/1
f 43/1/1 41/1/1 25/1/1
f 44/1/1 41/1/1 43/1/1
f 47/6/1 46/6/1 45/6/1
f 48/6/1 46/6/1 47/6/1
f 51/10/1 50/10/1 49/10/1
f 52/10/1 50/10/1 51/10/1
f 55/8/1 54/8/1 53/8/1
f 56/8/1 54/8/1 55/8/1
f 59/10/1 58/10/1 57/10/1
f 60/10/1 58/10/1 59/10/1
f 63/9/1 62/9/1 61/9/1
f 64/9/1 62/9/1 63/9/1
f 67/10/1 66/10/1 65/10/1
f 68/10/1 66/10/1 67/10/1
f 73/11/1 70/11/1 69/11/1
f 74/11/1 70/11/1 73/11/1
f 75/4/1 72/4/1 71/4/1
f 76/4/1 72/4/1 75/4/1
f 81/10/1 78/10/1 77/10/1
f 82/10/1 78/10/1 81/10/1
f 83/3/1 80/3/1 79/3/1
f 84/3/1 80/3/1 83/3/1
f 87/9/1 86/9/1 85/9/1
f 88/9/1 86/9/1 87/9/1
f 91/5/1 90/5/1 89/5/1
f 92/5/1 90/5/1 91/5/1
f 95/1/1 94/1/1 93/1/1
f 96/1/1 94/1/1 95/1/1
f 97/1/2 98/1/2 99/1/2
f 99/1/2 98/1/2 100/1/2
f 101/5/2 102/5/2 103/5/2
f 103/5/2 102/5/2 104/5/2
f 105/10/2 106/10/2 107/10/2
f 107/10/2 106/10/2 108/10/2
f 109/9/2 110/9/2 111/9/2
f 111/9/2 110/9/2 112/9/2
f 113/8/2 114/8/2 115/8/2
f 115/8/2 114/8/2 116/8/2
f 117/10/2 118/10/2 119/10/2
f 119/10/2 118/10/2 120/10/2
f 121/10/2 122/10/2 123/10/2
f 123/10/2 122/10/2 124/10/2
f 125/11/2 126/11/2 129/11/2
f 129/11/2 126/11/2 130/11/2
f 127/4/2 128/4/2 131/4/2
f 131/4/2 128/4/2 132/4/2
f 133/10/2 134/10/2 137/10/2
f 137/10/2 134/10/2 138/10/2
f 135/3/2 136/3/2 139/3/2
f 139/3/2 136/3/2 140/3/2
f 141/9/2 142/9/2 143/9/2
f 143/9/2 142/9/2 144/9/2
f 145/6/2 146/6/2 147/6/2
f 147/6/2 146/6/2 148/6/2
f 149/1/2 150/1/2 151/1/2
f 151/1/2 152/1/2 153/1/2
f 153/1/2 154/1/2 155/1/2
f 155/1/2 156/1/2 157/1/2
f 157/1/2 158/1/2 159/1/2
f 149/1/2 151/1/2 162/1/2
f 159/1/2 160/1/2 162/1/2
f 157/1/2 159/1/2 162/1/2
f 155/1/2 157/1/2 162/1/2
f 153/1/2 155/1/2 162/1/2
f 151/1/2 153/1/2 162/1/2
f 162/1/2 160/1/2 163/1/2
f 161/1/2 162/1/2 163/1/2
f 163/1/2 164/1/2 165/1/2
f 161/1/2 163/1/2 167/1/2
f 165/1/2 166/1/2 167/1/2
f 163/1/2 165/1/2 167/1/2
f 167/1/2 166/1/2 168/1/2
f 167/6/2 168/6/2 169/6/2
f 168/1/2 166/1/2 170/1/2
f 169/6/2 168/6/2 170/6/2
f 170/1/2 166/1/2 171/1/2
f 171/1/2 166/1/2 172/1/2
f 170/1/2 171/1/2 174/1/2
f 174/1/2 171/1/2 175/1/2
f 175/1/2 171/1/2 176/1/2
f 173/1/2 174/1/2 177/1/2
f 174/1/2 175/1/2 177/1/2
f 177/1/2 175/1/2 178/1/2
f 173/1/2 177/1/2 179/1/2
f 179/1/2 177/1/2 180/1/2
f 173/1/2 179/1/2 181/1/2
f 181/1/2 179/1/2 182/1/2
f 173/1/2 181/1/2 183/1/2
f 183/1/2 181/1/2 184/1/2
f 173/1/2 183/1/2 185/1/2
f 185/1/2 183/1/2 186/1/2
f 173/1/2 185/1/2 187/1/2
f 187/1/2 185/1/2 188/1/2
f 173/1/2 187/1/2 189/1/2
f 189/1/2 187/1/2 190/1/2
f 173/1/2 189/1/2 191/1/2
f 191/1/2 189/1/2 192/1/2
f 198/1/3 194/1/3 193/1/3
f 199/6/3 195/6/3 194/6/3
f 199/1/3 194/1/3 198/1/3
f 200/6/3 195/6/3 199/6/3
f 201/1/3 197/1/3 196/1/3
f 202/1/3 197/1/3 201/1/3
f 205/11/3 204/11/3 203/11/3
f 206/11/3 204/11/3 205/11/3
f 209/10/3 208/10/3 207/10/3
f 210/10/3 208/10/3 209/10/3
f 213/1/3 212/1/3 211/1/3
f 214/1/3 212/1/3 213/1/3
f 219/8/3 216/8/3 215/8/3
f 220/8/3 216/8/3 219/8/3
f 221/10/3 218/10/3 217/10/3
f 222/10/3 218/10/3 221/10/3
f 225/9/3 224/9/3 223/9/3
f 226/9/3 224/9/3 225/9/3
f 229/1/3 228/1/3 227/1/3
f 230/1/3 228/1/3 229/1/3
f 233/4/3 232/4/3 231/4/3
f 234/4/3 232/4/3 233/4/3
f 237/3/3 236/3/3 235/3/3
f 238/3/3 236/3/3 237/3/3
f 241/10/3 240/10/3 239/10/3
f 242/10/3 240/10/3 241/10/3
f 245/10/3 244/10/3 243/10/3
f 246/10/3 244/10/3 245/10/3
f 249/9/3 248/9/3 247/9/3
f 250/9/3 248/9/3 249/9/3
f 253/6/3 252/6/3 251/6/3
f 254/6/3 252/6/3 253/6/3
f 255/6/3 253/6/3 251/6/3
f 256/6/3 252/6/3 254/6/3
f 257/6/3 255/6/3 251/6/3
f 257/6/3 256/6/3 255/6/3
f 258/6/3 252/6/3 256/6/3
f 258/6/3 256/6/3 257/6/3
f 259/6/3 257/6/3 251/6/3
f 260/6/3 252/6/3 258/6/3
f 261/6/3 259/6/3 251/6/3
f 261/6/3 260/6/3 259/6/3
f 262/6/3 260/6/3 261/6/3
f 263/6/3 261/6/3 251/6/3
f 264/6/3 260/6/3 262/6/3
f 265/6/3 263/6/3 251/6/3
f 265/6/3 264/6/3 263/6/3
f 266/6/3 252/6/3 260/6/3
f 266/6/3 264/6/3 265/6/3
f 266/6/3 260/6/3 264/6/3
f 271/1/3 268/1/3 267/1/3
f 272/1/3 268/1/3 271/1/3
f 273/2/3 272/2/3 271/2/3
f 274/2/3 272/2/3 273/2/3
f 275/5/3 274/5/3 273/5/3
f 276/5/3 274/5/3 275/5/3
f 277/7/3 270/7/3 269/7/3
f 278/7/3 270/7/3 277/7/3
f 279/7/3 277/7/3 269/7/3
f 280/7/3 270/7/3 278/7/3
f 281/5/3 275/5/3 273/5/3
f 282/5/3 274/5/3 276/5/3
f 283/5/3 281/5/3 273/5/3
f 283/5/3 282/5/3 281/5/3
f 283/2/3 273/2/3 271/2/3
f 284/5/3 274/5/3 282/5/3
f 284/5/3 282/5/3 283/5/3
f 284/2/3 272/2/3 274/2/3
f 285/7/3 280/7/3 279/7/3
f 285/7/3 279/7/3 269/7/3
f 286/7/3 270/7/3 280/7/3
f 286/7/3 280/7/3 285/7/3
f 287/2/3 283/2/3 271/2/3
f 287/2/3 284/2/3 283/2/3
f 288/2/3 272/2/3 284/2/3
f 288/2/3 284/2/3 287/2/3
f 289/1/3 288/1/3 287/1/3
f 290/1/3 288/1/3 289/1/3
f 293/5/3 292/5/3 291/5/3
f 294/5/3 292/5/3 293/5/3
f 295/11/4 296/11/4 297/11/4
f 297/11/4 296/11/4 298/11/4
f 299/10/4 300/10/4 301/10/4
f 301/10/4 300/10/4 302/10/4
f 303/9/4 304/9/4 305/9/4
f 305/9/4 304/9/4 306/9/4
f 307/8/4 308/8/4 311/8/4
f 311/8/4 308/8/4 312/8/4
f 309/10/4 310/10/4 313/10/4
f 313/10/4 310/10/4 314/10/4
f 315/4/4 316/4/4 317/4/4
f 317/4/4 316/4/4 318/4/4
f 319/3/4 320/3/4 321/3/4
f 321/3/4 320/3/4 322/3/4
f 323/1/4 324/1/4 325/1/4
f 325/1/4 324/1/4 326/1/4
f 327/1/4 328/1/4 329/1/4
f 329/1/4 328/1/4 330/1/4
f 331/1/4 332/1/4 335/1/4
f 335/1/4 332/1/4 336/1/4
f 333/1/4 334/1/4 337/1/4
f 337/1/4 334/1/4 338/1/4
f 339/1/4 340/1/4 343/1/4
f 343/1/4 340/1/4 344/1/4
f 341/1/4 342/1/4 345/1/4
f 345/1/4 342/1/4 346/1/4
f 347/1/4 348/1/4 351/1/4
f 351/1/4 348/1/4 352/1/4
f 349/1/4 350/1/4 353/1/4
f 353/1/4 350/1/4 354/1/4
f 355/1/4 356/1/4 359/1/4
f 359/1/4 356/1/4 360/1/4
f 357/1/4 358/1/4 361/1/4
f 361/1/4 358/1/4 362/1/4
f 363/1/4 364/1/4 367/1/4
f 367/1/4 364/1/4 368/1/4
f 365/1/4 366/1/4 369/1/4
f 369/1/4 366/1/4 370/1/4
f 371/1/4 372/1/4 375/1/4
f 375/1/4 372/1/4 376/1/4
f 373/1/4 374/1/4 377/1/4
f 377/1/4 374/1/4 378/1/4
f 379/1/4 380/1/4 383/1/4
f 383/1/4 380/1/4 384/1/4
f 381/1/4 382/1/4 385/1/4
f 385/1/4 382/1/4 386/1/4
f 387/1/4 388/1/4 389/1/4
f 389/1/4 388/1/4 390/1/4
f 395/1/5 392/1/5 391/1/5
f 396/1/5 394/1/5 393/1/5
f 397/1/5 395/1/5 391/1/5
f 397/7/5 396/7/5 395/7/5
f 398/1/5 394/1/5 396/1/5
f 398/7/5 396/7/5 397/7/5
f 399/1/5 397/1/5 391/1/5
f 399/1/5 398/1/5 397/1/5
f 400/1/5 394/1/5 398/1/5
f 400/1/5 398/1/5 399/1/5
f 403/1/5 402/1/5 401/1/5
f 404/1/5 402/1/5 403/1/5
f 407/1/5 406/1/5 405/1/5
f 408/1/5 406/1/5 407/1/5
f 411/6/5 410/6/5 409/6/5
f 412/6/5 410/6/5 411/6/5
f 415/1/5 414/1/5 413/1/5
f 416/1/5 414/1/5 415/1/5
f 419/9/5 418/9/5 417/9/5
f 420/9/5 418/9/5 419/9/5
f 425/10/5 422/10/5 421/10/5
f 426/10/5 422/10/5 425/10/5
f 427/10/5 424/10/5 423/10/5
f 428/10/5 424/10/5 427/10/5
f 431/1/5 430/1/5 429/1/5
f 432/1/5 430/1/5 431/1/5
f 435/1/5 434/1/5 433/1/5
f 436/1/5 434/1/5 435/1/5
f 439/1/5 438/1/5 437/1/5
f 440/1/5 438/1/5 439/1/5
f 441/1/5 438/1/5 440/1/5
f 442/1/5 438/1/5 441/1/5
f 443/1/5 441/1/5 440/1/5
f 444/1/5 441/1/5 443/1/5
f 447/1/5 446/1/5 445/1/5
f 448/1/5 446/1/5 447/1/5
f 451/1/5 450/1/5 449/1/5
f 452/1/5 450/1/5 451/1/5
f 455/10/5 454/10/5 453/10/5
f 456/10/5 454/10/5 455/10/5
f 457/10/5 455/10/5 453/10/5
f 458/10/5 454/10/5 456/10/5
f 459/10/5 457/10/5 453/10/5
f 459/10/5 458/10/5 457/10/5
f 460/10/5 454/10/5 458/10/5
f 460/10/5 458/10/5 459/10/5
f 463/5/5 462/5/5 461/5/5
f 464/5/5 462/5/5 463/5/5
f 467/1/5 466/1/5 465/1/5
f 468/1/5 466/1/5 467/1/5
f 469/1/5 467/1/5 465/1/5
f 470/2/5 468/2/5 467/2/5
f 470/1/5 467/1/5 469/1/5
f 471/1/5 466/1/5 468/1/5
f 471/2/5 468/2/5 470/2/5
f 472/1/5 466/1/5 471/1/5
f 473/9/6 474/9/6 475/9/6
f 475/9/6 474/9/6 476/9/6
f 477/10/6 478/10/6 481/10/6
f 481/10/6 478/10/6 482/10/6
f 479/10/6 480/10/6 483/10/6
f 483/10/6 480/10/6 484/10/6
f 485/6/6 486/6/6 487/6/6
f 487/6/6 486/6/6 488/6/6
f 489/6/6 490/6/6 491/6/6
f 491/6/6 490/6/6 492/6/6
f 492/6/6 490/6/6 493/6/6
f 493/6/6 490/6/6 494/6/6
f 489/6/6 491/6/6 495/6/6
f 495/6/6 491/6/6 496/6/6
f 496/6/6 491/6/6 497/6/6
f 492/6/6 493/6/6 498/6/6
f 498/6/6 493/6/6 499/6/6
f 494/6/6 490/6/6 500/6/6
f 498/6/6 499/6/6 501/6/6
f 499/6/6 500/6/6 501/6/6
f 496/6/6 497/6/6 501/6/6
f 497/6/6 498/6/6 501/6/6
f 501/6/6 500/6/6 502/6/6
f 502/6/6 500/6/6 503/6/6
f 500/6/6 490/6/6 504/6/6
f 503/6/6 500/6/6 504/6/6
f 489/6/6 495/6/6 505/6/6
f 496/6/6 501/6/6 506/6/6
f 506/6/6 501/6/6 507/6/6
f 505/6/6 506/6/6 507/6/6
f 502/6/6 503/6/6 508/6/6
f 508/6/6 503/6/6 509/6/6
f 504/6/6 490/6/6 510/6/6
f 505/6/6 507/6/6 511/6/6
f 509/6/6 510/6/6 511/6/6
f 508/6/6 509/6/6 511/6/6
f 489/6/6 505/6/6 511/6/6
f 507/6/6 508/6/6 511/6/6
f 511/6/6 510/6/6 512/6/6
f 510/6/6 490/6/6 513/6/6
f 512/6/6 510/6/6 513/6/6
f 513/6/6 490/6/6 514/6/6
f 519/8/6 520/8/6 521/8/6
f 521/8/6 520/8/6 522/8/6
f 515/11/6 516/11/6 523/11/6
f 523/11/6 516/11/6 524/11/6
f 517/10/6 518/10/6 525/10/6
f 525/10/6 518/10/6 526/10/6
f 519/8/6 521/8/6 527/8/6
f 522/8/6 520/8/6 528/8/6
f 519/8/6 527/8/6 533/8/6
f 527/8/6 528/8/6 533/8/6
f 528/8/6 520/8/6 534/8/6
f 533/8/6 528/8/6 534/8/6
f 529/4/6 530/4/6 535/4/6
f 535/4/6 530/4/6 536/4/6
f 531/3/6 532/3/6 537/3/6
f 537/3/6 532/3/6 538/3/6
f 539/5/6 540/5/6 541/5/6
f 541/5/6 540/5/6 542/5/6
f 543/10/6 544/10/6 545/10/6
f 545/10/6 544/10/6 546/10/6
f 547/1/6 548/1/6 549/1/6
f 549/1/6 548/1/6 550/1/6
f 551/1/6 552/1/6 553/1/6
f 553/1/6 552/1/6 554/1/6
f 555/1/6 556/1/6 557/1/6
f 557/1/6 556/1/6 558/1/6
f 559/1/6 560/1/6 561/1/6
f 561/1/6 560/1/6 562/1/6
f 563/1/6 564/1/6 565/1/6
f 565/1/6 564/1/6 566/1/6
f 567/1/6 568/1/6 569/1/6
f 569/1/6 568/1/6 570/1/6
f 571/1/6 572/1/6 573/1/6
f 573/1/6 572/1/6 574/1/6
f 575/1/6 576/1/6 577/1/6
f 577/1/6 576/1/6 578/1/6
f 579/1/6 580/1/6 581/1/6
f 581/1/6 580/1/6 582/1/6
f 583/1/6 584/1/6 585/1/6
f 585/1/6 584/1/6 586/1/6
