# MagicaVoxel @ ephtracy

# material
mtllib 03_arcade_16X.mtl
usemtl palette

# normals
vn -1 0 0
vn 1 0 0
vn 0 0 1
vn 0 0 -1
vn 0 -1 0
vn 0 1 0

# texcoords
vt 0.0214844 0.5
vt 0.0683594 0.5
vt 0.0722656 0.5
vt 0.845703 0.5
vt 0.849609 0.5
vt 0.892578 0.5
vt 0.919922 0.5
vt 0.970703 0.5
vt 0.974609 0.5
vt 0.978516 0.5
vt 0.982422 0.5
vt 0.986328 0.5

# verts
v -16 0 17.5
v -16 0 -12.5
v -16 3 -12.5
v -16 3 -13.5
v -16 9 -13.5
v -16 9 -14.5
v -16 15 -14.5
v -16 15 -15.5
v -16 21 -15.5
v -16 21 -16.5
v -16 27 -16.5
v -16 27 -17.5
v -16 31 19.5
v -16 31 17.5
v -16 33 -17.5
v -16 33 -18.5
v -16 39 -18.5
v -16 39 -19.5
v -16 40 19.5
v -16 40 12.5
v -16 41 19.5
v -16 41 12.5
v -16 71 -18.5
v -16 71 -19.5
v -16 72 19.5
v -16 72 12.5
v -16 72 -17.5
v -16 72 -18.5
v -16 73 -16.5
v -16 73 -17.5
v -16 74 -15.5
v -16 74 -16.5
v -16 75 -14.5
v -16 75 -15.5
v -16 76 -13.5
v -16 76 -14.5
v -16 77 -12.5
v -16 77 -13.5
v -16 78 -11.5
v -16 78 -12.5
v -16 79 -10.5
v -16 79 -11.5
v -16 80 19.5
v -16 80 -10.5
v -9 13 13.5
v -9 13 12.5
v -9 24 13.5
v -9 24 12.5
v -7 19 14.5
v -7 19 13.5
v -7 22 14.5
v -7 22 13.5
v -6 41 17.5
v -6 41 14.5
v -6 42 17.5
v -6 42 14.5
v -6 45 17.5
v -6 45 14.5
v -6 48 17.5
v -6 48 14.5
v -5 42 16.5
v -5 42 15.5
v -5 45 16.5
v -5 45 15.5
v -3 19 14.5
v -3 19 13.5
v -3 22 14.5
v -3 22 13.5
v 0 41 18.5
v 0 41 16.5
v 0 41 15.5
v 0 41 13.5
v 0 42 18.5
v 0 42 16.5
v 0 42 15.5
v 0 42 13.5
v 4 41 18.5
v 4 41 16.5
v 4 41 15.5
v 4 41 13.5
v 4 42 18.5
v 4 42 16.5
v 4 42 15.5
v 4 42 13.5
v 6 17 14.5
v 6 17 13.5
v 6 19 14.5
v 6 19 13.5
v 10 45 12.5
v 10 45 -16.5
v 10 68 12.5
v 10 68 -16.5
v 15 0 16.5
v 15 0 12.5
v 15 31 16.5
v 15 31 12.5
v -15 0 17.5
v -15 0 12.5
v -15 31 17.5
v -15 31 12.5
v -10 45 12.5
v -10 45 -16.5
v -10 68 12.5
v -10 68 -16.5
v -5 19 14.5
v -5 19 13.5
v -5 22 14.5
v -5 22 13.5
v -4 42 16.5
v -4 42 15.5
v -4 45 16.5
v -4 45 15.5
v -3 41 17.5
v -3 41 14.5
v -3 42 17.5
v -3 42 14.5
v -3 45 17.5
v -3 45 14.5
v -3 48 17.5
v -3 48 14.5
v -1 19 14.5
v -1 19 13.5
v -1 22 14.5
v -1 22 13.5
v 2 41 18.5
v 2 41 16.5
v 2 41 15.5
v 2 41 13.5
v 2 42 18.5
v 2 42 16.5
v 2 42 15.5
v 2 42 13.5
v 6 41 18.5
v 6 41 16.5
v 6 41 15.5
v 6 41 13.5
v 6 42 18.5
v 6 42 16.5
v 6 42 15.5
v 6 42 13.5
v 8 17 14.5
v 8 17 13.5
v 8 19 14.5
v 8 19 13.5
v 9 13 13.5
v 9 13 12.5
v 9 24 13.5
v 9 24 12.5
v 16 0 16.5
v 16 0 -12.5
v 16 3 -12.5
v 16 3 -13.5
v 16 9 -13.5
v 16 9 -14.5
v 16 15 -14.5
v 16 15 -15.5
v 16 21 -15.5
v 16 21 -16.5
v 16 27 -16.5
v 16 27 -17.5
v 16 31 19.5
v 16 31 16.5
v 16 33 -17.5
v 16 33 -18.5
v 16 39 -18.5
v 16 39 -19.5
v 16 40 19.5
v 16 40 12.5
v 16 41 19.5
v 16 41 12.5
v 16 71 -18.5
v 16 71 -19.5
v 16 72 19.5
v 16 72 12.5
v 16 72 -17.5
v 16 72 -18.5
v 16 73 -16.5
v 16 73 -17.5
v 16 74 -15.5
v 16 74 -16.5
v 16 75 -14.5
v 16 75 -15.5
v 16 76 -13.5
v 16 76 -14.5
v 16 77 -12.5
v 16 77 -13.5
v 16 78 -11.5
v 16 78 -12.5
v 16 79 -10.5
v 16 79 -11.5
v 16 80 19.5
v 16 80 -10.5
v -16 31 19.5
v -16 40 19.5
v -16 41 19.5
v -16 72 19.5
v -16 80 19.5
v 16 31 19.5
v 16 40 19.5
v 16 41 19.5
v 16 72 19.5
v 16 80 19.5
v 0 41 18.5
v 0 42 18.5
v 2 41 18.5
v 2 42 18.5
v 4 41 18.5
v 4 42 18.5
v 6 41 18.5
v 6 42 18.5
v -16 0 17.5
v -16 31 17.5
v -15 0 17.5
v -15 31 17.5
v -6 41 17.5
v -6 42 17.5
v -6 45 17.5
v -6 48 17.5
v -3 41 17.5
v -3 42 17.5
v -3 45 17.5
v -3 48 17.5
v -5 42 16.5
v -5 45 16.5
v -4 42 16.5
v -4 45 16.5
v 15 0 16.5
v 15 31 16.5
v 16 0 16.5
v 16 31 16.5
v 0 41 15.5
v 0 42 15.5
v 2 41 15.5
v 2 42 15.5
v 4 41 15.5
v 4 42 15.5
v 6 41 15.5
v 6 42 15.5
v -7 19 14.5
v -7 22 14.5
v -5 19 14.5
v -5 22 14.5
v -3 19 14.5
v -3 22 14.5
v -1 19 14.5
v -1 22 14.5
v 6 17 14.5
v 6 19 14.5
v 8 17 14.5
v 8 19 14.5
v -9 13 13.5
v -9 24 13.5
v -7 19 13.5
v -7 22 13.5
v -5 19 13.5
v -5 22 13.5
v -3 19 13.5
v -3 22 13.5
v -1 19 13.5
v -1 22 13.5
v 6 17 13.5
v 6 19 13.5
v 8 17 13.5
v 8 19 13.5
v 9 13 13.5
v 9 24 13.5
v -16 41 12.5
v -16 72 12.5
v -15 0 12.5
v -15 31 12.5
v -15 41 12.5
v -15 72 12.5
v -11 44 12.5
v -11 69 12.5
v -10 45 12.5
v -10 68 12.5
v -9 13 12.5
v -9 24 12.5
v 9 13 12.5
v 9 24 12.5
v 10 45 12.5
v 10 68 12.5
v 11 44 12.5
v 11 69 12.5
v 15 0 12.5
v 15 31 12.5
v 15 41 12.5
v 15 72 12.5
v 16 41 12.5
v 16 72 12.5
v -10 45 -16.5
v -10 68 -16.5
v 10 45 -16.5
v 10 68 -16.5
v 0 41 16.5
v 0 42 16.5
v 2 41 16.5
v 2 42 16.5
v 4 41 16.5
v 4 42 16.5
v 6 41 16.5
v 6 42 16.5
v -5 42 15.5
v -5 45 15.5
v -4 42 15.5
v -4 45 15.5
v -6 41 14.5
v -6 42 14.5
v -6 45 14.5
v -6 48 14.5
v -3 41 14.5
v -3 42 14.5
v -3 45 14.5
v -3 48 14.5
v 0 41 13.5
v 0 42 13.5
v 2 41 13.5
v 2 42 13.5
v 4 41 13.5
v 4 42 13.5
v 6 41 13.5
v 6 42 13.5
v -16 79 -10.5
v -16 80 -10.5
v 16 79 -10.5
v 16 80 -10.5
v -16 78 -11.5
v -16 79 -11.5
v 16 78 -11.5
v 16 79 -11.5
v -16 0 -12.5
v -16 3 -12.5
v -16 77 -12.5
v -16 78 -12.5
v 16 0 -12.5
v 16 3 -12.5
v 16 77 -12.5
v 16 78 -12.5
v -16 3 -13.5
v -16 9 -13.5
v -16 76 -13.5
v -16 77 -13.5
v 16 3 -13.5
v 16 9 -13.5
v 16 76 -13.5
v 16 77 -13.5
v -16 9 -14.5
v -16 15 -14.5
v -16 75 -14.5
v -16 76 -14.5
v 16 9 -14.5
v 16 15 -14.5
v 16 75 -14.5
v 16 76 -14.5
v -16 15 -15.5
v -16 21 -15.5
v -16 74 -15.5
v -16 75 -15.5
v 16 15 -15.5
v 16 21 -15.5
v 16 74 -15.5
v 16 75 -15.5
v -16 21 -16.5
v -16 27 -16.5
v -16 73 -16.5
v -16 74 -16.5
v 16 21 -16.5
v 16 27 -16.5
v 16 73 -16.5
v 16 74 -16.5
v -16 27 -17.5
v -16 33 -17.5
v -16 72 -17.5
v -16 73 -17.5
v 16 27 -17.5
v 16 33 -17.5
v 16 72 -17.5
v 16 73 -17.5
v -16 33 -18.5
v -16 39 -18.5
v -16 71 -18.5
v -16 72 -18.5
v 16 33 -18.5
v 16 39 -18.5
v 16 71 -18.5
v 16 72 -18.5
v -16 39 -19.5
v -16 71 -19.5
v 16 39 -19.5
v 16 71 -19.5
v -16 0 17.5
v -15 0 17.5
v 15 0 16.5
v 16 0 16.5
v -15 0 12.5
v 15 0 12.5
v -15 0 11.5
v 15 0 11.5
v -16 0 -12.5
v 16 0 -12.5
v -16 3 -12.5
v 16 3 -12.5
v -16 3 -13.5
v 16 3 -13.5
v -16 9 -13.5
v 16 9 -13.5
v -16 9 -14.5
v 16 9 -14.5
v -9 13 13.5
v 9 13 13.5
v -9 13 12.5
v 9 13 12.5
v -16 15 -14.5
v 16 15 -14.5
v -16 15 -15.5
v 16 15 -15.5
v 6 17 14.5
v 8 17 14.5
v 6 17 13.5
v 8 17 13.5
v -7 19 14.5
v -5 19 14.5
v -3 19 14.5
v -1 19 14.5
v -7 19 13.5
v -5 19 13.5
v -3 19 13.5
v -1 19 13.5
v -16 21 -15.5
v 16 21 -15.5
v -16 21 -16.5
v 16 21 -16.5
v -16 27 -16.5
v 16 27 -16.5
v -16 27 -17.5
v 16 27 -17.5
v -16 31 19.5
v 16 31 19.5
v -16 31 17.5
v -15 31 17.5
v 15 31 16.5
v 16 31 16.5
v -15 31 12.5
v 15 31 12.5
v -16 33 -17.5
v 16 33 -17.5
v -16 33 -18.5
v 16 33 -18.5
v -16 39 -18.5
v 16 39 -18.5
v -16 39 -19.5
v 16 39 -19.5
v -6 45 17.5
v -3 45 17.5
v -5 45 16.5
v -4 45 16.5
v -5 45 15.5
v -4 45 15.5
v -6 45 14.5
v -3 45 14.5
v -10 68 12.5
v 10 68 12.5
v -10 68 -16.5
v 10 68 -16.5
v -16 72 19.5
v 16 72 19.5
v -15 72 18.5
v 15 72 18.5
v -16 72 12.5
v -15 72 12.5
v 15 72 12.5
v 16 72 12.5
v 6 19 14.5
v 8 19 14.5
v 6 19 13.5
v 8 19 13.5
v -7 22 14.5
v -5 22 14.5
v -3 22 14.5
v -1 22 14.5
v -7 22 13.5
v -5 22 13.5
v -3 22 13.5
v -1 22 13.5
v -9 24 13.5
v 9 24 13.5
v -9 24 12.5
v 9 24 12.5
v -16 41 19.5
v 16 41 19.5
v 0 41 18.5
v 2 41 18.5
v 4 41 18.5
v 6 41 18.5
v -6 41 17.5
v -3 41 17.5
v 0 41 16.5
v 2 41 16.5
v 4 41 16.5
v 6 41 16.5
v 0 41 15.5
v 2 41 15.5
v 4 41 15.5
v 6 41 15.5
v -6 41 14.5
v -3 41 14.5
v 0 41 13.5
v 2 41 13.5
v 4 41 13.5
v 6 41 13.5
v -16 41 12.5
v -15 41 12.5
v 15 41 12.5
v 16 41 12.5
v 0 42 18.5
v 2 42 18.5
v 4 42 18.5
v 6 42 18.5
v -6 42 17.5
v -3 42 17.5
v -5 42 16.5
v -4 42 16.5
v 0 42 16.5
v 2 42 16.5
v 4 42 16.5
v 6 42 16.5
v -5 42 15.5
v -4 42 15.5
v 0 42 15.5
v 2 42 15.5
v 4 42 15.5
v 6 42 15.5
v -6 42 14.5
v -3 42 14.5
v 0 42 13.5
v 2 42 13.5
v 4 42 13.5
v 6 42 13.5
v -10 45 12.5
v 10 45 12.5
v -10 45 -16.5
v 10 45 -16.5
v -6 48 17.5
v -3 48 17.5
v -6 48 14.5
v -3 48 14.5
v -16 71 -18.5
v 16 71 -18.5
v -16 71 -19.5
v 16 71 -19.5
v -16 72 -17.5
v 16 72 -17.5
v -16 72 -18.5
v 16 72 -18.5
v -16 73 -16.5
v 16 73 -16.5
v -16 73 -17.5
v 16 73 -17.5
v -16 74 -15.5
v 16 74 -15.5
v -16 74 -16.5
v 16 74 -16.5
v -16 75 -14.5
v 16 75 -14.5
v -16 75 -15.5
v 16 75 -15.5
v -16 76 -13.5
v 16 76 -13.5
v -16 76 -14.5
v 16 76 -14.5
v -16 77 -12.5
v 16 77 -12.5
v -16 77 -13.5
v 16 77 -13.5
v -16 78 -11.5
v 16 78 -11.5
v -16 78 -12.5
v 16 78 -12.5
v -16 79 -10.5
v 16 79 -10.5
v -16 79 -11.5
v 16 79 -11.5
v -16 80 19.5
v 16 80 19.5
v -16 80 -10.5
v 16 80 -10.5

# faces
f 3/3/1 2/3/1 1/3/1
f 5/3/1 4/3/1 3/3/1
f 7/3/1 6/3/1 5/3/1
f 9/3/1 8/3/1 7/3/1
f 11/3/1 10/3/1 9/3/1
f 14/3/1 3/3/1 1/3/1
f 14/3/1 12/3/1 11/3/1
f 14/3/1 11/3/1 9/3/1
f 14/3/1 9/3/1 7/3/1
f 14/3/1 7/3/1 5/3/1
f 14/3/1 5/3/1 3/3/1
f 15/3/1 12/3/1 14/3/1
f 15/3/1 14/3/1 13/3/1
f 17/3/1 16/3/1 15/3/1
f 19/3/1 15/3/1 13/3/1
f 19/3/1 18/3/1 17/3/1
f 19/3/1 17/3/1 15/3/1
f 20/3/1 18/3/1 19/3/1
f 21/11/1 20/11/1 19/11/1
f 22/3/1 18/3/1 20/3/1
f 22/11/1 20/11/1 21/11/1
f 23/3/1 18/3/1 22/3/1
f 24/3/1 18/3/1 23/3/1
f 26/3/1 23/3/1 22/3/1
f 27/3/1 23/3/1 26/3/1
f 28/3/1 23/3/1 27/3/1
f 29/3/1 26/3/1 25/3/1
f 29/3/1 27/3/1 26/3/1
f 30/3/1 27/3/1 29/3/1
f 31/3/1 29/3/1 25/3/1
f 32/3/1 29/3/1 31/3/1
f 33/3/1 31/3/1 25/3/1
f 34/3/1 31/3/1 33/3/1
f 35/3/1 33/3/1 25/3/1
f 36/3/1 33/3/1 35/3/1
f 37/3/1 35/3/1 25/3/1
f 38/3/1 35/3/1 37/3/1
f 39/3/1 37/3/1 25/3/1
f 40/3/1 37/3/1 39/3/1
f 41/3/1 39/3/1 25/3/1
f 42/3/1 39/3/1 41/3/1
f 43/3/1 41/3/1 25/3/1
f 44/3/1 41/3/1 43/3/1
f 47/11/1 46/11/1 45/11/1
f 48/11/1 46/11/1 47/11/1
f 51/5/1 50/5/1 49/5/1
f 52/5/1 50/5/1 51/5/1
f 55/9/1 54/9/1 53/9/1
f 56/9/1 54/9/1 55/9/1
f 59/5/1 58/5/1 57/5/1
f 60/5/1 58/5/1 59/5/1
f 63/8/1 62/8/1 61/8/1
f 64/8/1 62/8/1 63/8/1
f 67/5/1 66/5/1 65/5/1
f 68/5/1 66/5/1 67/5/1
f 73/7/1 70/7/1 69/7/1
f 74/7/1 70/7/1 73/7/1
f 75/6/1 72/6/1 71/6/1
f 76/6/1 72/6/1 75/6/1
f 81/4/1 78/4/1 77/4/1
f 82/4/1 78/4/1 81/4/1
f 83/1/1 80/1/1 79/1/1
f 84/1/1 80/1/1 83/1/1
f 87/8/1 86/8/1 85/8/1
f 88/8/1 86/8/1 87/8/1
f 91/12/1 90/12/1 89/12/1
f 92/12/1 90/12/1 91/12/1
f 95/3/1 94/3/1 93/3/1
f 96/3/1 94/3/1 95/3/1
f 97/3/2 98/3/2 99/3/2
f 99/3/2 98/3/2 100/3/2
f 101/12/2 102/12/2 103/12/2
f 103/12/2 102/12/2 104/12/2
f 105/5/2 106/5/2 107/5/2
f 107/5/2 106/5/2 108/5/2
f 109/8/2 110/8/2 111/8/2
f 111/8/2 110/8/2 112/8/2
f 113/9/2 114/9/2 115/9/2
f 115/9/2 114/9/2 116/9/2
f 117/5/2 118/5/2 119/5/2
f 119/5/2 118/5/2 120/5/2
f 121/5/2 122/5/2 123/5/2
f 123/5/2 122/5/2 124/5/2
f 125/7/2 126/7/2 129/7/2
f 129/7/2 126/7/2 130/7/2
f 127/6/2 128/6/2 131/6/2
f 131/6/2 128/6/2 132/6/2
f 133/4/2 134/4/2 137/4/2
f 137/4/2 134/4/2 138/4/2
f 135/1/2 136/1/2 139/1/2
f 139/1/2 136/1/2 140/1/2
f 141/8/2 142/8/2 143/8/2
f 143/8/2 142/8/2 144/8/2
f 145/11/2 146/11/2 147/11/2
f 147/11/2 146/11/2 148/11/2
f 149/3/2 150/3/2 151/3/2
f 151/3/2 152/3/2 153/3/2
f 153/3/2 154/3/2 155/3/2
f 155/3/2 156/3/2 157/3/2
f 157/3/2 158/3/2 159/3/2
f 149/3/2 151/3/2 162/3/2
f 159/3/2 160/3/2 162/3/2
f 157/3/2 159/3/2 162/3/2
f 155/3/2 157/3/2 162/3/2
f 153/3/2 155/3/2 162/3/2
f 151/3/2 153/3/2 162/3/2
f 162/3/2 160/3/2 163/3/2
f 161/3/2 162/3/2 163/3/2
f 163/3/2 164/3/2 165/3/2
f 161/3/2 163/3/2 167/3/2
f 165/3/2 166/3/2 167/3/2
f 163/3/2 165/3/2 167/3/2
f 167/3/2 166/3/2 168/3/2
f 167/11/2 168/11/2 169/11/2
f 168/3/2 166/3/2 170/3/2
f 169/11/2 168/11/2 170/11/2
f 170/3/2 166/3/2 171/3/2
f 171/3/2 166/3/2 172/3/2
f 170/3/2 171/3/2 174/3/2
f 174/3/2 171/3/2 175/3/2
f 175/3/2 171/3/2 176/3/2
f 173/3/2 174/3/2 177/3/2
f 174/3/2 175/3/2 177/3/2
f 177/3/2 175/3/2 178/3/2
f 173/3/2 177/3/2 179/3/2
f 179/3/2 177/3/2 180/3/2
f 173/3/2 179/3/2 181/3/2
f 181/3/2 179/3/2 182/3/2
f 173/3/2 181/3/2 183/3/2
f 183/3/2 181/3/2 184/3/2
f 173/3/2 183/3/2 185/3/2
f 185/3/2 183/3/2 186/3/2
f 173/3/2 185/3/2 187/3/2
f 187/3/2 185/3/2 188/3/2
f 173/3/2 187/3/2 189/3/2
f 189/3/2 187/3/2 190/3/2
f 173/3/2 189/3/2 191/3/2
f 191/3/2 189/3/2 192/3/2
f 198/3/3 194/3/3 193/3/3
f 199/11/3 195/11/3 194/11/3
f 199/3/3 194/3/3 198/3/3
f 200/11/3 195/11/3 199/11/3
f 201/3/3 197/3/3 196/3/3
f 202/3/3 197/3/3 201/3/3
f 205/7/3 204/7/3 203/7/3
f 206/7/3 204/7/3 205/7/3
f 209/4/3 208/4/3 207/4/3
f 210/4/3 208/4/3 209/4/3
f 213/3/3 212/3/3 211/3/3
f 214/3/3 212/3/3 213/3/3
f 219/9/3 216/9/3 215/9/3
f 220/9/3 216/9/3 219/9/3
f 221/5/3 218/5/3 217/5/3
f 222/5/3 218/5/3 221/5/3
f 225/8/3 224/8/3 223/8/3
f 226/8/3 224/8/3 225/8/3
f 229/3/3 228/3/3 227/3/3
f 230/3/3 228/3/3 229/3/3
f 233/6/3 232/6/3 231/6/3
f 234/6/3 232/6/3 233/6/3
f 237/1/3 236/1/3 235/1/3
f 238/1/3 236/1/3 237/1/3
f 241/5/3 240/5/3 239/5/3
f 242/5/3 240/5/3 241/5/3
f 245/5/3 244/5/3 243/5/3
f 246/5/3 244/5/3 245/5/3
f 249/8/3 248/8/3 247/8/3
f 250/8/3 248/8/3 249/8/3
f 253/11/3 252/11/3 251/11/3
f 254/11/3 252/11/3 253/11/3
f 255/11/3 253/11/3 251/11/3
f 256/11/3 252/11/3 254/11/3
f 257/11/3 255/11/3 251/11/3
f 257/11/3 256/11/3 255/11/3
f 258/11/3 252/11/3 256/11/3
f 258/11/3 256/11/3 257/11/3
f 259/11/3 257/11/3 251/11/3
f 260/11/3 252/11/3 258/11/3
f 261/11/3 259/11/3 251/11/3
f 261/11/3 260/11/3 259/11/3
f 262/11/3 260/11/3 261/11/3
f 263/11/3 261/11/3 251/11/3
f 264/11/3 260/11/3 262/11/3
f 265/11/3 263/11/3 251/11/3
f 265/11/3 264/11/3 263/11/3
f 266/11/3 252/11/3 260/11/3
f 266/11/3 264/11/3 265/11/3
f 266/11/3 260/11/3 264/11/3
f 271/3/3 268/3/3 267/3/3
f 272/3/3 268/3/3 271/3/3
f 273/2/3 272/2/3 271/2/3
f 274/2/3 272/2/3 273/2/3
f 275/12/3 274/12/3 273/12/3
f 276/12/3 274/12/3 275/12/3
f 277/10/3 270/10/3 269/10/3
f 278/10/3 270/10/3 277/10/3
f 279/10/3 277/10/3 269/10/3
f 280/10/3 270/10/3 278/10/3
f 281/12/3 275/12/3 273/12/3
f 282/12/3 274/12/3 276/12/3
f 283/12/3 281/12/3 273/12/3
f 283/12/3 282/12/3 281/12/3
f 283/2/3 273/2/3 271/2/3
f 284/12/3 274/12/3 282/12/3
f 284/12/3 282/12/3 283/12/3
f 284/2/3 272/2/3 274/2/3
f 285/10/3 280/10/3 279/10/3
f 285/10/3 279/10/3 269/10/3
f 286/10/3 270/10/3 280/10/3
f 286/10/3 280/10/3 285/10/3
f 287/2/3 283/2/3 271/2/3
f 287/2/3 284/2/3 283/2/3
f 288/2/3 272/2/3 284/2/3
f 288/2/3 284/2/3 287/2/3
f 289/3/3 288/3/3 287/3/3
f 290/3/3 288/3/3 289/3/3
f 293/12/3 292/12/3 291/12/3
f 294/12/3 292/12/3 293/12/3
f 295/7/4 296/7/4 297/7/4
f 297/7/4 296/7/4 298/7/4
f 299/4/4 300/4/4 301/4/4
f 301/4/4 300/4/4 302/4/4
f 303/8/4 304/8/4 305/8/4
f 305/8/4 304/8/4 306/8/4
f 307/9/4 308/9/4 311/9/4
f 311/9/4 308/9/4 312/9/4
f 309/5/4 310/5/4 313/5/4
f 313/5/4 310/5/4 314/5/4
f 315/6/4 316/6/4 317/6/4
f 317/6/4 316/6/4 318/6/4
f 319/1/4 320/1/4 321/1/4
f 321/1/4 320/1/4 322/1/4
f 323/3/4 324/3/4 325/3/4
f 325/3/4 324/3/4 326/3/4
f 327/3/4 328/3/4 329/3/4
f 329/3/4 328/3/4 330/3/4
f 331/3/4 332/3/4 335/3/4
f 335/3/4 332/3/4 336/3/4
f 333/3/4 334/3/4 337/3/4
f 337/3/4 334/3/4 338/3/4
f 339/3/4 340/3/4 343/3/4
f 343/3/4 340/3/4 344/3/4
f 341/3/4 342/3/4 345/3/4
f 345/3/4 342/3/4 346/3/4
f 347/3/4 348/3/4 351/3/4
f 351/3/4 348/3/4 352/3/4
f 349/3/4 350/3/4 353/3/4
f 353/3/4 350/3/4 354/3/4
f 355/3/4 356/3/4 359/3/4
f 359/3/4 356/3/4 360/3/4
f 357/3/4 358/3/4 361/3/4
f 361/3/4 358/3/4 362/3/4
f 363/3/4 364/3/4 367/3/4
f 367/3/4 364/3/4 368/3/4
f 365/3/4 366/3/4 369/3/4
f 369/3/4 366/3/4 370/3/4
f 371/3/4 372/3/4 375/3/4
f 375/3/4 372/3/4 376/3/4
f 373/3/4 374/3/4 377/3/4
f 377/3/4 374/3/4 378/3/4
f 379/3/4 380/3/4 383/3/4
f 383/3/4 380/3/4 384/3/4
f 381/3/4 382/3/4 385/3/4
f 385/3/4 382/3/4 386/3/4
f 387/3/4 388/3/4 389/3/4
f 389/3/4 388/3/4 390/3/4
f 395/3/5 392/3/5 391/3/5
f 396/3/5 394/3/5 393/3/5
f 397/3/5 395/3/5 391/3/5
f 397/10/5 396/10/5 395/10/5
f 398/3/5 394/3/5 396/3/5
f 398/10/5 396/10/5 397/10/5
f 399/3/5 397/3/5 391/3/5
f 399/3/5 398/3/5 397/3/5
f 400/3/5 394/3/5 398/3/5
f 400/3/5 398/3/5 399/3/5
f 403/3/5 402/3/5 401/3/5
f 404/3/5 402/3/5 403/3/5
f 407/3/5 406/3/5 405/3/5
f 408/3/5 406/3/5 407/3/5
f 411/11/5 410/11/5 409/11/5
f 412/11/5 410/11/5 411/11/5
f 415/3/5 414/3/5 413/3/5
f 416/3/5 414/3/5 415/3/5
f 419/8/5 418/8/5 417/8/5
f 420/8/5 418/8/5 419/8/5
f 425/5/5 422/5/5 421/5/5
f 426/5/5 422/5/5 425/5/5
f 427/5/5 424/5/5 423/5/5
f 428/5/5 424/5/5 427/5/5
f 431/3/5 430/3/5 429/3/5
f 432/3/5 430/3/5 431/3/5
f 435/3/5 434/3/5 433/3/5
f 436/3/5 434/3/5 435/3/5
f 439/3/5 438/3/5 437/3/5
f 440/3/5 438/3/5 439/3/5
f 441/3/5 438/3/5 440/3/5
f 442/3/5 438/3/5 441/3/5
f 443/3/5 441/3/5 440/3/5
f 444/3/5 441/3/5 443/3/5
f 447/3/5 446/3/5 445/3/5
f 448/3/5 446/3/5 447/3/5
f 451/3/5 450/3/5 449/3/5
f 452/3/5 450/3/5 451/3/5
f 455/5/5 454/5/5 453/5/5
f 456/5/5 454/5/5 455/5/5
f 457/5/5 455/5/5 453/5/5
f 458/5/5 454/5/5 456/5/5
f 459/5/5 457/5/5 453/5/5
f 459/5/5 458/5/5 457/5/5
f 460/5/5 454/5/5 458/5/5
f 460/5/5 458/5/5 459/5/5
f 463/12/5 462/12/5 461/12/5
f 464/12/5 462/12/5 463/12/5
f 467/3/5 466/3/5 465/3/5
f 468/3/5 466/3/5 467/3/5
f 469/3/5 467/3/5 465/3/5
f 470/2/5 468/2/5 467/2/5
f 470/3/5 467/3/5 469/3/5
f 471/3/5 466/3/5 468/3/5
f 471/2/5 468/2/5 470/2/5
f 472/3/5 466/3/5 471/3/5
f 473/8/6 474/8/6 475/8/6
f 475/8/6 474/8/6 476/8/6
f 477/5/6 478/5/6 481/5/6
f 481/5/6 478/5/6 482/5/6
f 479/5/6 480/5/6 483/5/6
f 483/5/6 480/5/6 484/5/6
f 485/11/6 486/11/6 487/11/6
f 487/11/6 486/11/6 488/11/6
f 489/11/6 490/11/6 491/11/6
f 491/11/6 490/11/6 492/11/6
f 492/11/6 490/11/6 493/11/6
f 493/11/6 490/11/6 494/11/6
f 489/11/6 491/11/6 495/11/6
f 495/11/6 491/11/6 496/11/6
f 496/11/6 491/11/6 497/11/6
f 492/11/6 493/11/6 498/11/6
f 498/11/6 493/11/6 499/11/6
f 494/11/6 490/11/6 500/11/6
f 498/11/6 499/11/6 501/11/6
f 499/11/6 500/11/6 501/11/6
f 496/11/6 497/11/6 501/11/6
f 497/11/6 498/11/6 501/11/6
f 501/11/6 500/11/6 502/11/6
f 502/11/6 500/11/6 503/11/6
f 500/11/6 490/11/6 504/11/6
f 503/11/6 500/11/6 504/11/6
f 489/11/6 495/11/6 505/11/6
f 496/11/6 501/11/6 506/11/6
f 506/11/6 501/11/6 507/11/6
f 505/11/6 506/11/6 507/11/6
f 502/11/6 503/11/6 508/11/6
f 508/11/6 503/11/6 509/11/6
f 504/11/6 490/11/6 510/11/6
f 505/11/6 507/11/6 511/11/6
f 509/11/6 510/11/6 511/11/6
f 508/11/6 509/11/6 511/11/6
f 489/11/6 505/11/6 511/11/6
f 507/11/6 508/11/6 511/11/6
f 511/11/6 510/11/6 512/11/6
f 510/11/6 490/11/6 513/11/6
f 512/11/6 510/11/6 513/11/6
f 513/11/6 490/11/6 514/11/6
f 519/9/6 520/9/6 521/9/6
f 521/9/6 520/9/6 522/9/6
f 515/7/6 516/7/6 523/7/6
f 523/7/6 516/7/6 524/7/6
f 517/4/6 518/4/6 525/4/6
f 525/4/6 518/4/6 526/4/6
f 519/9/6 521/9/6 527/9/6
f 522/9/6 520/9/6 528/9/6
f 519/9/6 527/9/6 533/9/6
f 527/9/6 528/9/6 533/9/6
f 528/9/6 520/9/6 534/9/6
f 533/9/6 528/9/6 534/9/6
f 529/6/6 530/6/6 535/6/6
f 535/6/6 530/6/6 536/6/6
f 531/1/6 532/1/6 537/1/6
f 537/1/6 532/1/6 538/1/6
f 539/12/6 540/12/6 541/12/6
f 541/12/6 540/12/6 542/12/6
f 543/5/6 544/5/6 545/5/6
f 545/5/6 544/5/6 546/5/6
f 547/3/6 548/3/6 549/3/6
f 549/3/6 548/3/6 550/3/6
f 551/3/6 552/3/6 553/3/6
f 553/3/6 552/3/6 554/3/6
f 555/3/6 556/3/6 557/3/6
f 557/3/6 556/3/6 558/3/6
f 559/3/6 560/3/6 561/3/6
f 561/3/6 560/3/6 562/3/6
f 563/3/6 564/3/6 565/3/6
f 565/3/6 564/3/6 566/3/6
f 567/3/6 568/3/6 569/3/6
f 569/3/6 568/3/6 570/3/6
f 571/3/6 572/3/6 573/3/6
f 573/3/6 572/3/6 574/3/6
f 575/3/6 576/3/6 577/3/6
f 577/3/6 576/3/6 578/3/6
f 579/3/6 580/3/6 581/3/6
f 581/3/6 580/3/6 582/3/6
f 583/3/6 584/3/6 585/3/6
f 585/3/6 584/3/6 586/3/6
